<?xml version="1.0" encoding="UTF-8" standalone="no"?>
<svg
   version="1.0"
   width="245.29836pt"
   height="245.29836pt"
   viewBox="0 0 245.29836 245.29835"
   preserveAspectRatio="xMidYMid"
   id="svg4"
   sodipodi:docname="icon.svg"
   inkscape:version="1.4.2 (ebf0e940d0, 2025-05-08)"
   xmlns:inkscape="http://www.inkscape.org/namespaces/inkscape"
   xmlns:sodipodi="http://sodipodi.sourceforge.net/DTD/sodipodi-0.dtd"
   xmlns="http://www.w3.org/2000/svg"
   xmlns:svg="http://www.w3.org/2000/svg">
  <defs
     id="defs4">
    <filter
       id="mask-powermask-path-effect13_inverse"
       inkscape:label="filtermask-powermask-path-effect13"
       style="color-interpolation-filters:sRGB"
       height="100"
       width="100"
       x="-50"
       y="-50">
      <feColorMatrix
         id="mask-powermask-path-effect13_primitive1"
         values="1"
         type="saturate"
         result="fbSourceGraphic" />
      <feColorMatrix
         id="mask-powermask-path-effect13_primitive2"
         values="-1 0 0 0 1 0 -1 0 0 1 0 0 -1 0 1 0 0 0 1 0 "
         in="fbSourceGraphic" />
    </filter>
  </defs>
  <sodipodi:namedview
     id="namedview4"
     pagecolor="#ffffff"
     bordercolor="#000000"
     borderopacity="0.25"
     inkscape:showpageshadow="2"
     inkscape:pageopacity="0.0"
     inkscape:pagecheckerboard="0"
     inkscape:deskcolor="#d1d1d1"
     inkscape:document-units="pt"
     inkscape:zoom="2.96"
     inkscape:cx="155.91216"
     inkscape:cy="181.08108"
     inkscape:window-width="3840"
     inkscape:window-height="2095"
     inkscape:window-x="0"
     inkscape:window-y="0"
     inkscape:window-maximized="1"
     inkscape:current-layer="svg4"
     showguides="true" />
  <metadata
     id="metadata1">
Created by potrace 1.10, written by Peter Selinger 2001-2011
</metadata>
  <path
     id="path1"
     style="fill:#3a2240;stroke:#3a2240;stroke-width:5.29836"
     d="m 242.64918,122.64918 a 120,120 0 0 1 -120,120 120,120 0 0 1 -120.0000024,-120 A 120,120 0 0 1 122.64918,2.6491776 a 120,120 0 0 1 120,120.0000024 z" />
  <path
     id="path12"
     style="fill:#ffffff;fill-opacity:1;stroke:#ffffff;stroke-width:2.25225;stroke-opacity:1"
     transform="scale(0.75)"
     d="m 197.99213,98.23564 c -0.33107,-0.472666 -0.52591,-1.485969 -0.52591,-2.735037 0,-2.620172 0.72023,-3.84812 2.52679,-4.308029 1.94313,-0.494674 3.03841,-0.933851 6.04606,-2.424295 1.77325,-0.878731 2.77335,-1.205861 2.99843,-0.980777 0.65148,0.651476 -1.17772,3.494295 -4.42591,6.878439 -4.19205,4.367518 -5.54834,5.098932 -6.61946,3.569699 z m -7.50721,165.15496 c -4.60329,-1.16881 -8.38358,-4.24095 -10.41463,-8.46368 -3.17789,-6.6071 -4.26681,-16.42141 -2.77695,-25.02827 l 0.40936,-2.36487 1.35135,0.0949 c 2.45398,0.17233 9.77716,1.48088 10.89527,1.94684 0.97118,0.40473 1.09798,0.60878 1.09798,1.76699 0,0.72018 -0.36722,2.38907 -0.81603,3.70865 -1.63796,4.81577 -2.053,7.38675 -2.0317,12.58398 0.0174,4.23673 0.12091,5.14972 0.76608,6.75675 1.87772,4.67717 4.85048,5.7701 10.0628,3.69955 3.88183,-1.54203 4.26363,-1.02502 1.64115,2.22238 -2.27331,2.81504 -6.3569,4.04869 -10.18468,3.07678 z m -72.29157,2.84483 c -1.78668,-0.76263 -0.96754,-1.70075 2.24584,-2.57203 6.06019,-1.64318 8.22475,-4.25527 9.12472,-11.01124 0.20669,-1.55159 0.48058,-6.54012 0.60864,-11.08562 l 0.23286,-8.26454 2.7027,-0.78899 c 5.84022,-1.70491 11.74862,-3.12112 13.02129,-3.12112 1.22243,0 1.33682,0.077 1.33682,0.8994 0,2.77848 -5.76293,15.90741 -9.46672,21.56682 -4.04066,6.17412 -8.07129,10.6245 -11.95669,13.20185 -1.83431,1.21677 -2.20741,1.33177 -4.56081,1.40517 -1.4097,0.044 -2.88959,-0.0594 -3.28865,-0.2297 z m 124.81812,-20.29352 c -5.73463,-0.90784 -10.3722,-2.7105 -23.92363,-9.29932 -16.15226,-7.85335 -24.33467,-11.16226 -31.37723,-12.68869 -2.7899,-0.6047 -4.81584,-0.73018 -14.28007,-0.88445 -23.93003,-0.39006 -30.85964,0.94902 -59.41027,11.48043 -16.567064,6.11105 -23.009432,7.9951 -29.762692,8.70398 -8.434662,0.88537 -14.6872,-1.03227 -20.120612,-6.17097 -3.708655,-3.50749 -5.60428,-7.32175 -4.865034,-9.78914 0.61019,-2.03664 2.110142,-1.48272 3.514254,1.29776 0.293777,0.58176 1.02177,1.46805 1.61776,1.96954 1.062034,0.89368 1.162101,0.90959 5.023507,0.80038 3.702797,-0.10472 4.03952,-0.1731 5.595635,-1.1362 1.266159,-0.78364 1.895446,-1.49345 2.674439,-3.01665 0.974019,-1.90455 1.018689,-2.17887 1.018689,-6.25627 0,-4.24438 -0.0059,-4.27636 -1.262878,-6.81964 -2.235909,-4.52405 -6.469385,-8.47376 -17.318203,-16.15736 -13.143992,-9.30913 -18.235565,-13.39441 -24.49483,-19.65367 -5.092658,-5.09266 -8.90893,-10.14845 -11.294009,-14.96228 -2.461554,-4.96818 -3.351905,-8.2396 -3.360205,-12.34585 -0.01073,-5.33501 1.642642,-8.68564 6.834971,-13.85135 3.241002,-3.22438 3.376349,-3.19225 2.778725,0.65952 -0.453623,2.92368 -0.456242,7.81839 -0.0052,9.77472 0.646508,2.80431 2.082796,5.19861 4.701058,7.83669 6.711236,6.76205 17.481443,9.88849 32.103033,9.31906 14.429851,-0.56195 24.98531,-3.39591 36.937722,-9.91713 10.70216,-5.83908 19.71933,-14.38081 22.9911,-21.77887 1.6154,-3.65271 1.72728,-4.93111 1.71618,-19.60935 -0.006,-7.56202 -0.0924,-13.831155 -0.19267,-13.931405 -0.10025,-0.100246 -2.22395,-0.274486 -4.71933,-0.387192 -2.49538,-0.11271 -5.52523,-0.435504 -6.733,-0.717325 -4.73411,-1.104655 -10.15007,-4.348848 -12.04802,-7.216834 -1.41689,-2.141064 -0.90763,-2.289399 4.18615,-1.219308 6.51563,1.368791 11.78394,1.16025 14.34844,-0.567966 2.13962,-1.441888 2.11418,-3.960717 -0.0504,-4.983798 -1.51519,-0.716172 -1.76755,-1.54283 -1.35627,-4.442747 1.67916,-11.839564 9.26064,-21.015815 20.25789,-24.519129 3.29024,-1.048149 6.02533,-1.437982 10.05249,-1.432682 8.05723,0.01055 15.93042,2.639065 22.31504,7.450023 9.15077,6.895314 15.68171,19.663453 17.28463,33.791833 0.17919,1.579392 0.48579,8.87669 0.68134,16.21622 0.50267,18.86639 0.86974,21.98144 3.14504,26.68919 1.3885,2.87289 6.37306,7.9122 10.50017,10.61548 11.54328,7.56094 30.85368,13.15923 48.37636,14.02482 21.15591,1.04507 32.02781,-2.69548 35.56813,-12.23744 0.57454,-1.54852 0.72633,-2.70807 0.72733,-5.57432 0.002,-4.37831 0.40732,-6.15287 1.40438,-6.15287 1.66433,0 5.2032,5.54352 5.99543,9.39163 1.29528,6.29156 -1.51916,14.58483 -7.85871,23.15718 -2.78516,3.76609 -9.97781,11.02374 -14.63608,14.76834 -2.26234,1.81861 -7.73532,5.73266 -12.16216,8.69788 -4.42684,2.96522 -9.42762,6.45713 -11.11284,7.7598 -6.72113,5.19539 -11.38648,10.41594 -11.8394,13.24837 -0.54974,3.43793 -1.41314,2.74102 -7.56278,-6.10454 -2.77447,-3.99077 -9.07691,-10.50633 -17.73648,-18.33626 -9.60737,-8.68692 -14.01237,-13.04697 -17.28583,-17.10943 -5.87466,-7.29064 -9.44373,-13.21979 -12.60206,-20.93536 -2.26957,-5.54437 -3.52205,-7.51398 -4.69074,-7.37649 -4.0522,0.47674 2.25383,17.1273 10.59571,27.97712 2.67768,3.48271 5.62655,6.57541 21.25738,22.29419 16.45008,16.54264 15.7077,15.696 25.19175,28.72984 3.17113,4.35804 7.05803,8.30068 9.45552,9.5911 3.54106,1.90593 7.94857,1.06695 10.83276,-2.06204 1.75496,-1.9039 2.3442,-3.32583 2.58919,-6.24811 0.12358,-1.47395 0.33234,-2.28599 0.56777,-2.20839 0.20478,0.0675 0.82841,0.77038 1.38585,1.562 0.96597,1.37185 1.01287,1.60022 1.00987,4.87192 -0.003,3.12042 -0.0919,3.60159 -0.9745,5.29071 -2.77365,5.30841 -5.79107,8.08101 -10.31666,9.47964 -2.53219,0.78258 -7.1372,1.08612 -9.88292,0.65146 z m -123.29886,25.34118 c -2.7807,-0.40292 -4.98288,-1.55081 -7.14932,-3.72666 -2.206,-2.21559 -3.46486,-4.81195 -3.85162,-7.9438 -0.42618,-3.45108 0.8474,-6.64542 2.97905,-7.47202 1.63653,-0.63461 3.071,0.38174 4.27569,3.02939 0.39172,0.86093 0.87328,1.79497 1.07014,2.07567 0.44278,0.6314 1.57333,1.23545 2.3123,1.23545 1.3484,0 2.92035,-1.21779 4.09435,-3.17191 1.21217,-2.01765 2.08457,-8.1892 2.11737,-14.97869 0.0191,-3.95339 -0.0923,-4.76683 -0.65273,-4.76683 -0.11427,0 -2.60989,1.04211 -5.54593,2.31576 -12.42474,5.38992 -19.465031,7.70862 -27.998751,9.22128 -7.297934,1.29362 -14.879347,1.30154 -20.27728,0.0212 -8.085827,-1.91785 -13.60552,-6.5952 -15.956227,-13.5212 -0.41779,-1.23092 -0.48622,-1.73348 -0.49412,-3.62888 -0.012,-2.91964 0.536707,-5.22786 1.916787,-8.06102 1.288986,-2.6461 3.106266,-4.6772 4.972506,-5.55758 0.904547,-0.42668 1.27192,-0.49028 2.84432,-0.49428 1.59728,-0.004 1.872614,0.0443 2.386107,0.41616 1.196627,0.86664 1.095173,2.44395 -0.308973,4.80364 -1.06712,1.7933 -1.0716,2.52398 -0.02413,3.93268 0.96552,1.2985 2.4294,2.48555 3.06408,2.48463 0.264174,-3.9e-4 0.7628,-0.17553 1.108054,-0.38924 0.948986,-0.58743 2.969986,-2.71779 3.410853,-3.59544 0.5564,-1.10772 0.673613,-2.6368 0.311947,-4.0702 -1.271614,-5.03995 -5.856507,-9.34172 -21.503894,-20.17605 -7.64168,-5.29119 -13.639613,-9.92284 -18.689013,-14.43188 -8.0594,-7.19692 -14.72504,-17.40798 -17.045507,-26.11191 -0.791026,-2.96704 -1.06864,-5.01041 -1.068,-7.86051 0.0011,-4.71737 1.092654,-8.49161 3.513854,-12.14956 1.120693,-1.6931 3.9718,-4.48662 5.914026,-5.7945 5.25468,-3.53848 12.61312,-5.53778 16.03596,-4.35698 1.307294,0.45099 2.039734,1.32148 2.039734,2.42422 0,1.61193 -0.90368,2.59872 -2.8264,3.08628 -2.94844,0.74768 -4.905374,2.89873 -5.58084,6.1345 -0.890334,4.26495 0.703586,8.86127 4.20256,12.11876 3.60236,3.35374 8.40736,5.63927 14.045306,6.68074 3.532667,0.65258 4.920534,0.74838 10.653147,0.73568 11.315187,-0.0252 19.926147,-1.57866 29.160747,-5.26099 11.143187,-4.44339 22.630967,-13.23144 27.855117,-21.30895 3.42396,-5.29405 4.63977,-10.57922 3.82637,-16.63318 -0.8506,-6.33066 -1.68396,-9.91763 -2.54578,-10.95763 -0.65602,-0.7916 -0.85198,-0.86628 -2.8707,-1.09392 -4.10556,-0.46297 -11.03029,-3.67564 -14.75549,-6.845713 -2.51339,-2.13884 -5.334437,-6.89522 -7.036811,-11.864227 -1.275586,-3.723313 -1.610146,-7.403271 -0.81632,-8.979005 0.575547,-1.142472 0.856614,-1.267682 1.798254,-0.801112 1.30136,0.644836 2.970667,2.036322 5.633647,4.696005 4.15011,4.144988 5.886,5.084112 9.39755,5.084112 3.48464,0 3.55163,-0.09535 3.73307,-5.316839 0.17997,-5.179512 0.77353,-7.79347 2.70597,-11.917062 6.18009,-13.187559 21.37989,-21.448427 36.41432,-19.790664 8.15397,0.899104 16.79839,4.616258 23.43973,10.079241 3.55031,2.920367 7.55626,7.567827 9.87224,11.453144 1.43744,2.411492 2.08984,3.805029 3.64784,7.791919 2.07036,5.298062 3.07534,7.03002 4.369,7.529438 1.29106,0.498394 3.16396,-0.01904 5.37587,-1.485197 2.42125,-1.604924 4.78355,-4.403321 4.79355,-5.677555 0.0107,-1.462573 2.16172,-4.033474 3.37421,-4.033474 0.87448,0 2.83464,2.44823 3.67271,4.587192 0.75809,1.934818 0.39516,4.957324 -1.18094,9.83474 -1.40156,4.33734 -3.22757,7.651582 -5.57558,10.119721 -1.69558,1.782306 -3.03308,2.730836 -5.53484,3.925146 -3.59383,1.71567 -3.78592,2.18142 -4.40268,10.67617 -0.92563,12.74787 -0.3619,17.47471 2.6349,22.09362 1.388,2.13927 4.55042,5.47729 6.8715,7.25304 14.64605,11.205 48.46606,18.40796 66.49269,14.16157 4.60197,-1.08405 7.74024,-2.84852 9.89471,-5.56321 1.02304,-1.28905 2.67538,-4.48837 3.11613,-6.03357 0.39829,-1.39632 0.20431,-2.34459 -0.83385,-4.07604 -1.51315,-2.52363 -3.26872,-4.19122 -4.63916,-4.40668 -1.60371,-0.25215 -3.65238,-1.92256 -3.92958,-3.20404 -0.33241,-1.53684 2.09828,-2.71369 5.60486,-2.71363 4.56832,6e-5 10.02361,1.90899 13.45072,4.70669 4.95385,4.04406 7.51618,10.67772 6.86814,17.78114 -0.92798,10.17224 -6.01216,19.11345 -17.18384,30.22008 -7.0931,7.05184 -12.56444,11.33197 -22.45514,17.56638 -11.47431,7.23256 -17.66048,13.16451 -19.05986,18.27648 -0.35242,1.28748 -0.268,3.57474 0.17934,4.85851 0.76837,2.20509 2.56222,4.37017 4.28397,5.17053 0.87356,0.4061 1.18327,0.4555 2.40388,0.3838 1.09347,-0.0643 1.58064,-0.18918 2.21867,-0.56884 2.37046,-1.41054 3.20213,-4.30096 2.04116,-7.0939 -1.09259,-2.62854 -1.22874,-3.06056 -1.24234,-3.9418 -0.0177,-1.1435 0.32568,-1.87747 1.14016,-2.4378 0.55415,-0.38148 0.80082,-0.42728 2.00288,-0.37348 2.06152,0.0923 3.69235,0.98493 5.9662,3.26606 2.40991,2.41763 3.73051,4.5697 5.11594,8.33694 0.93264,2.53605 1.01261,3.85109 0.38596,6.34774 -0.8765,3.49203 -2.74144,6.6677 -6.36079,10.83115 -2.60148,2.99261 -5.82349,5.65291 -7.47131,6.1688 -1.84606,0.57796 -10.01877,0.77512 -13.36692,0.32248 -6.78753,-0.91763 -14.021,-3.64748 -26.6435,-10.05492 -9.90842,-5.02973 -17.05991,-8.15661 -18.06766,-7.8998 -1.083,0.27603 -2.59152,2.97973 -3.82293,6.85187 -1.51392,4.7605 -1.95392,7.18657 -1.65172,9.10737 0.51085,3.24704 2.81624,6.01484 4.32641,5.1942 0.78478,-0.42648 1.08528,-1.56993 1.07298,-4.08261 -0.0169,-3.43792 0.4879,-4.29576 2.43146,-4.13211 3.9784,0.335 7.3313,5.26989 7.3313,10.79037 0,2.15883 -0.40499,3.6557 -1.4146,5.2284 -2.31872,3.61194 -8.34128,7.11106 -12.6809,7.36759 -8.56752,0.50645 -18.65034,-8.97404 -20.73184,-19.49339 -0.90988,-4.59826 -0.97654,-17.2667 -0.10626,-20.20269 0.22248,-0.75061 0.21969,-0.89199 -0.0228,-1.16405 -0.58499,-0.65635 -2.36699,-0.80515 -9.64235,-0.80515 -6.11547,0 -7.07464,0.0388 -7.97423,0.32135 -1.30172,0.40908 -1.84065,1.04824 -2.32864,2.76178 -1.83574,6.44588 -3.73481,11.49674 -6.32676,16.82683 -2.30317,4.73621 -3.74465,7.30353 -6.21792,11.0744 -3.72564,5.68028 -6.51561,8.71249 -9.4087,10.22567 -2.0273,1.0603 -4.86144,2.03941 -6.99447,2.41636 -1.76305,0.31158 -2.17349,0.31876 -3.90232,0.0683 z m 5.29566,-5.34378 1.2e-4,0 c 2.00064,-1.00423 3.87105,-2.50714 6.34933,-5.10179 6.35724,-6.65569 12.37877,-17.31631 15.67367,-27.74889 0.8818,-2.79212 0.95252,-3.2592 0.55458,-3.6633 -0.73034,-0.74156 -4.39602,-0.0296 -13.3844,2.59951 l -4.19806,1.22796 -0.007,4.95973 c -0.008,6.65955 -0.27817,13.22114 -0.62541,15.18262 -0.622,3.51369 -1.56078,5.66568 -3.17908,7.28757 -1.2754,1.27821 -2.87118,2.07647 -5.33095,2.6666 -2.91391,0.69911 -3.85912,1.19215 -3.85912,2.01299 0,0.95078 1.43663,1.37853 4.43348,1.31993 2.12056,-0.0415 2.21232,-0.0604 3.57184,-0.74293 z m 70.62936,-2.235 c 2.01656,-0.4318 3.2834,-1.1715 4.8403,-2.82618 1.44506,-1.53577 2.16964,-2.71272 2.07694,-3.37361 -0.0455,-0.32447 -0.19432,-0.40873 -0.80143,-0.45373 -0.57288,-0.0424 -1.16828,0.13762 -2.57121,0.77786 -2.10138,0.95896 -2.9555,1.19202 -4.3955,1.19802 -2.19868,0.009 -4.27148,-1.44747 -5.29796,-3.72408 -1.018,-2.25782 -1.23204,-3.57574 -1.23804,-7.63847 -0.008,-4.96227 0.44979,-7.56001 2.23566,-12.69015 0.57241,-1.64425 0.75597,-2.45401 0.78277,-3.45256 0.0315,-1.16928 -0.009,-1.34069 -0.38799,-1.6535 -0.88368,-0.72911 -3.84186,-1.41752 -8.97817,-2.08932 -1.97963,-0.25895 -3.77239,-0.50983 -3.98392,-0.55763 -0.3522,-0.0796 -0.40115,0.0251 -0.58077,1.24037 -0.10787,0.72996 -0.36202,2.44096 -0.5647,3.80226 -1.31838,8.85433 0.86638,20.55644 4.788,25.64552 3.37143,4.37513 9.30307,6.81721 14.07602,5.7952 z m 54.72065,-17.59439 c 3.70244,-0.60975 6.26919,-1.8272 8.87961,-4.21169 2.15042,-1.9643 4.50695,-5.93864 5.17611,-8.72964 0.39843,-1.6617 0.37613,-4.25342 -0.0485,-5.63867 -0.34463,-1.12429 -0.70012,-1.73236 -1.81472,-3.10408 -1.08896,-1.34015 -1.45948,-0.95264 -1.45948,1.52643 0,2.66561 -0.86058,4.80224 -2.68232,6.6596 -2.67122,2.72341 -6.40179,3.6423 -9.53648,2.34897 -3.37012,-1.39047 -7.44794,-5.6466 -12.7724,-13.33093 -6.08136,-8.7767 -9.50834,-12.68615 -19.41676,-22.15047 -10.3301,-9.86709 -19.89463,-19.72919 -23.85886,-24.60108 -5.2251,-6.42151 -9.85072,-15.13325 -12.07897,-22.74921 -0.82665,-2.82539 -0.69687,-5.77671 0.27063,-6.15368 1.05474,-0.41098 2.84724,2.31288 4.59749,6.98632 2.30159,6.14568 5.44663,11.78634 10.02208,17.97478 4.14343,5.60407 8.03539,9.77732 14.53713,15.58775 16.21524,14.49107 20.10351,18.46571 24.47814,25.02192 2.3267,3.48703 2.79072,4.10983 3.98345,5.34679 1.66713,1.72893 2.37247,1.60249 2.61809,-0.4693 0.2618,-2.20808 1.78448,-4.51912 5.1479,-7.81317 4.39432,-4.30367 9.48476,-8.17801 17.57986,-13.38004 6.1224,-3.93433 10.19523,-6.90976 14.89635,-10.88261 3.02619,-2.55738 9.04641,-8.73423 11.28437,-11.57795 7.59316,-9.64843 10.61482,-18.99097 8.44812,-26.12048 -0.76418,-2.51461 -2.5512,-5.55205 -4.19528,-7.13088 -0.88878,-0.85354 -1.07953,-0.95704 -1.67092,-0.90664 -0.54488,0.0465 -0.73532,0.17484 -1.03598,0.69856 -0.34146,0.59479 -0.36466,0.89808 -0.31796,4.14924 0.0563,3.91447 -0.10187,5.07075 -1.02534,7.49583 -1.50578,3.95425 -4.71398,7.14514 -8.94118,8.89297 -3.00199,1.24124 -6.98852,2.17839 -11.84475,2.78445 -2.54971,0.31822 -14.08531,0.31534 -17.24365,-0.004 -8.75991,-0.8865 -16.03324,-2.26982 -23.85111,-4.53622 -11.48989,-3.33091 -20.54415,-7.81623 -26.34511,-13.05091 -5.90318,-5.32693 -7.62726,-9.02577 -8.39696,-18.01481 -0.10786,-1.26046 -0.27066,-6.82939 -0.36156,-12.37541 -0.15752,-9.60799 -0.30246,-13.27663 -0.72796,-18.425613 -0.57452,-6.952447 -2.18808,-12.988586 -5.12148,-19.158955 -5.18272,-10.901761 -12.57902,-17.851144 -22.58778,-21.222887 -10.97767,-3.698149 -21.59308,-2.541657 -30.33439,3.304788 -2.44733,1.636842 -5.91505,5.15639 -7.54348,7.656244 -2.83107,4.345984 -4.59733,9.498902 -4.93144,14.386988 -0.14477,2.117715 0.12853,3.038659 0.9522,3.208671 1.11248,0.229633 1.41652,0.396065 1.81192,0.991829 0.55949,0.842984 0.55921,2.122955 -6.1e-4,2.968466 -0.976,1.474028 -4.16374,2.4351 -8.07394,2.434181 -2.70404,-6.19e-4 -3.94374,-0.178628 -7.70812,-1.106785 -1.78942,-0.441204 -2.87849,-0.61504 -3.61124,-0.57641 -1.02616,0.05403 -1.05036,0.06765 -1.10346,0.620578 -0.0419,0.436138 0.13532,0.821437 0.77581,1.686586 2.54359,3.435791 7.28347,6.150934 12.91095,7.395747 1.37376,0.303893 2.59989,0.398567 6.15752,0.475417 l 4.44217,0.09591 0.11773,2.682425 c 0.0648,1.47535 0.16966,6.64257 0.23306,11.48274 0.18164,13.86661 -0.2382,16.89478 -3.00384,21.66602 -2.77951,4.79513 -8.022,10.28749 -13.85727,14.51772 -7.11411,5.15729 -16.974935,9.90033 -25.206175,12.12411 -11.98972,3.23917 -27.663586,3.74134 -37.391986,1.19802 -5.639974,-1.47449 -10.938507,-4.31164 -14.205347,-7.60644 -3.074133,-3.10044 -4.5792,-6.21406 -5.034493,-10.41525 -0.22528,-2.07892 -0.1128,-3.62033 0.611386,-8.37919 0.24516,-1.61105 0.41233,-2.96308 0.37152,-3.00458 -0.09427,-0.0957 -3.560706,3.17653 -5.246306,4.95233 -2.439067,2.56957 -3.997694,5.17367 -4.872454,8.14072 -0.41899,1.42109 -0.48458,1.97272 -0.48948,4.11611 -0.0093,3.9048 0.9198,7.43725 3.205507,12.19206 2.377307,4.94538 5.40304,9.10524 10.38592,14.27886 6.021813,6.25234 12.69088,11.72508 22.933147,18.81936 13.174946,9.12557 17.66032,13.15128 20.06604,18.00964 1.108506,2.23858 1.455246,3.82032 1.456746,6.64405 0.0027,5.67995 -1.737093,8.83063 -5.63336,10.20056 -1.007146,0.35409 -1.557866,0.41389 -3.882066,0.42289 -4.12712,0.0156 -4.98364,-0.42688 -6.500627,-3.35812 -1.490933,-2.88092 -3.12488,-3.19581 -3.710947,-0.7152 -0.62688,2.65331 0.869614,5.8199 4.442494,9.4004 4.903346,4.91379 9.767706,6.87522 17.05056,6.87522 7.57288,0 15.22416,-1.99762 32.504771,-8.48654 17.8601,-6.70649 25.92248,-9.21513 33.94563,-10.56232 6.87223,-1.15392 12.01255,-1.48076 23.29248,-1.48276 11.0844,-0.001 14.96521,0.30427 19.77152,1.5582 6.37215,1.66246 17.20555,6.20111 28.4728,11.92867 12.09025,6.14589 18.23775,8.5516 24.30339,9.51063 2.12264,0.3356 5.54844,0.34169 7.54188,0.0135 z M 200.79224,98.574221 c 2.87013,-1.946081 7.70691,-7.433161 8.42955,-9.562897 0.30817,-0.908248 0.15084,-1.769195 -0.32332,-1.769195 -0.18858,0 -1.66499,0.687543 -3.2809,1.527866 -2.73576,1.422661 -5.16214,2.322264 -6.26364,2.322264 -0.63777,0 -1.56536,1.076572 -1.89312,2.197164 -0.40354,1.379842 -0.37493,3.733498 0.0572,4.69961 0.69415,1.552056 1.60756,1.715316 3.2743,0.585188 z" />
</svg>
