<?xml version="1.0" encoding="UTF-8" standalone="no"?>
<svg
   version="1.0"
   width="294.35803pt"
   height="294.35803pt"
   viewBox="0 0 294.35804 294.35803"
   preserveAspectRatio="xMidYMid"
   id="svg4"
   sodipodi:docname="icon.svg"
   inkscape:version="1.4.2 (ebf0e940d0, 2025-05-08)"
   xmlns:inkscape="http://www.inkscape.org/namespaces/inkscape"
   xmlns:sodipodi="http://sodipodi.sourceforge.net/DTD/sodipodi-0.dtd"
   xmlns="http://www.w3.org/2000/svg"
   xmlns:svg="http://www.w3.org/2000/svg">
  <defs
     id="defs4">
    <filter
       id="mask-powermask-path-effect13_inverse"
       inkscape:label="filtermask-powermask-path-effect13"
       style="color-interpolation-filters:sRGB"
       height="100"
       width="100"
       x="-50"
       y="-50">
      <feColorMatrix
         id="mask-powermask-path-effect13_primitive1"
         values="1"
         type="saturate"
         result="fbSourceGraphic" />
      <feColorMatrix
         id="mask-powermask-path-effect13_primitive2"
         values="-1 0 0 0 1 0 -1 0 0 1 0 0 -1 0 1 0 0 0 1 0 "
         in="fbSourceGraphic" />
    </filter>
  </defs>
  <sodipodi:namedview
     id="namedview4"
     pagecolor="#ffffff"
     bordercolor="#000000"
     borderopacity="0.25"
     inkscape:showpageshadow="2"
     inkscape:pageopacity="0.0"
     inkscape:pagecheckerboard="0"
     inkscape:deskcolor="#d1d1d1"
     inkscape:document-units="pt"
     inkscape:zoom="2.96"
     inkscape:cx="188.68243"
     inkscape:cy="213.85135"
     inkscape:window-width="3840"
     inkscape:window-height="2095"
     inkscape:window-x="0"
     inkscape:window-y="0"
     inkscape:window-maximized="1"
     inkscape:current-layer="svg4"
     showguides="true" />
  <metadata
     id="metadata1">
Created by potrace 1.10, written by Peter Selinger 2001-2011
</metadata>
  <path
     id="path1"
     style="fill:#3a2240;stroke:#3a2240;stroke-width:6.35803"
     d="m 291.17902,147.17902 a 144,144 0 0 1 -144,144 144,144 0 0 1 -144.0000051,-144 A 144,144 0 0 1 147.17902,3.1790149 a 144,144 0 0 1 144,144.0000051 z" />
  <path
     id="path12"
     style="fill:#ffffff;fill-opacity:1;stroke:#ffffff;stroke-width:1.68919;stroke-opacity:1"
     d="m 173.02394,98.206568 c -0.24831,-0.3545 -0.39444,-1.114477 -0.39444,-2.051278 0,-1.965129 0.54018,-2.88609 1.8951,-3.231022 1.45734,-0.371005 2.2788,-0.700388 4.53454,-1.818221 1.32994,-0.659048 2.08001,-0.904396 2.24882,-0.735583 0.48861,0.488607 -0.88329,2.620722 -3.31943,5.15883 -3.14404,3.275638 -4.16125,3.824199 -4.96459,2.677274 z m -5.63041,123.866222 c -3.45247,-0.87661 -6.28769,-3.18071 -7.81097,-6.34776 -2.38342,-4.95533 -3.20011,-12.31606 -2.08272,-18.7712 l 0.30702,-1.77366 1.01352,0.0712 c 1.84048,0.12925 7.33287,1.11066 8.17145,1.46013 0.72838,0.30355 0.82348,0.45658 0.82348,1.32524 0,0.54014 -0.27541,1.7918 -0.61202,2.78149 -1.22847,3.61183 -1.53975,5.54006 -1.52377,9.43798 0.013,3.17755 0.0907,3.86229 0.57456,5.06757 1.40829,3.50787 3.63786,4.32757 7.5471,2.77466 2.91137,-1.15652 3.19772,-0.76877 1.23086,1.66678 -1.70498,2.11128 -4.76768,3.03652 -7.63851,2.30759 z m -54.21868,2.13362 c -1.34001,-0.57197 -0.72565,-1.27556 1.68438,-1.92902 4.54514,-1.23239 6.16856,-3.19145 6.84354,-8.25843 0.15502,-1.16369 0.36044,-4.90509 0.45648,-8.31422 l 0.17465,-6.1984 2.02702,-0.59174 c 4.38017,-1.27869 8.81147,-2.34084 9.76597,-2.34084 0.91682,0 1.00261,0.0577 1.00261,0.67455 0,2.08386 -4.32219,11.93055 -7.10004,16.17511 -3.03049,4.63059 -6.05346,7.96838 -8.96751,9.90139 -1.37574,0.91258 -1.65556,0.99883 -3.42061,1.05388 -1.05728,0.033 -2.16719,-0.0446 -2.46649,-0.17228 z m 93.61359,-15.22014 c -4.30097,-0.68088 -7.77915,-2.03287 -17.94272,-6.97449 -12.1142,-5.89001 -18.251,-8.37169 -23.53292,-9.51652 -2.09243,-0.45352 -3.61188,-0.54763 -10.71006,-0.66333 -17.94752,-0.29255 -23.14473,0.71176 -44.5577,8.61032 -12.425298,4.58329 -17.257074,5.99632 -22.322019,6.52798 -6.325996,0.66403 -11.0154,-0.7742 -15.090459,-4.62822 -2.781491,-2.63062 -4.20321,-5.49132 -3.648775,-7.34186 0.457642,-1.52748 1.582606,-1.11204 2.63569,0.97332 0.220333,0.43632 0.766328,1.10104 1.21332,1.47716 0.796526,0.67026 0.871576,0.68219 3.767631,0.60028 2.777097,-0.0785 3.02964,-0.12982 4.196726,-0.85215 0.949619,-0.58773 1.421584,-1.12009 2.005829,-2.26249 0.730514,-1.42841 0.764017,-1.63415 0.764017,-4.6922 0,-3.18328 -0.0044,-3.20727 -0.947159,-5.11473 -1.676931,-3.39304 -4.852038,-6.35532 -12.988652,-12.11802 -9.857994,-6.98185 -13.676674,-10.04581 -18.371122,-14.74025 -3.819494,-3.8195 -6.681698,-7.61134 -8.470507,-11.22171 -1.846166,-3.72614 -2.513929,-6.1797 -2.520154,-9.25939 -0.008,-4.00126 1.231982,-6.51423 5.126228,-10.38851 2.430752,-2.41829 2.532262,-2.39419 2.084044,0.49464 -0.340217,2.19276 -0.342181,5.86379 -0.0039,7.33104 0.484881,2.10323 1.562097,3.89896 3.525794,5.87752 5.033427,5.07153 13.111082,7.41636 24.077274,6.98929 10.822389,-0.42146 18.738983,-2.54693 27.703294,-7.43785 8.02662,-4.37931 14.7895,-10.7856 17.24332,-16.33415 1.21155,-2.73953 1.29546,-3.69833 1.28714,-14.70701 -0.005,-5.67152 -0.0693,-10.373368 -0.1445,-10.448556 -0.0752,-0.07518 -1.66797,-0.205864 -3.5395,-0.290394 -1.87154,-0.08453 -4.14392,-0.326628 -5.04975,-0.537994 -3.55058,-0.828491 -7.61255,-3.261636 -9.03602,-5.412625 -1.06266,-1.605798 -0.68072,-1.717049 3.13962,-0.914481 4.88672,1.026593 8.83795,0.870187 10.76133,-0.425975 1.60471,-1.081416 1.58563,-2.970537 -0.0378,-3.737848 -1.1364,-0.537129 -1.32567,-1.157123 -1.01721,-3.33206 1.25937,-8.879673 6.94548,-15.761862 15.19342,-18.389347 2.46768,-0.786112 4.519,-1.078487 7.53937,-1.074512 6.04292,0.0079 11.94781,1.979299 16.73628,5.587518 6.86308,5.171485 11.76128,14.747589 12.96347,25.343874 0.13439,1.184544 0.36434,6.65752 0.51101,12.16217 0.377,14.14979 0.6523,16.48608 2.35878,20.01689 1.04137,2.15467 4.77979,5.93415 7.87512,7.96161 8.65746,5.6707 23.14026,9.86942 36.28227,10.51861 15.86694,0.78381 24.02086,-2.02161 26.6761,-9.17808 0.43091,-1.16139 0.54475,-2.03105 0.5455,-4.18074 0.001,-3.28373 0.30549,-4.61465 1.05328,-4.61465 1.24825,0 3.9024,4.15764 4.49658,7.04372 0.97146,4.71867 -1.13937,10.93863 -5.89404,17.36789 -2.08887,2.82457 -7.48335,8.2678 -10.97706,11.07625 -1.69675,1.36396 -5.80149,4.2995 -9.12162,6.52341 -3.32013,2.22392 -7.07071,4.84285 -8.33463,5.81985 -5.04084,3.89655 -8.53986,7.81196 -8.87955,9.93628 -0.4123,2.57845 -1.05985,2.05577 -5.67208,-4.5784 -2.08085,-2.99308 -6.80768,-7.87975 -13.30236,-13.7522 -7.20553,-6.51519 -10.50928,-9.78523 -12.96437,-12.83207 -4.406,-5.46798 -7.0828,-9.91484 -9.45155,-15.70152 -1.70218,-4.15828 -2.64154,-5.63549 -3.51805,-5.53237 -3.03915,0.35756 1.69037,12.84548 7.94678,20.98284 2.00826,2.61203 4.21991,4.93156 15.94303,16.72064 12.33756,12.40698 11.78078,11.772 18.89382,21.54738 2.37834,3.26853 5.29352,6.22551 7.09164,7.19333 2.65579,1.42945 5.96142,0.80021 8.12457,-1.54653 1.31622,-1.42793 1.75815,-2.49437 1.94189,-4.68608 0.0927,-1.10547 0.24925,-1.7145 0.42583,-1.6563 0.15358,0.0506 0.6213,0.57779 1.03938,1.1715 0.72448,1.02889 0.75966,1.20017 0.75741,3.65394 -0.002,2.34032 -0.0689,2.7012 -0.73088,3.96804 -2.08024,3.9813 -4.3433,6.06075 -7.73749,7.10973 -1.89915,0.58693 -5.3529,0.81459 -7.41219,0.48859 z m -92.47414,19.00589 c -2.08553,-0.30219 -3.73716,-1.16311 -5.36199,-2.795 -1.6545,-1.66169 -2.59865,-3.60896 -2.88872,-5.95785 -0.31963,-2.58831 0.63555,-4.98406 2.23429,-5.60401 1.2274,-0.47596 2.30325,0.2863 3.20677,2.27204 0.29379,0.6457 0.65496,1.34623 0.8026,1.55675 0.33209,0.47355 1.18,0.92659 1.73423,0.92659 1.0113,0 2.19026,-0.91334 3.07076,-2.37893 0.90913,-1.51324 1.56343,-6.1419 1.58803,-11.23402 0.0143,-2.96504 -0.0692,-3.57512 -0.48955,-3.57512 -0.0857,0 -1.95742,0.78158 -4.15945,1.73682 -9.31855,4.04244 -14.598773,5.78146 -20.999063,6.91596 -5.47345,0.97021 -11.15951,0.97615 -15.20796,0.0159 -6.06437,-1.43839 -10.20414,-4.9464 -11.96717,-10.1409 -0.313343,-0.92319 -0.364665,-1.30011 -0.37059,-2.72166 -0.009,-2.18973 0.40253,-3.9209 1.43759,-6.04577 0.96674,-1.98457 2.3297,-3.5079 3.72938,-4.16818 0.67841,-0.32001 0.95394,-0.36771 2.13324,-0.37071 1.19796,-0.003 1.40446,0.0332 1.78958,0.31212 0.89747,0.64998 0.82138,1.83296 -0.23173,3.60273 -0.80034,1.34497 -0.8037,1.89298 -0.0181,2.94951 0.72414,0.97387 1.82205,1.86416 2.29806,1.86347 0.19813,-2.9e-4 0.5721,-0.13165 0.83104,-0.29193 0.71174,-0.44057 2.22749,-2.03834 2.55814,-2.69658 0.4173,-0.83079 0.50521,-1.9776 0.23396,-3.05265 -0.95371,-3.77996 -4.39238,-7.00629 -16.12792,-15.13204 -5.73126,-3.96839 -10.22971,-7.44213 -14.01676,-10.82391 -6.04455,-5.39769 -11.04378,-13.05598 -12.78413,-19.58393 -0.59327,-2.22528 -0.80148,-3.75781 -0.801,-5.89538 8.25e-4,-3.53803 0.81949,-6.36871 2.63539,-9.11217 0.84052,-1.26983 2.97885,-3.36497 4.43552,-4.34588 3.94101,-2.65386 9.45984,-4.15333 12.02697,-3.26773 0.98047,0.33824 1.5298,0.99111 1.5298,1.81816 0,1.20895 -0.67776,1.94904 -2.1198,2.31471 -2.21133,0.56076 -3.67903,2.17405 -4.18563,4.60088 -0.66775,3.19871 0.52769,6.64595 3.15192,9.08907 2.70177,2.5153 6.30552,4.22945 10.53398,5.01055 2.6495,0.48944 3.6904,0.56129 7.98986,0.55176 8.48639,-0.0189 14.94461,-1.18399 21.87056,-3.94574 8.357393,-3.33254 16.973233,-9.92358 20.891343,-15.98171 2.56797,-3.97054 3.47983,-7.93442 2.86978,-12.47489 -0.63795,-4.74799 -1.26297,-7.43822 -1.90934,-8.21822 -0.49201,-0.5937 -0.63898,-0.64971 -2.15302,-0.82044 -3.07917,-0.34723 -8.27272,-2.75673 -11.06662,-5.134287 -1.88504,-1.60413 -4.000833,-5.171415 -5.277613,-8.89817 -0.95669,-2.792485 -1.20761,-5.552453 -0.61224,-6.734254 0.43166,-0.856854 0.64246,-0.950761 1.34869,-0.600834 0.97602,0.483627 2.228003,1.527242 4.225243,3.522004 3.11258,3.108741 4.4145,3.813084 7.04816,3.813084 2.61348,0 2.66372,-0.07151 2.7998,-3.987629 0.13498,-3.884634 0.58015,-5.845103 2.02948,-8.937797 4.63507,-9.890669 16.03492,-16.08632 27.31074,-14.842998 6.11548,0.674328 12.59879,3.462194 17.5798,7.559431 2.66273,2.190275 5.66719,5.67587 7.40418,8.589858 1.07808,1.808619 1.56738,2.853772 2.73588,5.843939 1.55277,3.973547 2.3065,5.272515 3.27675,5.647079 0.96829,0.373795 2.37297,-0.01428 4.0319,-1.113898 1.81594,-1.203693 3.58766,-3.302491 3.59516,-4.258166 0.008,-1.09693 1.62129,-3.025106 2.53066,-3.025106 0.65586,0 2.12598,1.836173 2.75453,3.440394 0.56857,1.451114 0.29637,3.717993 -0.8857,7.376055 -1.05117,3.253005 -2.42068,5.738687 -4.18169,7.589791 -1.27168,1.336734 -2.27481,2.048124 -4.15113,2.943864 -2.69537,1.28675 -2.83944,1.63606 -3.30201,8.00712 -0.69422,9.56091 -0.27142,13.10604 1.97618,16.57022 1.041,1.60445 3.41281,4.10797 5.15362,5.43978 10.98454,8.40375 36.34955,13.80597 49.86952,10.62118 3.45148,-0.81304 5.80518,-2.13639 7.42103,-4.17241 0.76728,-0.96679 2.00654,-3.36628 2.3371,-4.52518 0.29872,-1.04724 0.15323,-1.75844 -0.62539,-3.05703 -1.13486,-1.89272 -2.45154,-3.14341 -3.47937,-3.30501 -1.20278,-0.18911 -2.73928,-1.44192 -2.94718,-2.40303 -0.24931,-1.15263 1.57371,-2.03527 4.20364,-2.03522 3.42624,4e-5 7.51771,1.43174 10.08804,3.53002 3.71539,3.03304 5.63714,8.00829 5.15111,13.33585 -0.69599,7.62918 -4.50912,14.33509 -12.88788,22.66506 -5.31983,5.28888 -9.42333,8.49898 -16.84136,13.17479 -8.60573,5.42442 -13.24536,9.87338 -14.29489,13.70736 -0.26432,0.96561 -0.201,2.68105 0.1345,3.64388 0.57628,1.65382 1.92167,3.27763 3.21298,3.8779 0.65517,0.30457 0.88745,0.34162 1.80291,0.28785 0.8201,-0.0482 1.18548,-0.14189 1.664,-0.42663 1.77785,-1.05791 2.4016,-3.22572 1.53087,-5.32043 -0.81944,-1.9714 -0.92155,-2.29542 -0.93175,-2.95635 -0.0133,-0.85762 0.24426,-1.4081 0.85512,-1.82835 0.41561,-0.28611 0.60061,-0.32046 1.50216,-0.28011 1.54614,0.0692 2.76926,0.7387 4.47465,2.44955 1.80743,1.81322 2.79788,3.42727 3.83695,6.2527 0.69948,1.90204 0.75946,2.88832 0.28947,4.76081 -0.65737,2.61902 -2.05608,5.00077 -4.77059,8.12336 -1.95111,2.24446 -4.36762,4.23968 -5.60348,4.6266 -1.38455,0.43347 -7.51408,0.58134 -10.02519,0.24186 -5.09065,-0.68822 -10.51575,-2.73561 -19.98263,-7.54119 -7.43131,-3.7723 -12.79493,-6.11746 -13.55074,-5.92485 -0.81225,0.20702 -1.94364,2.2348 -2.8672,5.1389 -1.13544,3.57038 -1.46544,5.38993 -1.23879,6.83053 0.38314,2.43528 2.11218,4.51113 3.24481,3.89565 0.58858,-0.31986 0.81396,-1.17745 0.80473,-3.06196 -0.0127,-2.57844 0.36593,-3.22182 1.8236,-3.09908 2.9838,0.25125 5.49847,3.95242 5.49847,8.09278 0,1.61912 -0.30374,2.74177 -1.06095,3.9213 -1.73904,2.70895 -6.25596,5.33329 -9.51067,5.52569 -6.42564,0.37984 -13.98776,-6.73053 -15.54888,-14.62004 -0.68241,-3.4487 -0.73241,-12.95003 -0.0797,-15.15202 0.16686,-0.56296 0.16477,-0.66899 -0.0171,-0.87304 -0.43874,-0.49226 -1.77524,-0.60386 -7.23176,-0.60386 -4.5866,0 -5.30598,0.0291 -5.98067,0.24101 -0.97629,0.30681 -1.38049,0.78618 -1.74648,2.07134 -1.37681,4.83441 -2.80111,8.62255 -4.74507,12.62012 -1.72738,3.55216 -2.80849,5.47765 -4.66344,8.3058 -2.79423,4.26021 -4.88671,6.53437 -7.05653,7.66925 -1.52047,0.79523 -3.64608,1.52956 -5.24585,1.81227 -1.32229,0.23369 -1.63012,0.23907 -2.92674,0.0512 z m 3.97174,-4.00784 h 9e-5 c 1.50048,-0.75317 2.90329,-1.88035 4.762,-3.82634 4.76793,-4.99177 9.28408,-12.98723 11.75525,-20.81167 0.66135,-2.09409 0.71439,-2.4444 0.41594,-2.74747 -0.54776,-0.55617 -3.29702,-0.0222 -10.0383,1.94963 l -3.14855,0.92097 -0.005,3.7198 c -0.006,4.99466 -0.20863,9.91585 -0.46906,11.38696 -0.4665,2.63527 -1.17058,4.24926 -2.38431,5.46568 -0.95655,0.95866 -2.15338,1.55735 -3.99821,1.99995 -2.18543,0.52433 -2.89434,0.89411 -2.89434,1.50974 0,0.71309 1.07747,1.0339 3.32511,0.98995 1.59042,-0.0311 1.65924,-0.0453 2.67888,-0.5572 z m 52.97202,-1.67625 c 1.51242,-0.32385 2.46255,-0.87862 3.63023,-2.11963 1.08379,-1.15183 1.62723,-2.03454 1.5577,-2.53021 -0.0341,-0.24335 -0.14574,-0.30655 -0.60107,-0.3403 -0.42966,-0.0318 -0.87621,0.10322 -1.92841,0.5834 -1.57603,0.71922 -2.21662,0.89401 -3.29662,0.89851 -1.64901,0.007 -3.20361,-1.0856 -3.97347,-2.79306 -0.7635,-1.69336 -0.92403,-2.6818 -0.92853,-5.72885 -0.006,-3.7217 0.33734,-5.67001 1.67674,-9.51761 0.42931,-1.23319 0.56698,-1.84051 0.58708,-2.58942 0.0236,-0.87696 -0.007,-1.00552 -0.29099,-1.24013 -0.66276,-0.54683 -2.8814,-1.06314 -6.73363,-1.56699 -1.48472,-0.19421 -2.82929,-0.38237 -2.98794,-0.41822 -0.26415,-0.0597 -0.30086,0.0188 -0.43558,0.93028 -0.0809,0.54747 -0.27151,1.83072 -0.42352,2.85169 -0.98879,6.64075 0.64978,15.41733 3.591,19.23414 2.52857,3.28135 6.9773,5.11291 10.55701,4.3464 z m 41.04049,-13.19579 c 2.77683,-0.45731 4.70189,-1.3704 6.65971,-3.15877 1.61281,-1.47322 3.38021,-4.45398 3.88208,-6.54723 0.29882,-1.24627 0.2821,-3.19006 -0.0364,-4.229 -0.25847,-0.84322 -0.52509,-1.29927 -1.36104,-2.32806 -0.81672,-1.00511 -1.09461,-0.71448 -1.09461,1.14482 0,1.99921 -0.64543,3.60168 -2.01174,4.9947 -2.00341,2.04256 -4.80134,2.73173 -7.15236,1.76173 -2.52759,-1.04285 -5.58595,-4.23495 -9.5793,-9.9982 -4.56102,-6.58252 -7.13125,-9.51461 -14.56257,-16.61285 -7.74757,-7.40032 -14.92097,-14.79689 -17.89414,-18.45081 -3.91883,-4.81613 -7.38804,-11.34994 -9.05923,-17.06191 -0.61999,-2.11904 -0.52265,-4.33253 0.20297,-4.61526 0.79106,-0.30823 2.13543,1.73466 3.44812,5.23974 1.72619,4.60926 4.08497,8.83976 7.51656,13.48109 3.10757,4.20305 6.02654,7.33299 10.90285,11.69081 12.16143,10.8683 15.07763,13.84928 18.3586,18.76644 1.74503,2.61527 2.09304,3.08237 2.98759,4.01009 1.25035,1.2967 1.77935,1.20187 1.96357,-0.35197 0.19635,-1.65606 1.33836,-3.38934 3.86092,-5.85988 3.29574,-3.22775 7.11357,-6.13351 13.1849,-10.03503 4.5918,-2.95075 7.64642,-5.18232 11.17226,-8.16196 2.26964,-1.91803 6.78481,-6.55067 8.46328,-8.68346 5.69487,-7.23632 7.96111,-14.24323 6.33609,-19.59036 -0.57314,-1.88596 -1.9134,-4.16404 -3.14646,-5.34816 -0.66659,-0.64016 -0.80965,-0.71778 -1.25319,-0.67998 -0.40866,0.0349 -0.55149,0.13113 -0.77699,0.52392 -0.25609,0.44609 -0.27349,0.67356 -0.23847,3.11193 0.0422,2.93585 -0.0764,3.80306 -0.769,5.62187 -1.12934,2.96569 -3.53549,5.35886 -6.70589,6.66973 -2.25149,0.93093 -5.24139,1.63379 -8.88356,2.08834 -1.91228,0.23866 -10.56398,0.2365 -12.93274,-0.003 -6.56993,-0.66488 -12.02493,-1.70237 -17.88833,-3.40217 -8.61742,-2.49818 -15.40811,-5.86217 -19.75883,-9.78818 -4.42739,-3.9952 -5.72045,-6.76933 -6.29772,-13.51111 -0.0809,-0.94534 -0.203,-5.12204 -0.27117,-9.28156 -0.11814,-7.20599 -0.22685,-9.95747 -0.54597,-13.819207 -0.43089,-5.214335 -1.64106,-9.741439 -3.84111,-14.369216 -3.88704,-8.176321 -9.43427,-13.388358 -16.94084,-15.917165 -8.23325,-2.773612 -16.19481,-1.906243 -22.75079,2.478591 -1.8355,1.227631 -4.43629,3.867292 -5.65761,5.742183 -2.1233,3.259488 -3.448,7.124176 -3.69858,10.790241 -0.10858,1.588286 0.0964,2.278994 0.71415,2.406503 0.83436,0.172225 1.06239,0.297049 1.35894,0.743872 0.41962,0.632238 0.41941,1.592216 -4.6e-4,2.226349 -0.732,1.105521 -3.1228,1.826325 -6.05545,1.825636 -2.02803,-4.64e-4 -2.95781,-0.133971 -5.78109,-0.830089 -1.34207,-0.330903 -2.15887,-0.46128 -2.70843,-0.432307 -0.76962,0.04052 -0.78777,0.05074 -0.8276,0.465433 -0.0314,0.327104 0.10149,0.616078 0.58186,1.26494 1.90769,2.576843 5.4626,4.6132 9.68321,5.54681 1.03032,0.22792 1.94992,0.298925 4.61814,0.356563 l 3.33163,0.07193 0.0883,2.011823 c 0.0486,1.10651 0.12724,4.98193 0.17479,8.61205 0.13623,10.39996 -0.17865,12.67109 -2.25288,16.24952 -2.08463,3.59635 -6.0165,7.71562 -10.39295,10.88829 -5.33558,3.86797 -12.731201,7.42525 -18.904631,9.09308 -8.99229,2.42938 -20.747689,2.80601 -28.043989,0.89852 -4.229981,-1.10587 -8.203881,-3.23373 -10.654011,-5.70483 -2.305599,-2.32533 -3.4344,-4.66055 -3.775869,-7.81144 -0.16896,-1.55919 -0.0846,-2.71525 0.458539,-6.28439 0.18387,-1.20829 0.309248,-2.22231 0.27864,-2.25344 -0.0707,-0.0718 -2.670529,2.3824 -3.934729,3.71425 -1.829301,1.92718 -2.998271,3.88025 -3.654341,6.10554 -0.314242,1.06582 -0.363435,1.47954 -0.36711,3.08708 -0.007,2.9286 0.68985,5.57794 2.40413,9.14405 1.782981,3.70903 4.05228,6.82893 7.78944,10.70914 4.51636,4.68926 9.51816,8.79381 17.199861,14.11452 9.881209,6.84418 13.24524,9.86346 15.04953,13.50723 0.831379,1.67894 1.091434,2.86524 1.092559,4.98304 0.002,4.25996 -1.30282,6.62297 -4.22502,7.65042 -0.755359,0.26557 -1.168399,0.31042 -2.911549,0.31717 -3.09534,0.0117 -3.73773,-0.32016 -4.875471,-2.51859 -1.118199,-2.16069 -2.34366,-2.39686 -2.78321,-0.5364 -0.47016,1.98998 0.652211,4.36492 3.331871,7.0503 3.677509,3.68534 7.325779,5.15641 12.78792,5.15641 5.67966,0 11.41812,-1.49821 24.37858,-6.3649 13.39507,-5.02987 19.44186,-6.91135 25.45922,-7.92174 5.15417,-0.86544 9.00941,-1.11057 17.46936,-1.11207 8.3133,-7.5e-4 11.22391,0.2282 14.82864,1.16865 4.77911,1.24684 12.90416,4.65083 21.3546,8.9465 9.06769,4.60942 13.67831,6.4137 18.22754,7.13297 1.59198,0.2517 4.16133,0.25627 5.65641,0.0101 z M 175.12402,98.460504 c 2.1526,-1.459561 5.78018,-5.574871 6.32216,-7.172173 0.23113,-0.681186 0.11313,-1.326896 -0.24249,-1.326896 -0.14143,0 -1.24874,0.515657 -2.46067,1.145899 -2.05182,1.066996 -3.87161,1.741698 -4.69773,1.741698 -0.47833,0 -1.17402,0.807429 -1.41984,1.647873 -0.30266,1.034882 -0.2812,2.800124 0.0429,3.524708 0.52061,1.164042 1.20567,1.286487 2.45572,0.438891 z" />
</svg>
