<?xml version="1.0" encoding="UTF-8" standalone="no"?>
<svg
   version="1.0"
   width="764.54285pt"
   height="184.77795pt"
   viewBox="0 0 764.54285 184.77795"
   preserveAspectRatio="xMidYMid"
   id="svg4"
   sodipodi:docname="logo.svg"
   inkscape:version="1.4.2 (ebf0e940d0, 2025-05-08)"
   xmlns:inkscape="http://www.inkscape.org/namespaces/inkscape"
   xmlns:sodipodi="http://sodipodi.sourceforge.net/DTD/sodipodi-0.dtd"
   xmlns="http://www.w3.org/2000/svg"
   xmlns:svg="http://www.w3.org/2000/svg">
  <defs
     id="defs4">
    <rect
       x="290.83917"
       y="104.06504"
       width="18.641216"
       height="13.030753"
       id="rect1" />
  </defs>
  <sodipodi:namedview
     id="namedview4"
     pagecolor="#ffffff"
     bordercolor="#000000"
     borderopacity="0.25"
     inkscape:showpageshadow="2"
     inkscape:pageopacity="0.0"
     inkscape:pagecheckerboard="0"
     inkscape:deskcolor="#d1d1d1"
     inkscape:document-units="pt"
     inkscape:zoom="3.19"
     inkscape:cx="713.94984"
     inkscape:cy="129.15361"
     inkscape:window-width="3840"
     inkscape:window-height="2095"
     inkscape:window-x="0"
     inkscape:window-y="0"
     inkscape:window-maximized="1"
     inkscape:current-layer="svg4" />
  <metadata
     id="metadata1">
Created by potrace 1.10, written by Peter Selinger 2001-2011
</metadata>
  <path
     style="display:inline;fill:#f6656a;fill-opacity:1;stroke-width:0.136137"
     d="m 717.66372,151.16827 c -4.3405,-0.7294 -8.91033,-2.53092 -16.89681,-6.66107 -9.61072,-4.97007 -18.11518,-8.58118 -22.93752,-9.73958 -3.37526,-0.81078 -7.16427,-1.02816 -16.2101,-0.93 -7.0553,0.0767 -9.49918,0.22174 -13.45772,0.7994 -6.09079,0.88881 -12.8164,2.88985 -23.77426,7.07347 -12.0678,4.60739 -15.16076,5.64959 -19.82135,6.679 -3.37836,0.74617 -5.3588,0.95665 -8.10264,0.8611 -3.63814,-0.12668 -5.71849,-0.68511 -8.10264,-2.17494 -2.78125,-1.73794 -5.23728,-4.31705 -6.45152,-6.77474 -0.4688,-0.94882 -0.51261,-1.13283 -0.51107,-2.14503 10e-4,-0.86078 0.0623,-1.21497 0.2744,-1.59139 0.5804,-1.03039 1.36169,-0.56624 2.34967,1.3959 1.01662,2.01901 1.79605,2.40971 4.80725,2.40971 1.99533,0 2.86359,-0.16609 4.01786,-0.7686 0.72241,-0.37707 1.74326,-1.35629 2.18492,-2.09586 0.79194,-1.32599 1.26591,-4.44181 1.02141,-6.71437 -0.55702,-5.17724 -3.83297,-8.79647 -15.19291,-16.78504 -7.99105,-5.6195 -12.90132,-9.6526 -17.29227,-14.203231 -6.20676,-6.432484 -9.75544,-12.809684 -10.51214,-18.89094 -0.43485,-3.49457 0.75689,-6.976933 3.46134,-10.114402 1.07834,-1.251042 3.97319,-4.016371 4.02768,-3.847508 0.0238,0.07382 -0.12195,1.242591 -0.32393,2.597191 -0.66416,4.454589 -0.41888,7.216002 0.88206,9.929429 1.37319,2.864194 4.08258,5.380231 7.79706,7.240651 4.73504,2.371576 9.13728,3.226569 16.58072,3.220274 10.58966,-0.009 18.94735,-1.97315 27.73417,-6.517916 8.59165,-4.443805 15.61821,-10.840066 18.53139,-16.868991 0.95533,-1.977118 1.26849,-3.329966 1.55508,-6.717984 0.16327,-1.930295 0.10657,-12.125717 -0.096,-17.246652 l -0.0856,-2.16321 -3.36209,-0.0712 c -2.97743,-0.06305 -3.52297,-0.11085 -4.76831,-0.41795 -3.75783,-0.92667 -6.32882,-2.299245 -8.44234,-4.507094 -1.13263,-1.18318 -1.57149,-1.893217 -1.42086,-2.298832 0.12948,-0.348598 1.33159,-0.253429 3.37214,0.266983 3.16303,0.806658 5.01746,1.004581 7.22082,0.770657 2.08415,-0.221266 3.43216,-0.708405 4.27044,-1.543259 l 0.65713,-0.65444 -0.0559,-0.907317 c -0.0388,-0.631068 -0.13972,-1.023612 -0.33119,-1.289335 -0.25324,-0.351459 -0.41682,-0.435028 -1.38631,-0.708326 -0.59209,-0.166907 -0.75476,-0.973001 -0.56059,-2.777412 0.89421,-8.309053 5.9456,-15.215597 13.36048,-18.2671815 6.40214,-2.6347822 13.80972,-2.3144899 20.85059,0.9015356 6.2096,2.8363409 11.4383,8.6527999 14.60679,16.2487459 1.28097,3.070929 2.43457,7.10192 2.82944,9.886734 0.47454,3.346903 0.87419,11.001015 0.87824,16.820656 0.005,7.176566 0.33307,11.94024 1.01491,14.736403 0.39455,1.618016 1.26558,3.595166 2.15567,4.893052 0.87799,1.280233 3.36386,3.788909 5.05305,5.099363 9.00583,6.98671 26.79401,12.076971 42.21341,12.07976 5.85551,7.75e-4 10.31485,-0.605783 13.89885,-1.891415 3.7249,-1.336182 5.95025,-3.217515 7.4442,-6.293358 0.99894,-2.056631 1.26436,-3.456192 1.17907,-6.217371 -0.0375,-1.213139 -0.0155,-2.49611 0.0485,-2.851064 0.37252,-2.060285 1.83074,-1.296234 3.7418,1.960595 1.46544,2.497369 2.03443,5.113643 1.73127,7.960375 -0.64569,6.062909 -4.39723,12.627461 -11.12851,19.472964 -3.74383,3.80734 -7.61124,6.98802 -12.5166,10.29409 -6.68848,4.50785 -8.01048,5.42886 -9.89313,6.89241 -2.76061,2.14606 -4.16366,3.38428 -6.03896,5.32947 -2.35759,2.44545 -3.41358,4.22916 -3.41358,5.76616 0,0.46457 -0.26362,0.95341 -0.51417,0.95341 -0.0513,0 -0.31127,-0.15305 -0.57771,-0.34012 -0.64826,-0.45518 -1.87746,-2.0557 -3.47961,-4.53094 -3.25778,-5.033 -5.48721,-7.35408 -18.4641,-19.22325 -4.75607,-4.35007 -7.48766,-7.333748 -10.50037,-11.469414 -3.26713,-4.48487 -5.50839,-8.530029 -7.24542,-13.07693 -1.11783,-2.926042 -1.80418,-4.309412 -2.58065,-5.201764 -0.51253,-0.589015 -0.66691,-0.68769 -1.02038,-0.652114 -0.6254,0.06283 -0.88478,0.70463 -0.88503,2.189583 -3.1e-4,1.699826 0.67255,4.030971 2.23586,7.746502 3.8188,9.075876 8.05168,14.338129 24.28284,30.187987 7.89107,7.70572 10.39922,10.56366 14.25102,16.23859 5.14926,7.58649 8.18443,10.68546 11.18113,11.41608 2.05154,0.5002 5.03307,-0.50823 6.45699,-2.18388 1.23328,-1.45134 1.70245,-2.69469 1.85115,-4.90588 0.0606,-0.90253 0.15345,-1.68474 0.20605,-1.73824 0.15977,-0.16231 1.25094,1.22909 1.71244,2.1836 0.42284,0.87457 0.4336,0.94203 0.43124,2.69841 -0.002,1.65987 -0.0352,1.8962 -0.41804,3.0084 -1.48554,4.31426 -4.9035,7.55699 -9.02147,8.55894 -1.61015,0.39179 -4.84527,0.49127 -6.56691,0.20193 z M 606.57488,127.87891 c 2.83489,-1.47806 12.65562,-12.02592 19.2512,-20.67652 6.34445,-8.321278 15.39548,-24.780134 16.84308,-30.628353 0.49486,-1.999161 0.33033,-2.488065 -0.83737,-2.488065 -0.58675,0 -0.81757,0.0734 -1.21537,0.386996 -0.87568,0.6901 -1.7933,2.295216 -3.10142,5.424962 -3.61159,8.64104 -11.23664,20.56079 -19.60752,30.65123 -2.328,2.80624 -4.13555,4.81168 -7.98231,8.85633 -1.91821,2.01691 -3.89319,4.2047 -4.38888,4.8618 -0.87453,1.15931 -1.56902,2.44372 -1.5717,2.90676 -0.003,0.4341 0.47285,0.85265 1.08218,0.9528 0.65396,0.10749 0.93333,0.0619 1.52811,-0.24794 z m 65.69169,-68.812052 c 1.12254,-0.182014 2.42555,-0.838951 2.93793,-1.481237 0.80432,-1.008246 1.11001,-3.049361 0.54422,-3.633976 -0.59402,-0.613738 -1.42479,-0.186606 -2.12648,1.093296 -0.61418,1.120273 -1.00816,1.425661 -1.94242,1.505718 -0.95427,0.08176 -2.02874,-0.26805 -2.935,-0.955561 -1.4853,-1.126798 -1.69924,-1.254354 -2.22628,-1.327391 -0.65411,-0.09063 -0.90954,0.09042 -1.02504,0.726674 -0.12245,0.674308 0.16753,1.412389 0.85191,2.168355 0.76935,0.849857 1.75287,1.429559 2.99634,1.766113 1.13458,0.307072 1.71365,0.334382 2.92482,0.138009 z m -20.69116,-1.042443 c 0.68562,-0.480737 0.94385,-0.823121 1.29761,-1.720307 0.26382,-0.669134 0.30061,-1.011912 0.30444,-2.836805 0.004,-1.769025 -0.0395,-2.218957 -0.29293,-3.045291 -0.76189,-2.4847 -2.12832,-3.446202 -3.47018,-2.441833 -1.53438,1.148429 -2.1923,2.562442 -2.1923,4.711543 0,2.377285 0.9076,4.613382 2.20408,5.430301 0.60532,0.381394 1.52575,0.339605 2.14928,-0.09759 z"
     id="path5" />
  <path
     style="display:inline;fill:#3a2240;fill-opacity:1;stroke-width:0.840447;stroke-dasharray:none"
     d="m 626.33547,167.05732 c -2.08553,-0.30219 -3.73716,-1.16311 -5.36199,-2.795 -1.6545,-1.66169 -2.59865,-3.60896 -2.88872,-5.95785 -0.31963,-2.58831 0.63555,-4.98406 2.23429,-5.60401 1.2274,-0.47596 2.30325,0.2863 3.20677,2.27204 0.29379,0.6457 0.65496,1.34623 0.8026,1.55675 0.33209,0.47355 1.18,0.92659 1.73423,0.92659 1.0113,0 2.19026,-0.91334 3.07076,-2.37893 0.90913,-1.51324 1.56342,-6.1419 1.58803,-11.23402 0.0143,-2.96504 -0.0692,-3.57512 -0.48955,-3.57512 -0.0857,0 -1.95742,0.78158 -4.15945,1.73682 -9.31855,4.04244 -14.59877,5.78146 -20.99906,6.91596 -5.47345,0.97021 -11.15951,0.97615 -15.20796,0.0159 -6.06437,-1.43839 -10.20414,-4.9464 -11.96717,-10.1409 -0.31334,-0.92319 -0.36467,-1.30011 -0.37059,-2.72166 -0.009,-2.18973 0.40253,-3.9209 1.43759,-6.04577 0.96674,-1.98457 2.3297,-3.5079 3.72938,-4.16818 0.67841,-0.32004 0.95394,-0.36792 2.13324,-0.37071 1.19796,-0.003 1.40446,0.0332 1.78958,0.31212 0.89747,0.64998 0.82138,1.83296 -0.23173,3.60273 -0.80034,1.34497 -0.8037,1.89298 -0.0181,2.94951 0.72414,0.97387 1.82205,1.86416 2.29806,1.86347 0.19813,-2.9e-4 0.5721,-0.13165 0.83104,-0.29193 0.71174,-0.44057 2.22749,-2.03834 2.55814,-2.69658 0.4173,-0.83079 0.50521,-1.9776 0.23396,-3.05265 -0.95371,-3.77996 -4.39238,-7.00629 -16.12792,-15.13204 -5.73126,-3.96839 -10.22971,-7.44213 -14.01676,-10.82391 -6.04455,-5.397696 -11.04378,-13.055978 -12.78413,-19.58393 -0.59327,-2.225284 -0.80148,-3.757814 -0.801,-5.895381 8.2e-4,-3.53803 0.81949,-6.368706 2.63539,-9.112172 0.84052,-1.269833 2.97885,-3.364964 4.43552,-4.345873 3.94101,-2.653863 9.45984,-4.153339 12.02697,-3.267735 0.98047,0.338238 1.5298,0.991111 1.5298,1.818162 0,1.20895 -0.67776,1.949033 -2.1198,2.314704 -2.21133,0.560768 -3.67903,2.174056 -4.18563,4.600882 -0.66775,3.198716 0.52769,6.645949 3.15192,9.089073 2.70177,2.515303 6.30552,4.229448 10.53398,5.010548 2.6495,0.489432 3.6904,0.561305 7.98986,0.551762 8.48639,-0.01885 14.94461,-1.183989 21.87056,-3.945739 8.35739,-3.332538 16.97323,-9.923582 20.89134,-15.981716 2.56797,-3.970538 3.47983,-7.934412 2.86978,-12.474887 -0.63795,-4.747991 -1.26297,-7.438222 -1.90934,-8.21822 -0.49201,-0.593701 -0.63898,-0.649711 -2.15302,-0.820436 -3.07917,-0.347233 -8.27272,-2.756736 -11.06662,-5.134288 -1.88504,-1.60413 -4.00083,-5.171415 -5.27761,-8.89817 -0.95669,-2.792485 -1.20761,-5.552453 -0.61224,-6.734254 0.43166,-0.856854 0.64246,-0.950761 1.34869,-0.600834 0.97602,0.483627 2.228,1.527242 4.22524,3.522004 3.11258,3.108741 4.4145,3.813084 7.04816,3.813084 2.61348,0 2.66372,-0.07151 2.7998,-3.987629 0.13498,-3.884634 0.58015,-5.845103 2.02948,-8.937797 4.63507,-9.890669 16.03492,-16.0863197 27.31074,-14.84299794 6.11548,0.67432805 12.59879,3.46219414 17.5798,7.55943154 2.66273,2.1902745 5.66719,5.6758694 7.40418,8.5898574 1.07808,1.808619 1.56738,2.853772 2.73588,5.843939 1.55277,3.973547 2.3065,5.272515 3.27675,5.647079 0.96829,0.373795 2.37297,-0.01428 4.0319,-1.113898 1.81594,-1.203693 3.58794,-3.302491 3.59516,-4.258166 0.008,-1.09693 1.62129,-3.025106 2.53066,-3.025106 0.65586,0 2.12598,1.836173 2.75453,3.440394 0.56857,1.451114 0.29637,3.717993 -0.8857,7.376055 -1.05117,3.253005 -2.42068,5.738687 -4.18169,7.589791 -1.27168,1.336733 -2.27481,2.048127 -4.15113,2.943861 -2.69537,1.286751 -2.83944,1.636061 -3.30201,8.007128 -0.69422,9.5609 -0.27142,13.10603 1.97618,16.57021 1.041,1.604454 3.41281,4.107974 5.15362,5.439784 10.98454,8.403745 36.34955,13.805966 49.86952,10.621179 3.45148,-0.813041 5.80518,-2.136392 7.42103,-4.172415 0.76728,-0.966787 2.00654,-3.366271 2.3371,-4.525177 0.29872,-1.047242 0.15323,-1.758434 -0.62539,-3.057026 -1.13486,-1.892721 -2.45154,-3.143417 -3.47937,-3.305015 -1.20278,-0.189109 -2.73928,-1.441914 -2.94718,-2.403029 -0.24931,-1.152626 1.57371,-2.035262 4.20364,-2.035221 3.42624,5.1e-5 7.51771,1.431745 10.08804,3.530027 3.71539,3.033036 5.63714,8.00829 5.15111,13.335843 -0.69599,7.629178 -4.50912,14.335088 -12.88788,22.665064 -5.31983,5.28888 -9.42333,8.49898 -16.84136,13.17479 -8.60573,5.42442 -13.24536,9.87338 -14.29489,13.70736 -0.26432,0.96561 -0.201,2.68105 0.1345,3.64388 0.57628,1.65382 1.92167,3.27763 3.21298,3.8779 0.65517,0.30457 0.88745,0.34165 1.80291,0.28785 0.8201,-0.0482 1.18548,-0.14189 1.664,-0.42663 1.77785,-1.05791 2.4016,-3.22572 1.53087,-5.32043 -0.81944,-1.9714 -0.92156,-2.29542 -0.93175,-2.95635 -0.0133,-0.85762 0.24426,-1.4081 0.85512,-1.82835 0.41561,-0.28593 0.60061,-0.32042 1.50216,-0.28011 1.54614,0.0692 2.76926,0.7387 4.47465,2.44955 1.80743,1.81322 2.79788,3.42727 3.83695,6.2527 0.69948,1.90204 0.75946,2.88832 0.28947,4.76081 -0.65737,2.61902 -2.05608,5.00077 -4.77059,8.12336 -1.95111,2.24446 -4.36762,4.23968 -5.60348,4.6266 -1.38455,0.43347 -7.51408,0.58134 -10.02519,0.24186 -5.09065,-0.68822 -10.51575,-2.73561 -19.98263,-7.54119 -7.43131,-3.7723 -12.79493,-6.11746 -13.55074,-5.92485 -0.81225,0.20702 -1.94364,2.2348 -2.8672,5.1389 -1.13544,3.57038 -1.46544,5.38993 -1.23879,6.83053 0.38314,2.43528 2.11218,4.51113 3.24481,3.89565 0.58858,-0.31986 0.81398,-1.17745 0.80473,-3.06196 -0.0127,-2.57844 0.36593,-3.22182 1.8236,-3.09908 2.9838,0.25125 5.49847,3.95242 5.49847,8.09278 0,1.61912 -0.30374,2.74177 -1.06095,3.9213 -1.73904,2.70895 -6.25596,5.33329 -9.51067,5.52569 -6.42564,0.37984 -13.98776,-6.73053 -15.54888,-14.62004 -0.68241,-3.4487 -0.73241,-12.95003 -0.0797,-15.15202 0.16686,-0.56296 0.16477,-0.66899 -0.0171,-0.87304 -0.43874,-0.49226 -1.77524,-0.60386 -7.23176,-0.60386 -4.5866,0 -5.30598,0.0291 -5.98067,0.24101 -0.97629,0.30681 -1.38049,0.78618 -1.74648,2.07134 -1.37681,4.83441 -2.80111,8.62255 -4.74507,12.62012 -1.72738,3.55216 -2.80849,5.47765 -4.66344,8.3058 -2.79423,4.26021 -4.88671,6.53437 -7.05653,7.66925 -1.52047,0.79523 -3.64608,1.52956 -5.24585,1.81227 -1.32229,0.23369 -1.63012,0.23907 -2.92674,0.0512 z m 3.97174,-4.00784 c 1.50048,-0.75317 2.90329,-1.88035 4.762,-3.82634 4.76793,-4.99177 9.28408,-12.98723 11.75525,-20.81167 0.66135,-2.09409 0.71439,-2.4444 0.41594,-2.74747 -0.54776,-0.55617 -3.29702,-0.0222 -10.0383,1.94963 l -3.14855,0.92097 -0.005,3.7198 c -0.006,4.99466 -0.20863,9.91585 -0.46906,11.38696 -0.4665,2.63527 -1.17058,4.24926 -2.38431,5.46568 -0.95655,0.95866 -2.15338,1.55735 -3.99821,1.99995 -2.18543,0.52433 -2.89434,0.89411 -2.89434,1.50974 0,0.71309 1.07747,1.03388 3.32511,0.98995 1.59042,-0.0311 1.65924,-0.0453 2.67888,-0.5572 z m 52.97202,-1.67625 c 1.51242,-0.32385 2.46255,-0.87862 3.63023,-2.11963 1.08379,-1.15183 1.62721,-2.03454 1.5577,-2.53021 -0.0341,-0.24335 -0.14574,-0.30653 -0.60107,-0.3403 -0.42966,-0.0318 -0.87621,0.10322 -1.92841,0.5834 -1.57603,0.71922 -2.21662,0.89382 -3.29662,0.89851 -1.64901,0.007 -3.20361,-1.0856 -3.97347,-2.79306 -0.7635,-1.69336 -0.9237,-2.6818 -0.92853,-5.72885 -0.006,-3.7217 0.33734,-5.67001 1.67674,-9.51761 0.42931,-1.23319 0.567,-1.84051 0.58708,-2.58942 0.0236,-0.87696 -0.007,-1.00552 -0.29099,-1.24013 -0.66276,-0.54683 -2.8814,-1.06314 -6.73363,-1.56699 -1.48472,-0.19421 -2.82929,-0.38239 -2.98794,-0.41822 -0.26415,-0.0597 -0.30086,0.0188 -0.43558,0.93028 -0.0809,0.54747 -0.27151,1.83072 -0.42352,2.85169 -0.98879,6.64075 0.64978,15.41733 3.591,19.23414 2.52857,3.28135 6.9773,5.11291 10.55701,4.3464 z m 41.04049,-13.19579 c 2.77683,-0.45731 4.70189,-1.3704 6.65971,-3.15877 1.61281,-1.47322 3.38021,-4.45398 3.88208,-6.54723 0.29882,-1.24627 0.2821,-3.19006 -0.0364,-4.229 -0.25847,-0.84322 -0.52509,-1.29927 -1.36104,-2.32806 -0.81672,-1.00511 -1.09461,-0.71448 -1.09461,1.14482 0,1.99921 -0.64543,3.60168 -2.01174,4.9947 -2.00341,2.04256 -4.80134,2.73173 -7.15236,1.76173 -2.52759,-1.04285 -5.58595,-4.23495 -9.5793,-9.9982 -4.56102,-6.58252 -7.13125,-9.51461 -14.56257,-16.61285 -7.74757,-7.40032 -14.92097,-14.796895 -17.89414,-18.450814 -3.91883,-4.816129 -7.38804,-11.349936 -9.05923,-17.06191 -0.61999,-2.119039 -0.52265,-4.332532 0.20297,-4.615256 0.79106,-0.308232 2.13543,1.734657 3.44812,5.239743 1.72619,4.60926 4.08497,8.83976 7.51656,13.481081 3.10757,4.203058 6.02654,7.33299 10.90285,11.690816 12.16143,10.8683 15.07763,13.84928 18.3586,18.76644 1.74503,2.61527 2.09304,3.08237 2.98759,4.01009 1.25035,1.2967 1.77935,1.20187 1.96357,-0.35197 0.19635,-1.65606 1.33836,-3.38934 3.86092,-5.85988 3.29574,-3.22775 7.11357,-6.13351 13.1849,-10.03503 4.5918,-2.95075 7.64642,-5.18232 11.17226,-8.16196 2.26964,-1.918035 6.78481,-6.550675 8.46328,-8.683461 5.69487,-7.236318 7.96111,-14.243227 6.33609,-19.590361 -0.57314,-1.885962 -1.9134,-4.164036 -3.14646,-5.348157 -0.66659,-0.640139 -0.80965,-0.717756 -1.25319,-0.679981 -0.40866,0.03486 -0.55149,0.131126 -0.77699,0.523914 -0.2561,0.446096 -0.27352,0.673569 -0.23847,3.111933 0.0422,2.935848 -0.0764,3.803066 -0.769,5.621876 -1.12934,2.965681 -3.53549,5.358854 -6.70589,6.669723 -2.25149,0.930928 -5.24139,1.633792 -8.88356,2.088345 -1.91228,0.238658 -10.56398,0.236501 -12.93274,-0.003 -6.56993,-0.664887 -12.02493,-1.702374 -17.88833,-3.402173 -8.61742,-2.498182 -15.40811,-5.862174 -19.75883,-9.788181 -4.42739,-3.995195 -5.72045,-6.769324 -6.29772,-13.511106 -0.0809,-0.945342 -0.20297,-5.122041 -0.27117,-9.281558 -0.11814,-7.205989 -0.22685,-9.957468 -0.54597,-13.819209 -0.43089,-5.214335 -1.64106,-9.741439 -3.84111,-14.369216 -3.88704,-8.176321 -9.43427,-13.3883582 -16.94084,-15.9171643 -8.23325,-2.7736129 -16.19481,-1.9062435 -22.75079,2.4785907 -1.8355,1.2276304 -4.43629,3.8672916 -5.65761,5.7421826 -2.1233,3.259488 -3.448,7.124176 -3.69858,10.790241 -0.10858,1.588286 0.0964,2.278994 0.71415,2.406503 0.83436,0.172225 1.06239,0.297049 1.35894,0.743872 0.41962,0.632238 0.41941,1.592216 -4.6e-4,2.226349 -0.732,1.105521 -3.1228,1.826325 -6.05545,1.825636 -2.02803,-4.64e-4 -2.95781,-0.133971 -5.78109,-0.830089 -1.34207,-0.330903 -2.15887,-0.461279 -2.70843,-0.432307 -0.76964,0.04052 -0.78774,0.05074 -0.8276,0.465433 -0.0314,0.327104 0.10149,0.616078 0.58186,1.26494 1.90769,2.576843 5.4626,4.6132 9.68321,5.54681 1.03032,0.22792 1.94992,0.298922 4.61814,0.356563 l 3.33163,0.07193 0.0883,2.011819 c 0.0486,1.106514 0.12723,4.98193 0.17479,8.612054 0.13623,10.399964 -0.17865,12.671089 -2.25288,16.249517 -2.08463,3.596349 -6.0165,7.715619 -10.39295,10.888292 -5.33558,3.867971 -12.7312,7.425247 -18.90463,9.093076 -8.99229,2.429378 -20.74769,2.806009 -28.04399,0.898519 -4.22998,-1.105865 -8.20388,-3.233728 -10.65401,-5.704822 -2.3056,-2.325331 -3.4344,-4.660558 -3.77587,-7.811441 -0.16896,-1.559192 -0.0846,-2.715253 0.45854,-6.284391 0.18387,-1.208292 0.30925,-2.222337 0.27864,-2.253438 -0.0707,-0.07182 -2.67053,2.382395 -3.93473,3.714246 -1.8293,1.927182 -2.99827,3.880247 -3.65434,6.105542 -0.31424,1.06582 -0.36343,1.479539 -0.36711,3.087073 -0.007,2.928605 0.68985,5.577941 2.40413,9.14405 1.78298,3.709037 4.05228,6.828931 7.78944,10.709149 4.51636,4.689257 9.51816,8.793807 17.19986,14.114517 9.88121,6.84418 13.24524,9.86346 15.04953,13.50723 0.83138,1.67894 1.09147,2.86524 1.09256,4.98304 0.002,4.25996 -1.30282,6.62297 -4.22502,7.65042 -0.75536,0.26558 -1.1684,0.31059 -2.91155,0.31717 -3.09534,0.0117 -3.73773,-0.32016 -4.87547,-2.51859 -1.1182,-2.16069 -2.34366,-2.39686 -2.78321,-0.5364 -0.47016,1.98998 0.65221,4.36492 3.33187,7.0503 3.67751,3.68534 7.32578,5.15641 12.78792,5.15641 5.67966,0 11.41812,-1.49821 24.37858,-6.3649 13.39507,-5.02987 19.44186,-6.91135 25.45922,-7.92174 5.15417,-0.86544 9.00941,-1.11085 17.46936,-1.11207 8.3133,-0.001 11.22391,0.2282 14.82864,1.16865 4.77911,1.24684 12.90416,4.65083 21.3546,8.9465 9.06769,4.60942 13.67831,6.4137 18.22754,7.13297 1.59198,0.2517 4.16133,0.25627 5.65641,0.0101 z M 687.14519,37.525665 c 2.1526,-1.459561 5.78018,-5.574871 6.32216,-7.172173 0.23113,-0.681186 0.11313,-1.326896 -0.24249,-1.326896 -0.14143,0 -1.24874,0.515657 -2.46067,1.145899 -2.05182,1.066996 -3.87161,1.741698 -4.69773,1.741698 -0.47833,0 -1.17402,0.807429 -1.41984,1.647873 -0.30266,1.034882 -0.2812,2.800124 0.0429,3.524708 0.52061,1.164042 1.20567,1.286487 2.45572,0.438891 z"
     id="path6" />
  <path
     style="display:inline;fill:#3a2240;fill-opacity:1;stroke-width:0.135737"
     d="m 650.49746,56.890782 c -1.43433,-0.90269 -2.31477,-3.14198 -2.20166,-5.59969 0.0721,-1.56615 0.44987,-2.51877 1.3457,-3.3931 1.20891,-1.17992 1.89179,-1.35319 2.70176,-0.68554 1.05081,0.86617 1.75701,2.94238 1.75701,5.16554 0,2.0793 -0.55521,3.68254 -1.51097,4.36311 -0.5864,0.41754 -1.55597,0.48693 -2.09184,0.14968 z"
     id="path7" />
  <path
     style="fill:#3a2240;fill-opacity:1;stroke-width:0.135737"
     d="m 604.50652,124.59824 c -0.63408,-0.11024 -1.0739,-0.57295 -0.94545,-0.99465 0.42256,-1.38713 1.60475,-2.84357 5.68785,-7.00729 3.72139,-3.79488 5.6861,-5.894 7.80576,-8.33976 7.44027,-8.584927 14.83461,-19.316047 18.90366,-27.434137 0.33429,-0.66694 1.06642,-2.25101 1.62696,-3.52015 1.13604,-2.57214 1.80327,-3.78477 2.51751,-4.57535 0.8199,-0.90754 1.66077,-1.16095 2.32003,-0.69919 0.28524,0.19979 0.30968,0.29457 0.23648,0.91729 -0.20224,1.72081 -1.32225,4.58872 -3.42444,8.7687 -3.38623,6.73315 -9.01845,16.02445 -12.5479,20.699907 -6.0489,8.01293 -16.17596,18.82051 -20.28365,21.64668 -0.77843,0.53557 -1.20865,0.65759 -1.89681,0.53795 z"
     id="path8" />
  <path
     style="fill:#3a2240;fill-opacity:1;stroke-width:0.135737"
     d="m 669.89114,57.517822 c -1.6183,-0.36773 -3.24365,-1.49172 -3.83592,-2.65268 -0.33757,-0.66168 -0.34463,-1.10239 -0.024,-1.49833 0.36661,-0.45275 1.04524,-0.27211 2.16275,0.57566 1.27239,0.96527 2.21503,1.37618 3.29038,1.43431 1.27821,0.0691 1.95722,-0.30395 2.5355,-1.39302 1.0525,-1.98214 2.34459,-1.89599 2.18073,0.1454 -0.12058,1.50219 -1.03797,2.63666 -2.56661,3.17393 -1.0312,0.36243 -2.67722,0.45687 -3.74282,0.21473 z"
     id="path9" />
  <path
     style="fill:#f6656a;fill-opacity:1;stroke-width:0.118934"
     d="m 680.18709,159.96468 c -3.07001,-0.60251 -5.7915,-2.75403 -7.17247,-5.67026 -0.52142,-1.10111 -1.21323,-3.33605 -1.58015,-5.10485 -0.76205,-3.67329 -0.85705,-7.03478 -0.30676,-10.85338 0.19278,-1.33761 0.37816,-2.46146 0.41201,-2.49745 0.10647,-0.11319 5.01843,0.61519 6.21467,0.92154 1.52814,0.39135 2.11357,0.67711 2.2705,1.10829 0.17087,0.4694 -0.11374,1.99121 -0.64686,3.45938 -0.92663,2.55158 -1.37983,5.57161 -1.29017,8.5975 0.0694,2.33758 0.28962,3.43892 0.95914,4.79385 0.77802,1.57452 1.86665,2.3198 3.38864,2.3198 0.89696,0 1.64353,-0.2161 3.01406,-0.87237 1.17388,-0.56211 1.83021,-0.63353 1.83021,-0.19919 0,0.37797 -0.68786,1.43544 -1.48133,2.27735 -1.42521,1.51217 -3.47249,2.1396 -5.61149,1.71979 z"
     id="path10" />
  <path
     style="fill:#f6656a;fill-opacity:1;stroke-width:0.134871"
     d="m 628.12112,161.84628 c -0.33242,-0.112 -0.67562,-0.29496 -0.76271,-0.4066 -0.45164,-0.57895 0.34226,-1.07729 2.76123,-1.73321 1.80977,-0.49073 2.65946,-0.92153 3.54751,-1.79857 0.90703,-0.89581 1.56359,-2.02405 1.97191,-3.3886 0.72278,-2.41536 0.76567,-2.961 0.82879,-10.54777 l 0.0583,-7.02762 3.55303,-1.0738 c 4.80137,-1.45106 6.62478,-1.91552 7.88688,-2.00892 1.00539,-0.0743 1.07353,-0.0615 1.22098,0.23166 0.17225,0.34236 -0.0389,1.19366 -1.06856,4.31185 -2.39063,7.23834 -6.78662,15.01445 -11.08981,19.61688 -1.52964,1.63605 -2.73761,2.61431 -4.17358,3.37995 -1.08605,0.5791 -1.12077,0.58728 -2.61526,0.61762 -1.0394,0.021 -1.70422,-0.0332 -2.11894,-0.17287 z"
     id="path11" />
  <path
     style="fill:#f6656a;fill-opacity:1;stroke-width:0.0956661"
     d="m 685.5066,37.703571 c -0.35094,-0.406764 -0.44857,-0.796953 -0.44857,-1.792668 0,-1.657829 0.37111,-2.377534 1.33216,-2.583462 0.6437,-0.137927 1.41545,-0.492562 2.98878,-1.373414 0.66597,-0.372867 1.27149,-0.677934 1.34558,-0.677934 0.2787,0 0.27767,0.524516 -0.003,1.184452 -0.35797,0.843721 -1.7434,2.728519 -2.94756,4.009958 -1.16345,1.238107 -1.91243,1.645304 -2.26808,1.233068 z"
     id="path12" />
  <path
     style="font-weight:708;font-size:144px;font-family:'Cooper Hewitt';-inkscape-font-specification:'Cooper Hewitt weight=708';letter-spacing:3.75px;fill:#3a2240;stroke-width:0.75"
     d="m 19.728,129.62596 v -5.76 c 0,-25.344009 5.184,-38.304009 21.168,-38.304009 h 1.296 c 13.68,0 18.144,9.36 18.144,27.216009 h 19.44 v -4.896 c 0,-27.360009 -12.96,-39.168009 -38.736,-39.168009 -28.08,0 -41.04,16.272 -41.04,55.152009 v 5.76 c 0,38.88 12.96,55.152 41.04,55.152 25.776,0 38.736,-11.808 38.736,-38.304 v -1.44 h -19.44 c 0,14.112 -5.04,22.896 -18.144,22.896 h -1.296 c -16.128,0 -21.168,-12.96 -21.168,-38.304 z M 118.37391,70.585951 H 99.077912 V 182.90596 h 19.295998 z m 41.33411,70.416009 h 16.416 l 16.128,41.904 h 20.88 l -18.288,-44.928 c 10.224,-4.032 18.288,-12.816 18.288,-30.816 v -2.88 c 0,-28.512009 -20.016,-33.696009 -37.584,-33.696009 h -35.136 V 182.90596 h 19.296 z m 0,-16.848 V 87.433951 h 16.56 c 7.488,0 17.28,2.736 17.28,17.568009 v 1.584 c 0,14.832 -9.792,17.568 -17.28,17.568 z m 91.73401,16.848 h 16.416 l 16.128,41.904 h 20.88 l -18.288,-44.928 c 10.224,-4.032 18.288,-12.816 18.288,-30.816 v -2.88 c 0,-28.512009 -20.016,-33.696009 -37.584,-33.696009 h -35.136 V 182.90596 h 19.296 z m 0,-16.848 V 87.433951 h 16.56 c 7.488,0 17.28,2.736 17.28,17.568009 v 1.584 c 0,14.832 -9.792,17.568 -17.28,17.568 z m 92.45401,-53.568009 h -19.296 V 182.90596 h 19.296 z m 101.6701,0 h -18.288 v 53.712009 l 0.576,23.76 -41.472,-77.472009 h -20.448 V 182.90596 h 18.288 v -53.712 l -0.576,-23.76 41.472,77.472 h 20.448 z m 44.6459,-0.576 -29.52,112.896009 h 20.88 l 6.192,-25.632 h 31.68 l 6.192,25.632 h 20.736 l -29.52,-112.896009 z m 13.392,22.032 11.664,48.384009 h -23.472 z"
     id="text2"
     aria-label="CIRRINA" />
</svg>
