<?xml version="1.0" encoding="UTF-8" standalone="no"?>
<svg
   version="1.0"
   width="764.54279pt"
   height="183.56934pt"
   viewBox="0 0 764.54279 183.56933"
   preserveAspectRatio="xMidYMid"
   id="svg4"
   sodipodi:docname="logo.svg"
   inkscape:version="1.4.2 (ebf0e940d0, 2025-05-08)"
   xmlns:inkscape="http://www.inkscape.org/namespaces/inkscape"
   xmlns:sodipodi="http://sodipodi.sourceforge.net/DTD/sodipodi-0.dtd"
   xmlns="http://www.w3.org/2000/svg"
   xmlns:svg="http://www.w3.org/2000/svg">
  <defs
     id="defs4">
    <rect
       x="290.83917"
       y="104.06504"
       width="18.641216"
       height="13.030753"
       id="rect1" />
  </defs>
  <sodipodi:namedview
     id="namedview4"
     pagecolor="#ffffff"
     bordercolor="#000000"
     borderopacity="0.25"
     inkscape:showpageshadow="2"
     inkscape:pageopacity="0.0"
     inkscape:pagecheckerboard="0"
     inkscape:deskcolor="#d1d1d1"
     inkscape:document-units="pt"
     inkscape:zoom="1.49"
     inkscape:cx="479.5302"
     inkscape:cy="122.81879"
     inkscape:window-width="3840"
     inkscape:window-height="2095"
     inkscape:window-x="0"
     inkscape:window-y="0"
     inkscape:window-maximized="1"
     inkscape:current-layer="svg4" />
  <metadata
     id="metadata1">
Created by potrace 1.10, written by Peter Selinger 2001-2011
</metadata>
  <path
     style="display:inline;fill:#f6656a;fill-opacity:1;stroke-width:0.136488"
     d="m 719.1783,146.95068 c -4.39342,-0.72435 -9.01897,-2.51337 -17.10283,-6.61485 -9.72786,-4.93559 -18.33604,-8.52165 -23.21717,-9.67201 -3.41642,-0.80515 -7.25161,-1.02102 -16.40772,-0.92354 -7.14134,0.0761 -9.61499,0.2202 -13.62179,0.79385 -6.16508,0.88265 -12.97267,2.8698 -24.06413,7.02438 -12.21493,4.57543 -15.34561,5.6104 -20.06301,6.63266 -3.41955,0.74099 -5.42412,0.95001 -8.20143,0.85513 -3.68251,-0.12581 -5.7882,-0.68035 -8.20144,-2.15985 -2.81514,-1.72589 -5.30113,-4.28709 -6.53016,-6.72773 -0.47449,-0.94225 -0.51886,-1.12497 -0.5173,-2.13016 0.001,-0.8548 0.0631,-1.20653 0.27776,-1.58033 0.58746,-1.02325 1.37828,-0.56232 2.3783,1.38621 1.029,2.005 1.81795,2.39299 4.86587,2.39299 2.01965,0 2.89852,-0.16494 4.06682,-0.76326 0.73125,-0.37446 1.76453,-1.34689 2.2116,-2.08133 0.80157,-1.31679 1.28132,-4.41099 1.03383,-6.66778 -0.56382,-5.14131 -3.87969,-8.73544 -15.37813,-16.66856 -8.08848,-5.58051 -13.0586,-9.58563 -17.5031,-14.104682 -6.28243,-6.38785 -9.87439,-12.7208 -10.64031,-18.75986 -0.44014,-3.47032 0.76612,-6.92852 3.50354,-10.04422 1.09151,-1.24236 4.02165,-3.9885 4.07679,-3.82081 0.0241,0.0733 -0.12342,1.23397 -0.32786,2.57917 -0.67228,4.42368 -0.424,7.16593 0.89278,9.86053 1.38995,2.84432 4.13237,5.3429 7.89214,7.19041 4.79276,2.35512 9.24868,3.20418 16.78287,3.19793 10.71877,-0.009 19.17835,-1.95946 28.07232,-6.47269 8.69638,-4.41297 15.80862,-10.76485 18.75731,-16.75194 0.96699,-1.9634 1.28396,-3.30686 1.57403,-6.67137 0.16527,-1.9169 0.10788,-12.04158 -0.0971,-17.126981 l -0.0867,-2.1482 -3.40307,-0.0707 c -3.01373,-0.0626 -3.56593,-0.11008 -4.82647,-0.41505 -3.80362,-0.92024 -6.40597,-2.28329 -8.54525,-4.47582 -1.14644,-1.17497 -1.59065,-1.88008 -1.43817,-2.28288 0.13105,-0.34618 1.3478,-0.25167 3.41325,0.26513 3.20158,0.80106 5.07863,0.99761 7.30887,0.76531 2.10953,-0.21973 3.47398,-0.70349 4.32248,-1.53255 l 0.66514,-0.6499 -0.0566,-0.90102 c -0.0393,-0.62669 -0.14143,-1.01651 -0.33523,-1.28039 -0.25633,-0.34902 -0.4219,-0.43201 -1.40321,-0.70341 -0.5993,-0.16575 -0.76398,-0.96625 -0.56743,-2.75814 0.9051,-8.251399 6.01809,-15.1100194 13.5234,-18.1404294 6.48017,-2.6165 13.97806,-2.29843 21.10477,0.89528 6.28531,2.81666 11.57776,8.5927604 14.78488,16.1359994 1.29658,3.04962 2.46426,7.05264 2.86393,9.81813 0.48034,3.32368 0.88486,10.924681 0.88895,16.703941 0.005,7.12677 0.33713,11.85739 1.02729,14.63415 0.39935,1.60679 1.28102,3.57022 2.18195,4.8591 0.88868,1.27135 3.40487,3.76262 5.11464,5.06398 9.11564,6.93823 27.12069,11.99317 42.7281,11.99594 5.92689,7.7e-4 10.44059,-0.60158 14.0683,-1.87829 3.77029,-1.32691 6.0228,-3.19519 7.53497,-6.24969 1.0111,-2.04236 1.27975,-3.43221 1.19344,-6.17423 -0.0379,-1.20472 -0.0158,-2.47879 0.0491,-2.83128 0.37706,-2.04599 1.85305,-1.28724 3.78742,1.94699 1.4833,2.48004 2.05924,5.07816 1.75237,7.90514 -0.65356,6.02084 -4.45083,12.53984 -11.26418,19.33784 -3.78948,3.780922 -7.70405,6.939542 -12.66919,10.222662 -6.77004,4.47657 -8.10814,5.39119 -10.01376,6.84458 -2.79426,2.13118 -4.21442,3.3608 -6.1126,5.29249 -2.38632,2.42848 -3.45516,4.19982 -3.45516,5.72614 0,0.46136 -0.26685,0.9468 -0.52046,0.9468 -0.0519,0 -0.31506,-0.15199 -0.58475,-0.33776 -0.65618,-0.45201 -1.90034,-2.04144 -3.52204,-4.4995 -3.29751,-4.99808 -5.55411,-7.30306 -18.68923,-19.08986 -4.81404,-4.319882 -7.57893,-7.282852 -10.62837,-11.389822 -3.30694,-4.45375 -5.57555,-8.47084 -7.33377,-12.98619 -1.13145,-2.90574 -1.82614,-4.27951 -2.61209,-5.16567 -0.51878,-0.58493 -0.67507,-0.68292 -1.03285,-0.64759 -0.63301,0.0624 -0.89555,0.69974 -0.89582,2.17439 -2.9e-4,1.68803 0.68075,4.003 2.26315,7.69275 3.86534,9.0129 8.14983,14.23864 24.57887,29.978512 7.98729,7.65225 10.52601,10.49036 14.42478,16.12591 5.21204,7.53385 8.28423,10.61132 11.31745,11.33687 2.07654,0.49673 5.09442,-0.50471 6.5357,-2.16873 1.24833,-1.44128 1.72322,-2.67599 1.87373,-4.87184 0.0614,-0.89627 0.15531,-1.67306 0.20858,-1.72617 0.16171,-0.16119 1.26618,1.22055 1.7333,2.16843 0.42798,0.86852 0.43888,0.9355 0.4365,2.67969 -0.002,1.64836 -0.0355,1.88306 -0.42314,2.98752 -1.50365,4.28434 -4.96328,7.50457 -9.13145,8.49956 -1.6298,0.38907 -4.90435,0.48786 -6.64698,0.20054 z M 606.73506,123.82291 c 2.86945,-1.46781 12.80992,-11.94247 19.48591,-20.53305 6.42182,-8.263532 15.5832,-24.608182 17.04844,-30.415822 0.50089,-1.98529 0.33435,-2.4708 -0.84758,-2.4708 -0.59391,0 -0.82756,0.0729 -1.23021,0.38431 -0.88634,0.68531 -1.81516,2.27929 -3.13922,5.38732 -3.65562,8.58108 -11.37362,20.41812 -19.84657,30.438542 -2.35639,2.78676 -4.18596,4.77829 -8.07963,8.79488 -1.94159,2.00291 -3.94067,4.17553 -4.44239,4.82806 -0.88519,1.15126 -1.58816,2.42677 -1.59086,2.88659 -0.003,0.4311 0.47863,0.84674 1.09536,0.9462 0.66195,0.10674 0.94473,0.0616 1.54675,-0.24623 z m 66.49261,-68.334572 c 1.13623,-0.18075 2.4551,-0.83313 2.97373,-1.47096 0.81415,-1.00125 1.12356,-3.0282 0.55085,-3.60876 -0.60124,-0.60948 -1.44214,-0.18531 -2.15239,1.08571 -0.62167,1.1125 -1.02045,1.41577 -1.9661,1.49527 -0.9659,0.0812 -2.05347,-0.26619 -2.97077,-0.94893 -1.50344,-1.11898 -1.71997,-1.24565 -2.25346,-1.31818 -0.66206,-0.09 -0.92059,0.0898 -1.03753,0.72163 -0.12392,0.66963 0.16959,1.40259 0.8623,2.15331 0.77874,0.84396 1.77427,1.41964 3.03289,1.75386 1.1484,0.30494 1.73454,0.33206 2.96048,0.13705 z m -20.94343,-1.03521 c 0.69398,-0.4774 0.95538,-0.81741 1.31342,-1.70837 0.26703,-0.66449 0.30427,-1.00489 0.30816,-2.81712 0.004,-1.75675 -0.04,-2.20356 -0.29651,-3.02416 -0.77117,-2.46746 -2.15426,-3.42229 -3.51248,-2.42489 -1.55308,1.14046 -2.21903,2.54466 -2.21903,4.67885 0,2.36079 0.91866,4.58137 2.23097,5.39262 0.61267,0.37875 1.54434,0.33725 2.17547,-0.0969 z"
     id="path5" />
  <path
     style="display:inline;fill:#3a2240;fill-opacity:1;stroke-width:0.836;stroke-dasharray:none"
     d="m 626.01328,164.9099 c -2.09039,-0.2983 -3.74587,-1.14816 -5.37448,-2.75907 -1.65836,-1.64033 -2.60471,-3.56257 -2.89545,-5.88127 -0.32038,-2.55503 0.63703,-4.91999 2.23949,-5.53197 1.23026,-0.46984 2.30862,0.28262 3.21425,2.24283 0.29447,0.6374 0.65648,1.32892 0.80447,1.53675 0.33286,0.46746 1.18275,0.91468 1.73827,0.91468 1.01366,0 2.19536,-0.9016 3.07791,-2.34836 0.91125,-1.49378 1.56707,-6.06295 1.59174,-11.08961 0.0143,-2.92692 -0.0694,-3.52916 -0.4907,-3.52916 -0.0859,0 -1.96198,0.77152 -4.16914,1.71449 -9.34027,3.99048 -14.63279,5.70714 -21.048,6.82706 -5.4862,0.95773 -11.18552,0.96361 -15.2434,0.0157 -6.0785,-1.4199 -10.22792,-4.88282 -11.99506,-10.01055 -0.31407,-0.91133 -0.36552,-1.28341 -0.37145,-2.68668 -0.009,-2.16158 0.40346,-3.87049 1.44094,-5.96805 0.96899,-1.95906 2.33513,-3.46281 3.73807,-4.11461 0.67999,-0.31592 0.95616,-0.36319 2.13821,-0.36593 1.20075,-0.003 1.40773,0.0328 1.79375,0.3081 0.89956,0.64163 0.82329,1.8094 -0.23227,3.55642 -0.8022,1.32768 -0.80557,1.86864 -0.0181,2.9116 0.72583,0.96135 1.82629,1.84019 2.30341,1.83952 0.1986,-2.9e-4 0.57344,-0.12996 0.83298,-0.28818 0.7134,-0.4349 2.23268,-2.01214 2.5641,-2.66192 0.41828,-0.82011 0.50639,-1.95218 0.23451,-3.01341 -0.95593,-3.73137 -4.40262,-6.91623 -16.16551,-14.93753 -5.74462,-3.91737 -10.25355,-7.34646 -14.04943,-10.68478 -6.05863,-5.328302 -11.06951,-12.888142 -12.81392,-19.332182 -0.59465,-2.19668 -0.80335,-3.70951 -0.80287,-5.8196 8.3e-4,-3.49255 0.8214,-6.28684 2.64154,-8.99504 0.84247,-1.25351 2.98579,-3.32171 4.44585,-4.29001 3.9502,-2.61975 9.48189,-4.09995 12.055,-3.22573 0.98276,0.33389 1.53337,0.97837 1.53337,1.79479 0,1.19341 -0.67934,1.92398 -2.12474,2.28495 -2.21649,0.55356 -3.68761,2.14611 -4.19539,4.54174 -0.6693,3.1576 0.52892,6.56052 3.15927,8.97224 2.70806,2.48297 6.32021,4.17508 10.55853,4.94614 2.65567,0.48314 3.699,0.55409 8.00848,0.54467 8.50617,-0.0186 14.97944,-1.16877 21.92153,-3.89502 8.37687,-3.2897 17.01278,-9.79602 20.94003,-15.77628 2.57395,-3.9195 3.48794,-7.83242 2.87646,-12.31453 -0.63943,-4.68696 -1.26591,-7.34261 -1.91379,-8.112581 -0.49315,-0.58607 -0.64046,-0.64136 -2.15803,-0.80989 -3.08635,-0.34277 -8.292,-2.7213 -11.09241,-5.06829 -1.88944,-1.58351 -4.01016,-5.10494 -5.28991,-8.78379 -0.95892,-2.75659 -1.21043,-5.48108 -0.61367,-6.64769 0.43267,-0.84584 0.64396,-0.93854 1.35183,-0.59311 0.9783,0.47741 2.2332,1.50761 4.23509,3.47673 3.11983,3.06878 4.42479,3.76407 7.06459,3.76407 2.61957,0 2.66992,-0.0706 2.80632,-3.93637 0.1353,-3.8347 0.5815,-5.769969 2.03421,-8.822909 4.64587,-9.7635304 16.07229,-15.87954 27.37439,-14.65220036 6.12973,0.66566 12.62815,3.41768996 17.62077,7.46225996 2.66893,2.16212 5.6804,5.6029104 7.42143,8.4794404 1.0806,1.78537 1.57104,2.817089 2.74226,5.768819 1.55639,3.92247 2.31188,5.20474 3.28439,5.57449 0.97054,0.36899 2.3785,-0.0141 4.04129,-1.09958 1.82018,-1.18822 3.59631,-3.26004 3.60354,-4.20343 0.008,-1.08283 1.62507,-2.98622 2.53656,-2.98622 0.65739,0 2.13093,1.81257 2.76095,3.39617 0.56989,1.43246 0.29706,3.6702 -0.88776,7.28124 -1.05362,3.21119 -2.42633,5.66492 -4.19144,7.49223 -1.27464,1.31955 -2.28011,2.0218 -4.1608,2.90602 -2.70166,1.27021 -2.84606,1.61503 -3.30971,7.904201 -0.69584,9.438 -0.27205,12.93756 1.98079,16.35721 1.04342,1.58383 3.42076,4.05517 5.16563,5.36986 11.01014,8.29572 36.43426,13.6285 49.98574,10.48465 3.45952,-0.80259 5.81871,-2.10893 7.43832,-4.11878 0.76907,-0.95436 2.01122,-3.323 2.34255,-4.46701 0.29942,-1.03378 0.15359,-1.73583 -0.62685,-3.01773 -1.1375,-1.86839 -2.45725,-3.10301 -3.48748,-3.26253 -1.20558,-0.18668 -2.74566,-1.42338 -2.95404,-2.37214 -0.2499,-1.13781 1.57737,-2.0091 4.21343,-2.00906 3.43423,5e-5 7.53523,1.41334 10.11155,3.48465 3.72405,2.99405 5.65028,7.90535 5.16312,13.16442 -0.69762,7.53111 -4.51963,14.15082 -12.91792,22.373722 -5.33223,5.22088 -9.44529,8.38973 -16.88061,13.00542 -8.62578,5.3547 -13.27623,9.74647 -14.3282,13.53117 -0.26494,0.95319 -0.20147,2.64659 0.13481,3.59703 0.57762,1.63257 1.92615,3.23551 3.22047,3.82807 0.6567,0.30065 0.88952,0.33725 1.80711,0.28414 0.82201,-0.0476 1.18824,-0.14006 1.66788,-0.42115 1.78199,-1.04431 2.4072,-3.18424 1.53444,-5.25203 -0.82135,-1.94606 -0.92371,-2.26592 -0.93392,-2.91835 -0.0133,-0.8466 0.24482,-1.39 0.85711,-1.80485 0.41658,-0.28225 0.60201,-0.3163 1.50566,-0.27651 1.54974,0.0683 2.77571,0.72921 4.48508,2.41807 1.81164,1.78991 2.8044,3.38321 3.84589,6.17232 0.70111,1.87759 0.76123,2.8512 0.29014,4.69962 -0.6589,2.58535 -2.06087,4.93648 -4.7817,8.01894 -1.95566,2.2156 -4.3778,4.18518 -5.61654,4.56712 -1.38778,0.4279 -7.5316,0.57387 -10.04856,0.23875 -5.10251,-0.67937 -10.54025,-2.70044 -20.0292,-7.44425 -7.44863,-3.72381 -12.82475,-6.03882 -13.58232,-5.84868 -0.81414,0.20434 -1.94817,2.20607 -2.87388,5.07283 -1.13809,3.52448 -1.46885,5.32065 -1.24168,6.74273 0.38404,2.40398 2.11711,4.45314 3.25238,3.84558 0.58995,-0.31575 0.81587,-1.16232 0.8066,-3.02261 -0.0127,-2.5453 0.36678,-3.1804 1.82785,-3.05924 2.99075,0.24802 5.51129,3.90161 5.51129,7.98876 0,1.5983 -0.30445,2.70652 -1.06343,3.87088 -1.74309,2.67414 -6.27054,5.26473 -9.53283,5.45466 -6.44062,0.37497 -14.02036,-6.644 -15.58512,-14.4321 -0.684,-3.40437 -0.73412,-12.78357 -0.0799,-14.95725 0.16725,-0.55573 0.16516,-0.66039 -0.0171,-0.86181 -0.43977,-0.48594 -1.77938,-0.59611 -7.24862,-0.59611 -4.59729,0 -5.31834,0.0287 -5.99461,0.23792 -0.97856,0.30285 -1.3837,0.77607 -1.75055,2.04471 -1.38002,4.77227 -2.80764,8.51171 -4.75613,12.4579 -1.7314,3.50649 -2.81503,5.40724 -4.6743,8.19903 -2.80075,4.20545 -4.8981,6.45038 -7.07298,7.57066 -1.52401,0.78502 -3.65458,1.50991 -5.25807,1.78899 -1.32538,0.23067 -1.63392,0.23599 -2.93357,0.0505 z m 3.981,-3.95632 c 1.50398,-0.74349 2.91006,-1.85618 4.7731,-3.77715 4.77904,-4.9276 9.30572,-12.82029 11.78264,-20.54416 0.6629,-2.06717 0.71606,-2.41298 0.41691,-2.71214 -0.54903,-0.54903 -3.3047,-0.0219 -10.06169,1.92457 l -3.15589,0.90912 -0.005,3.67199 c -0.006,4.93046 -0.20912,9.78839 -0.47015,11.24058 -0.46759,2.6014 -1.17331,4.19464 -2.38987,5.39543 -0.95878,0.94634 -2.1584,1.53733 -4.00753,1.97424 -2.19052,0.51759 -2.90108,0.88261 -2.90108,1.49034 0,0.70392 1.07998,1.02058 3.33286,0.97722 1.59412,-0.0307 1.6631,-0.0448 2.68512,-0.55004 z m 53.09547,-1.65471 c 1.51595,-0.31968 2.46829,-0.86732 3.63869,-2.09237 1.08632,-1.13704 1.63101,-2.00839 1.56133,-2.49769 -0.0342,-0.24022 -0.14608,-0.30259 -0.60247,-0.33593 -0.43066,-0.0314 -0.87825,0.1019 -1.9329,0.5759 -1.5797,0.70998 -2.22179,0.88233 -3.3043,0.88697 -1.65286,0.007 -3.21108,-1.07166 -3.98273,-2.75717 -0.76528,-1.67159 -0.92586,-2.64732 -0.9307,-5.65521 -0.006,-3.67385 0.33813,-5.59712 1.68065,-9.39525 0.43031,-1.21735 0.56832,-1.81686 0.58845,-2.55615 0.0236,-0.86568 -0.007,-0.99259 -0.29167,-1.22418 -0.66431,-0.53981 -2.88812,-1.04947 -6.74932,-1.54686 -1.48818,-0.1917 -2.83589,-0.37747 -2.99491,-0.41283 -0.26476,-0.0589 -0.30156,0.0185 -0.43659,0.91831 -0.0811,0.54043 -0.27214,1.8072 -0.42451,2.81504 -0.99109,6.55539 0.6513,15.21915 3.59937,18.9869 2.53446,3.23916 6.99356,5.04719 10.58161,4.29052 z m 41.13614,-13.02616 c 2.7833,-0.45143 4.71285,-1.35278 6.67523,-3.11816 1.61657,-1.45429 3.38809,-4.39673 3.89113,-6.46308 0.29951,-1.23024 0.28275,-3.14904 -0.0365,-4.17463 -0.25907,-0.83238 -0.52631,-1.28257 -1.36421,-2.29814 -0.81862,-0.99219 -1.09716,-0.70529 -1.09716,1.13011 0,1.97351 -0.64694,3.55538 -2.01643,4.93049 -2.00808,2.0163 -4.81253,2.69662 -7.16903,1.73909 -2.53348,-1.02944 -5.59897,-4.18052 -9.60162,-9.86968 -4.57165,-6.4979 -7.14787,-9.39231 -14.59651,-16.39931 -7.76563,-7.30519 -14.95575,-14.606682 -17.93584,-18.213632 -3.92797,-4.75422 -7.40526,-11.20404 -9.08035,-16.84259 -0.62143,-2.0918 -0.52386,-4.27684 0.20345,-4.55593 0.7929,-0.30427 2.1404,1.71236 3.45615,5.17239 1.73022,4.55001 4.09449,8.72613 7.53408,13.30779 3.11481,4.14903 6.04058,7.23873 10.92826,11.540532 12.18977,10.7286 15.11277,13.67126 18.40138,18.52521 1.7491,2.58165 2.09792,3.04275 2.99456,3.95854 1.25326,1.28003 1.78349,1.18643 1.96814,-0.34744 0.19681,-1.63477 1.34148,-3.34577 3.86992,-5.78455 3.30342,-3.18627 7.13015,-6.05467 13.21563,-9.90605 4.6025,-2.91282 7.66424,-5.1157 11.1983,-8.05704 2.27493,-1.893372 6.80062,-6.466462 8.483,-8.571832 5.70814,-7.1433 7.97966,-14.06014 6.35086,-19.33854 -0.57448,-1.86172 -1.91786,-4.11051 -3.1538,-5.27941 -0.66814,-0.63191 -0.81153,-0.70853 -1.25611,-0.67124 -0.40961,0.0344 -0.55277,0.12944 -0.7788,0.51718 -0.25669,0.44036 -0.27416,0.66491 -0.23902,3.07193 0.0423,2.89811 -0.0766,3.75418 -0.7708,5.54961 -1.13197,2.92756 -3.54373,5.28997 -6.72151,6.58399 -2.25674,0.91896 -5.25361,1.61279 -8.90427,2.0615 -1.91673,0.23559 -10.5886,0.23346 -12.96288,-0.003 -6.58524,-0.65634 -12.05295,-1.68049 -17.93002,-3.35844 -8.6375,-2.46607 -15.44402,-5.78682 -19.80488,-9.66236 -4.4377,-3.94384 -5.73378,-6.68231 -6.31239,-13.33743 -0.0811,-0.93319 -0.20345,-5.0562 -0.2718,-9.16225 -0.11842,-7.113361 -0.22738,-9.829471 -0.54725,-13.641571 -0.43189,-5.14731 -1.64488,-9.61622 -3.85006,-14.18451 -3.8961,-8.071219 -9.45626,-13.2162594 -16.98032,-15.7125594 -8.25244,-2.73796 -16.23255,-1.88174 -22.80381,2.44673 -1.83978,1.21185 -4.44663,3.8175804 -5.6708,5.6683704 -2.12824,3.21759 -3.45603,7.032599 -3.7072,10.651539 -0.10883,1.56787 0.0966,2.2497 0.71582,2.37557 0.8363,0.17001 1.06486,0.29323 1.36211,0.73431 0.42059,0.62411 0.42038,1.57175 -4.7e-4,2.19773 -0.7337,1.09131 -3.13007,1.80285 -6.06956,1.80217 -2.03275,-4.6e-4 -2.9647,-0.13225 -5.79456,-0.81942 -1.3452,-0.32665 -2.1639,-0.45535 -2.71474,-0.42675 -0.77144,0.04 -0.78958,0.0501 -0.82953,0.45945 -0.0315,0.3229 0.10172,0.60816 0.58321,1.24868 1.91214,2.54372 5.47534,4.5539 9.70578,5.47551 1.03272,0.22499 1.95447,0.29508 4.6289,0.35198 l 3.3394,0.071 0.0885,1.98596 c 0.0487,1.09229 0.12753,4.917891 0.1752,8.501351 0.13655,10.26628 -0.17906,12.50821 -2.25813,16.04064 -2.08949,3.55012 -6.03052,7.61644 -10.41717,10.74833 -5.34801,3.81825 -12.76087,7.3298 -18.94869,8.97619 -9.01324,2.39815 -20.79604,2.76994 -28.10934,0.88697 -4.23984,-1.09165 -8.223,-3.19216 -10.67884,-5.63149 -2.31098,-2.29544 -3.44241,-4.60065 -3.78467,-7.71103 -0.16936,-1.53915 -0.0848,-2.68035 0.4596,-6.20361 0.1843,-1.19276 0.30998,-2.19377 0.27929,-2.22447 -0.0709,-0.0709 -2.67675,2.35177 -3.9439,3.6665 -1.83356,1.90241 -3.00525,3.83037 -3.66285,6.02706 -0.31497,1.05212 -0.36428,1.46052 -0.36797,3.04739 -0.007,2.89096 0.69146,5.50624 2.40974,9.02651 1.78713,3.66136 4.06172,6.74115 7.80759,10.57149 4.52688,4.62897 9.54034,8.680772 17.23994,13.933082 9.90424,6.7562 13.27611,9.73667 15.08461,13.3336 0.83331,1.65736 1.09401,2.82841 1.0951,4.91899 0.002,4.2052 -1.30585,6.53784 -4.23486,7.55208 -0.75712,0.26217 -1.17113,0.30659 -2.91834,0.31309 -3.10255,0.0115 -3.74644,-0.31604 -4.88683,-2.48621 -1.12081,-2.13292 -2.34912,-2.36606 -2.7897,-0.52951 -0.47125,1.96441 0.65373,4.30882 3.33964,6.95967 3.68608,3.63797 7.34285,5.09013 12.81772,5.09013 5.6929,0 11.44473,-1.47896 24.43539,-6.28308 13.42629,-4.96521 19.48717,-6.82251 25.51856,-7.81991 5.16618,-0.85431 9.0304,-1.09657 17.51007,-1.09778 8.33268,-0.001 11.25007,0.22526 14.8632,1.15363 4.79025,1.23082 12.93423,4.59105 21.40437,8.8315 9.08882,4.55017 13.71018,6.33126 18.27002,7.04127 1.59569,0.24847 4.17102,0.25298 5.66959,0.01 z M 686.96472,37.043297 c 2.15762,-1.4408 5.79365,-5.50321 6.3369,-7.07998 0.23167,-0.67243 0.11339,-1.30984 -0.24306,-1.30984 -0.14176,0 -1.25165,0.50903 -2.4664,1.13117 -2.0566,1.05328 -3.88064,1.71931 -4.70868,1.71931 -0.47945,0 -1.17676,0.79705 -1.42315,1.62669 -0.30337,1.02158 -0.28186,2.76413 0.043,3.4794 0.52182,1.14908 1.20848,1.26995 2.46144,0.43325 z"
     id="path6" />
  <path
     style="display:inline;fill:#3a2240;fill-opacity:1;stroke-width:0.135737"
     d="m 649.55693,54.741658 c -1.43433,-0.90269 -2.31477,-3.14198 -2.20166,-5.59969 0.0721,-1.56615 0.44987,-2.51877 1.3457,-3.3931 1.20891,-1.17992 1.89179,-1.35319 2.70176,-0.68554 1.05081,0.86617 1.75701,2.94238 1.75701,5.16554 0,2.0793 -0.55521,3.68254 -1.51097,4.36311 -0.5864,0.41754 -1.55597,0.48693 -2.09184,0.14968 z"
     id="path7" />
  <path
     style="fill:#3a2240;fill-opacity:1;stroke-width:0.135737"
     d="m 604.50643,123.38955 c -0.63408,-0.11024 -1.0739,-0.57295 -0.94545,-0.99465 0.42256,-1.38713 1.60475,-2.84357 5.68785,-7.00729 3.72139,-3.79488 5.6861,-5.894 7.80576,-8.33976 7.44027,-8.584922 14.83461,-19.316042 18.90366,-27.434132 0.33429,-0.66694 1.06642,-2.25101 1.62696,-3.52015 1.13604,-2.57214 1.80327,-3.78477 2.51751,-4.57535 0.8199,-0.90754 1.66077,-1.16095 2.32003,-0.69919 0.28524,0.19979 0.30968,0.29457 0.23648,0.91729 -0.20224,1.72081 -1.32225,4.58872 -3.42444,8.7687 -3.38623,6.73315 -9.01845,16.02445 -12.5479,20.699902 -6.0489,8.01293 -16.17596,18.82051 -20.28365,21.64668 -0.77843,0.53557 -1.20865,0.65759 -1.89681,0.53795 z"
     id="path8" />
  <path
     style="fill:#3a2240;fill-opacity:1;stroke-width:0.135737"
     d="m 669.89105,55.603808 c -1.6183,-0.36773 -3.24365,-1.49172 -3.83592,-2.65268 -0.33757,-0.66168 -0.34463,-1.10239 -0.024,-1.49833 0.36661,-0.45275 1.04524,-0.27211 2.16275,0.57566 1.27239,0.96527 2.21503,1.37618 3.29038,1.43431 1.27821,0.0691 1.95722,-0.30395 2.5355,-1.39302 1.0525,-1.98214 2.34459,-1.89599 2.18073,0.1454 -0.12058,1.50219 -1.03797,2.63666 -2.56661,3.17393 -1.0312,0.36243 -2.67722,0.45687 -3.74282,0.21473 z"
     id="path9" />
  <path
     style="fill:#f6656a;fill-opacity:1;stroke-width:0.123917"
     d="m 678.67228,159.21474 c -3.05768,-0.6567 -5.76824,-3.0017 -7.14366,-6.18021 -0.51933,-1.20013 -1.20835,-3.63607 -1.57382,-5.56395 -0.75898,-4.00363 -0.8536,-7.66743 -0.30552,-11.82945 0.192,-1.45791 0.37666,-2.68283 0.41036,-2.72206 0.106,-0.12335 4.99827,0.67052 6.18971,1.00442 1.522,0.42655 2.10508,0.73801 2.26139,1.20796 0.17017,0.51162 -0.11324,2.1703 -0.64427,3.77049 -0.92291,2.78106 -1.37428,6.07269 -1.28499,9.37072 0.0691,2.5478 0.28846,3.74819 0.95528,5.22496 0.77491,1.71612 1.85916,2.52842 3.37505,2.52842 0.89336,0 1.63692,-0.23552 3.00195,-0.95081 1.16916,-0.61266 1.82286,-0.69052 1.82286,-0.21711 0,0.41195 -0.6851,1.56454 -1.47539,2.48216 -1.41949,1.64816 -3.45853,2.33202 -5.58895,1.87446 z"
     id="path10" />
  <path
     style="fill:#f6656a;fill-opacity:1;stroke-width:0.122611"
     d="m 626.56554,159.71739 c -0.30402,-0.1012 -0.61794,-0.26653 -0.6976,-0.36739 -0.41312,-0.52313 0.31305,-0.97343 2.52558,-1.56611 1.65532,-0.44343 2.4325,-0.8327 3.24477,-1.62518 0.82963,-0.80945 1.43016,-1.82891 1.80364,-3.06192 0.66108,-2.1825 0.70031,-2.67552 0.75806,-9.53088 l 0.0534,-6.35011 3.24981,-0.97027 c 4.39163,-1.31117 6.05944,-1.73085 7.21384,-1.81524 0.91959,-0.0672 0.9819,-0.0556 1.11679,0.20933 0.15755,0.30936 -0.0355,1.07857 -0.97739,3.89615 -2.18661,6.54052 -6.20744,13.56694 -10.14341,17.72566 -1.39911,1.47831 -2.504,2.36227 -3.81743,3.0541 -0.99336,0.52326 -1.02512,0.53066 -2.39206,0.55808 -0.9507,0.019 -1.55878,-0.03 -1.93811,-0.15622 z"
     id="path11" />
  <path
     style="fill:#f6656a;fill-opacity:1;stroke-width:0.119029"
     d="m 685.66024,36.471127 c -0.47121,-0.46897 -0.6023,-0.91883 -0.6023,-2.06682 0,-1.91136 0.4983,-2.74113 1.78872,-2.97855 0.86431,-0.15902 1.90056,-0.56789 4.0131,-1.58345 0.89422,-0.42989 1.70726,-0.78161 1.80674,-0.78161 0.37422,0 0.37284,0.60473 -0.004,1.36559 -0.48065,0.97275 -2.3409,3.14579 -3.95775,4.6232 -1.56219,1.42745 -2.56787,1.89692 -3.04541,1.42164 z"
     id="path12" />
  <path
     style="font-weight:708;font-size:144px;font-family:'Cooper Hewitt';-inkscape-font-specification:'Cooper Hewitt weight=708';letter-spacing:3.75px;fill:#3a2240;stroke-width:0.75"
     d="m 19.72791,128.41727 v -5.76 c 0,-25.344004 5.184,-38.304004 21.168,-38.304004 h 1.296 c 13.68,0 18.144,9.36 18.144,27.216004 h 19.44 v -4.896 c 0,-27.360004 -12.96,-39.168004 -38.736,-39.168004 -28.08,0 -41.040000087891,16.272 -41.040000087891,55.152004 v 5.76 c 0,38.88 12.960000087891,55.152 41.040000087891,55.152 25.776,0 38.736,-11.808 38.736,-38.304 v -1.44 h -19.44 c 0,14.112 -5.04,22.896 -18.144,22.896 h -1.296 c -16.128,0 -21.168,-12.96 -21.168,-38.304 z M 118.37382,69.377266 H 99.077822 V 181.69727 h 19.295998 z m 41.33411,70.416004 h 16.416 l 16.128,41.904 h 20.88 l -18.288,-44.928 c 10.224,-4.032 18.288,-12.816 18.288,-30.816 v -2.88 c 0,-28.512004 -20.016,-33.696004 -37.584,-33.696004 h -35.136 V 181.69727 h 19.296 z m 0,-16.848 V 86.225266 h 16.56 c 7.488,0 17.28,2.736 17.28,17.568004 v 1.584 c 0,14.832 -9.792,17.568 -17.28,17.568 z m 91.73401,16.848 h 16.416 l 16.128,41.904 h 20.88 l -18.288,-44.928 c 10.224,-4.032 18.288,-12.816 18.288,-30.816 v -2.88 c 0,-28.512004 -20.016,-33.696004 -37.584,-33.696004 h -35.136 V 181.69727 h 19.296 z m 0,-16.848 V 86.225266 h 16.56 c 7.488,0 17.28,2.736 17.28,17.568004 v 1.584 c 0,14.832 -9.792,17.568 -17.28,17.568 z m 92.45401,-53.568004 h -19.296 V 181.69727 h 19.296 z m 101.6701,0 h -18.288 v 53.712004 l 0.576,23.76 -41.472,-77.472004 h -20.448 V 181.69727 h 18.288 v -53.712 l -0.576,-23.76 41.472,77.472 h 20.448 z m 44.6459,-0.576 -29.52,112.896004 h 20.88 l 6.192,-25.632 h 31.68 l 6.192,25.632 h 20.736 l -29.52,-112.896004 z m 13.392,22.032 11.664,48.384004 h -23.472 z"
     id="text2"
     aria-label="CIRRINA" />
</svg>
