<?xml version="1.0" encoding="UTF-8" standalone="no"?>
<svg
   version="1.0"
   width="764.54285pt"
   height="184.07266pt"
   viewBox="0 0 764.54285 184.07266"
   preserveAspectRatio="xMidYMid"
   id="svg4"
   sodipodi:docname="logo.svg"
   inkscape:version="1.4.2 (ebf0e940d0, 2025-05-08)"
   xmlns:inkscape="http://www.inkscape.org/namespaces/inkscape"
   xmlns:sodipodi="http://sodipodi.sourceforge.net/DTD/sodipodi-0.dtd"
   xmlns="http://www.w3.org/2000/svg"
   xmlns:svg="http://www.w3.org/2000/svg">
  <defs
     id="defs4">
    <rect
       x="290.83917"
       y="104.06504"
       width="18.641216"
       height="13.030753"
       id="rect1" />
  </defs>
  <sodipodi:namedview
     id="namedview4"
     pagecolor="#ffffff"
     bordercolor="#000000"
     borderopacity="0.25"
     inkscape:showpageshadow="2"
     inkscape:pageopacity="0.0"
     inkscape:pagecheckerboard="0"
     inkscape:deskcolor="#d1d1d1"
     inkscape:document-units="pt"
     inkscape:zoom="3.19"
     inkscape:cx="559.40439"
     inkscape:cy="123.51097"
     inkscape:window-width="3840"
     inkscape:window-height="2095"
     inkscape:window-x="0"
     inkscape:window-y="0"
     inkscape:window-maximized="1"
     inkscape:current-layer="svg4" />
  <metadata
     id="metadata1">
Created by potrace 1.10, written by Peter Selinger 2001-2011
</metadata>
  <path
     style="display:inline;fill:#f6656a;fill-opacity:1;stroke-width:0.136137"
     d="m 717.66372,150.46297 c -4.3405,-0.7294 -8.91033,-2.53092 -16.89681,-6.66107 -9.61072,-4.97007 -18.11518,-8.58118 -22.93752,-9.73958 -3.37526,-0.81078 -7.16427,-1.02816 -16.2101,-0.93 -7.0553,0.0767 -9.49918,0.22174 -13.45772,0.7994 -6.09079,0.88881 -12.8164,2.88985 -23.77426,7.07347 -12.0678,4.60739 -15.16076,5.64959 -19.82135,6.679 -3.37836,0.74617 -5.3588,0.95665 -8.10264,0.8611 -3.63814,-0.12668 -5.71849,-0.68511 -8.10264,-2.17494 -2.78125,-1.73794 -5.23728,-4.31705 -6.45152,-6.77474 -0.4688,-0.94882 -0.51261,-1.13283 -0.51107,-2.14503 10e-4,-0.86078 0.0623,-1.21497 0.2744,-1.59139 0.5804,-1.03039 1.36169,-0.56624 2.34967,1.3959 1.01662,2.01901 1.79605,2.40971 4.80725,2.40971 1.99533,0 2.86359,-0.16609 4.01786,-0.7686 0.72241,-0.37707 1.74326,-1.35629 2.18492,-2.09586 0.79194,-1.32599 1.26591,-4.44181 1.02141,-6.71437 -0.55702,-5.17724 -3.83297,-8.79647 -15.19291,-16.78504 -7.99105,-5.6195 -12.90132,-9.6526 -17.29227,-14.20323 -6.20676,-6.432484 -9.75544,-12.809684 -10.51214,-18.89094 -0.43485,-3.49457 0.75689,-6.976933 3.46134,-10.114402 1.07834,-1.251042 3.97319,-4.016371 4.02768,-3.847508 0.0238,0.07382 -0.12195,1.242591 -0.32393,2.597191 -0.66416,4.454589 -0.41888,7.216002 0.88206,9.929429 1.37319,2.864194 4.08258,5.380231 7.79706,7.240651 4.73504,2.371576 9.13728,3.226569 16.58072,3.220274 10.58966,-0.009 18.94735,-1.97315 27.73417,-6.517916 8.59165,-4.443805 15.61821,-10.840066 18.53139,-16.868991 0.95533,-1.977118 1.26849,-3.329966 1.55508,-6.717984 0.16327,-1.930295 0.10657,-12.125717 -0.096,-17.246652 l -0.0856,-2.16321 -3.36209,-0.0712 c -2.97743,-0.06305 -3.52297,-0.11085 -4.76831,-0.41795 -3.75783,-0.92667 -6.32882,-2.299245 -8.44234,-4.507094 -1.13263,-1.18318 -1.57149,-1.893217 -1.42086,-2.298832 0.12948,-0.348598 1.33159,-0.253429 3.37214,0.266983 3.16303,0.806658 5.01746,1.004581 7.22082,0.770657 2.08415,-0.221266 3.43216,-0.708405 4.27044,-1.543259 l 0.65713,-0.65444 -0.0559,-0.907317 c -0.0388,-0.631068 -0.13972,-1.023612 -0.33119,-1.289335 -0.25324,-0.351459 -0.41682,-0.435028 -1.38631,-0.708326 -0.59209,-0.166907 -0.75476,-0.973001 -0.56059,-2.777412 0.89421,-8.309053 5.9456,-15.215597 13.36048,-18.2671817 6.40214,-2.6347822 13.80972,-2.3144899 20.85059,0.9015356 6.2096,2.8363411 11.4383,8.6528001 14.60679,16.2487461 1.28097,3.070929 2.43457,7.10192 2.82944,9.886734 0.47454,3.346903 0.87419,11.001015 0.87824,16.820656 0.005,7.176566 0.33307,11.94024 1.01491,14.736403 0.39455,1.618016 1.26558,3.595166 2.15567,4.893052 0.87799,1.280233 3.36386,3.788909 5.05305,5.099363 9.00583,6.98671 26.79401,12.076971 42.21341,12.07976 5.85551,7.75e-4 10.31485,-0.605783 13.89885,-1.891415 3.7249,-1.336182 5.95025,-3.217515 7.4442,-6.293358 0.99894,-2.056631 1.26436,-3.456192 1.17907,-6.217371 -0.0375,-1.213139 -0.0155,-2.49611 0.0485,-2.851064 0.37252,-2.060285 1.83074,-1.296234 3.7418,1.960595 1.46544,2.497369 2.03443,5.113643 1.73127,7.960375 -0.64569,6.062909 -4.39723,12.627461 -11.12851,19.472963 -3.74383,3.80734 -7.61124,6.98802 -12.5166,10.29409 -6.68848,4.50785 -8.01048,5.42886 -9.89313,6.89241 -2.76061,2.14606 -4.16366,3.38428 -6.03896,5.32947 -2.35759,2.44545 -3.41358,4.22916 -3.41358,5.76616 0,0.46457 -0.26362,0.95341 -0.51417,0.95341 -0.0513,0 -0.31127,-0.15305 -0.57771,-0.34012 -0.64826,-0.45518 -1.87746,-2.0557 -3.47961,-4.53094 -3.25778,-5.033 -5.48721,-7.35408 -18.4641,-19.22325 -4.75607,-4.35007 -7.48766,-7.333747 -10.50037,-11.469413 -3.26713,-4.48487 -5.50839,-8.530029 -7.24542,-13.07693 -1.11783,-2.926042 -1.80418,-4.309412 -2.58065,-5.201764 -0.51253,-0.589015 -0.66691,-0.68769 -1.02038,-0.652114 -0.6254,0.06283 -0.88478,0.70463 -0.88503,2.189583 -3.1e-4,1.699826 0.67255,4.030971 2.23586,7.746502 3.8188,9.075876 8.05168,14.338129 24.28284,30.187986 7.89107,7.70572 10.39922,10.56366 14.25102,16.23859 5.14926,7.58649 8.18443,10.68546 11.18113,11.41608 2.05154,0.5002 5.03307,-0.50823 6.45699,-2.18388 1.23328,-1.45134 1.70245,-2.69469 1.85115,-4.90588 0.0606,-0.90253 0.15345,-1.68474 0.20605,-1.73824 0.15977,-0.16231 1.25094,1.22909 1.71244,2.1836 0.42284,0.87457 0.4336,0.94203 0.43124,2.69841 -0.002,1.65987 -0.0352,1.8962 -0.41804,3.0084 -1.48554,4.31426 -4.9035,7.55699 -9.02147,8.55894 -1.61015,0.39179 -4.84527,0.49127 -6.56691,0.20193 z M 606.57488,127.17361 c 2.83489,-1.47806 12.65562,-12.02592 19.2512,-20.67652 6.34445,-8.321277 15.39548,-24.780133 16.84308,-30.628352 0.49486,-1.999161 0.33033,-2.488065 -0.83737,-2.488065 -0.58675,0 -0.81757,0.0734 -1.21537,0.386996 -0.87568,0.6901 -1.7933,2.295216 -3.10142,5.424962 -3.61159,8.64104 -11.23664,20.560789 -19.60752,30.651229 -2.328,2.80624 -4.13555,4.81168 -7.98231,8.85633 -1.91821,2.01691 -3.89319,4.2047 -4.38888,4.8618 -0.87453,1.15931 -1.56902,2.44372 -1.5717,2.90676 -0.003,0.4341 0.47285,0.85265 1.08218,0.9528 0.65396,0.10749 0.93333,0.0619 1.52811,-0.24794 z m 65.69169,-68.812051 c 1.12254,-0.182014 2.42555,-0.838951 2.93793,-1.481237 0.80432,-1.008246 1.11001,-3.049361 0.54422,-3.633976 -0.59402,-0.613738 -1.42479,-0.186606 -2.12648,1.093296 -0.61418,1.120273 -1.00816,1.425661 -1.94242,1.505718 -0.95427,0.08176 -2.02874,-0.26805 -2.935,-0.955561 -1.4853,-1.126798 -1.69924,-1.254354 -2.22628,-1.327391 -0.65411,-0.09063 -0.90954,0.09042 -1.02504,0.726674 -0.12245,0.674308 0.16753,1.412389 0.85191,2.168355 0.76935,0.849857 1.75287,1.429559 2.99634,1.766113 1.13458,0.307072 1.71365,0.334382 2.92482,0.138009 z m -20.69116,-1.042443 c 0.68562,-0.480737 0.94385,-0.823121 1.29761,-1.720307 0.26382,-0.669134 0.30061,-1.011912 0.30444,-2.836805 0.004,-1.769025 -0.0395,-2.218957 -0.29293,-3.045291 -0.76189,-2.4847 -2.12832,-3.446202 -3.47018,-2.441833 -1.53438,1.148429 -2.1923,2.562442 -2.1923,4.711543 0,2.377285 0.9076,4.613382 2.20408,5.430301 0.60532,0.381394 1.52575,0.339605 2.14928,-0.09759 z"
     id="path5" />
  <path
     style="display:inline;fill:#3a2240;fill-opacity:1;stroke-width:0.838672;stroke-dasharray:none"
     d="m 626.33547,166.35258 c -2.08553,-0.30091 -3.73716,-1.1582 -5.36199,-2.78321 -1.6545,-1.65468 -2.59865,-3.59373 -2.88872,-5.93271 -0.31963,-2.57739 0.63555,-4.96304 2.23429,-5.58037 1.2274,-0.47395 2.30325,0.28509 3.20677,2.26245 0.29379,0.64298 0.65496,1.34055 0.8026,1.55019 0.33209,0.47155 1.18,0.92268 1.73423,0.92268 1.0113,0 2.19026,-0.90949 3.07076,-2.3689 0.90913,-1.50685 1.56342,-6.11599 1.58803,-11.18662 0.0143,-2.95253 -0.0692,-3.56004 -0.48955,-3.56004 -0.0857,0 -1.95742,0.77828 -4.15945,1.72949 -9.31855,4.02539 -14.59877,5.75707 -20.99906,6.88679 -5.47345,0.96611 -11.15951,0.97203 -15.20796,0.0158 -6.06437,-1.43232 -10.20414,-4.92553 -11.96717,-10.09812 -0.31334,-0.9193 -0.36467,-1.29463 -0.37059,-2.71018 -0.009,-2.18049 0.40253,-3.90436 1.43759,-6.02026 0.96674,-1.9762 2.3297,-3.4931 3.72938,-4.1506 0.67841,-0.31869 0.95394,-0.36637 2.13324,-0.36914 1.19796,-0.003 1.40446,0.0331 1.78958,0.3108 0.89747,0.64724 0.82138,1.82523 -0.23173,3.58753 -0.80034,1.3393 -0.8037,1.88499 -0.0181,2.93707 0.72414,0.96976 1.82205,1.85629 2.29806,1.85561 0.19813,-2.9e-4 0.5721,-0.1311 0.83104,-0.2907 0.71174,-0.43871 2.22749,-2.02974 2.55814,-2.68521 0.4173,-0.82728 0.50521,-1.96925 0.23396,-3.03977 -0.95371,-3.76401 -4.39238,-6.97673 -16.12792,-15.0682 -5.73126,-3.95165 -10.22971,-7.41073 -14.01676,-10.77825 -6.04455,-5.374921 -11.04378,-13.000895 -12.78413,-19.501308 -0.59327,-2.215896 -0.80148,-3.741961 -0.801,-5.87051 8.2e-4,-3.523104 0.81949,-6.341838 2.63539,-9.07373 0.84052,-1.264476 2.97885,-3.350768 4.43552,-4.327539 3.94101,-2.642667 9.45984,-4.135817 12.02697,-3.253949 0.98047,0.336811 1.5298,0.986929 1.5298,1.810491 0,1.20385 -0.67776,1.940811 -2.1198,2.304939 -2.21133,0.558402 -3.67903,2.164884 -4.18563,4.581472 -0.66775,3.185222 0.52769,6.617912 3.15192,9.050729 2.70177,2.504692 6.30552,4.211605 10.53398,4.98941 2.6495,0.487367 3.6904,0.558937 7.98986,0.549434 8.48639,-0.01877 14.94461,-1.178994 21.87056,-3.929093 8.35739,-3.318479 16.97323,-9.881717 20.89134,-15.914293 2.56797,-3.953788 3.47983,-7.900939 2.86978,-12.422259 -0.63795,-4.727961 -1.26297,-7.406843 -1.90934,-8.18355 -0.49201,-0.591196 -0.63898,-0.64697 -2.15302,-0.816975 -3.07917,-0.345768 -8.27272,-2.745106 -11.06662,-5.112628 -1.88504,-1.597362 -4.00083,-5.149598 -5.27761,-8.860631 -0.95669,-2.780704 -1.20761,-5.529029 -0.61224,-6.705844 0.43166,-0.853239 0.64246,-0.94675 1.34869,-0.598299 0.97602,0.481586 2.228,1.520799 4.22524,3.507145 3.11258,3.095626 4.4145,3.796998 7.04816,3.796998 2.61348,0 2.66372,-0.07121 2.7998,-3.970806 0.13498,-3.868246 0.58015,-5.820444 2.02948,-8.900091 4.63507,-9.8489435 16.03492,-16.0184565 27.31074,-14.78037997 6.11548,0.67148325 12.59879,3.44758807 17.5798,7.52754037 2.66273,2.1810344 5.66719,5.6519246 7.40418,8.5536196 1.07808,1.800989 1.56738,2.841733 2.73588,5.819285 1.55277,3.956784 2.3065,5.250272 3.27675,5.623256 0.96829,0.372218 2.37297,-0.01422 4.0319,-1.109199 1.81594,-1.198615 3.58794,-3.288559 3.59516,-4.240202 0.008,-1.092303 1.62129,-3.012344 2.53066,-3.012344 0.65586,0 2.12598,1.828427 2.75453,3.42588 0.56857,1.444992 0.29637,3.702308 -0.8857,7.344937 -1.05117,3.239282 -2.42068,5.714477 -4.18169,7.557772 -1.27168,1.331094 -2.27481,2.039487 -4.15113,2.931442 -2.69537,1.281322 -2.83944,1.629159 -3.30201,7.973348 -0.69422,9.520565 -0.27142,13.050739 1.97618,16.500305 1.041,1.597685 3.41281,4.090644 5.15362,5.416835 10.98454,8.368292 36.34955,13.747723 49.86952,10.576371 3.45148,-0.809611 5.80518,-2.127379 7.42103,-4.154812 0.76728,-0.962709 2.00654,-3.35207 2.3371,-4.506087 0.29872,-1.042824 0.15323,-1.751016 -0.62539,-3.044129 -1.13486,-1.884736 -2.45154,-3.130156 -3.47937,-3.291072 -1.20278,-0.188312 -2.73928,-1.435831 -2.94718,-2.392892 -0.24931,-1.147763 1.57371,-2.026675 4.20364,-2.026635 3.42624,5.1e-5 7.51771,1.425705 10.08804,3.515135 3.71539,3.020241 5.63714,7.974506 5.15111,13.279583 -0.69599,7.596993 -4.50912,14.274612 -12.88788,22.56945 -5.31983,5.26656 -9.42333,8.46312 -16.84136,13.1192 -8.60573,5.40154 -13.24536,9.83173 -14.29489,13.64954 -0.26432,0.96153 -0.201,2.66974 0.1345,3.6285 0.57628,1.64685 1.92167,3.26381 3.21298,3.86155 0.65517,0.30328 0.88745,0.3402 1.80291,0.28663 0.8201,-0.048 1.18548,-0.14129 1.664,-0.42483 1.77785,-1.05345 2.4016,-3.21211 1.53087,-5.29798 -0.81944,-1.96309 -0.92156,-2.28574 -0.93175,-2.94388 -0.0133,-0.854 0.24426,-1.40216 0.85512,-1.82064 0.41561,-0.28472 0.60061,-0.31907 1.50216,-0.27893 1.54614,0.0689 2.76926,0.73559 4.47465,2.43922 1.80743,1.80557 2.79788,3.41281 3.83695,6.22632 0.69948,1.89402 0.75946,2.87614 0.28947,4.74073 -0.65737,2.60797 -2.05608,4.97967 -4.77059,8.08909 -1.95111,2.23499 -4.36762,4.22179 -5.60348,4.60708 -1.38455,0.43164 -7.51408,0.57889 -10.02519,0.24084 -5.09065,-0.68532 -10.51575,-2.72407 -19.98263,-7.50938 -7.43131,-3.75638 -12.79493,-6.09165 -13.55074,-5.89985 -0.81225,0.20614 -1.94364,2.22537 -2.8672,5.11722 -1.13544,3.55531 -1.46544,5.36719 -1.23879,6.80171 0.38314,2.42501 2.11218,4.4921 3.24481,3.87922 0.58858,-0.31851 0.81398,-1.17249 0.80473,-3.04905 -0.0127,-2.56756 0.36593,-3.20822 1.8236,-3.086 2.9838,0.25019 5.49847,3.93574 5.49847,8.05864 0,1.61229 -0.30374,2.7302 -1.06095,3.90475 -1.73904,2.69753 -6.25596,5.31079 -9.51067,5.50238 -6.42564,0.37824 -13.98776,-6.70213 -15.54888,-14.55836 -0.68241,-3.43415 -0.73241,-12.8954 -0.0797,-15.0881 0.16686,-0.56058 0.16477,-0.66616 -0.0171,-0.86935 -0.43874,-0.49019 -1.77524,-0.60132 -7.23176,-0.60132 -4.5866,0 -5.30598,0.029 -5.98067,0.24 -0.97629,0.30551 -1.38049,0.78286 -1.74648,2.0626 -1.37681,4.81401 -2.80111,8.58617 -4.74507,12.56688 -1.72738,3.53717 -2.80849,5.45454 -4.66344,8.27076 -2.79423,4.24224 -4.88671,6.5068 -7.05653,7.63689 -1.52047,0.79188 -3.64608,1.52311 -5.24585,1.80463 -1.32229,0.2327 -1.63012,0.23806 -2.92674,0.051 z m 3.97174,-3.99093 c 1.50048,-0.74999 2.90329,-1.87242 4.762,-3.8102 4.76793,-4.97071 9.28408,-12.93244 11.75525,-20.72387 0.66135,-2.08526 0.71439,-2.43409 0.41594,-2.73588 -0.54776,-0.55382 -3.29702,-0.0221 -10.0383,1.94141 l -3.14855,0.91708 -0.005,3.70411 c -0.006,4.97359 -0.20863,9.87402 -0.46906,11.33892 -0.4665,2.62415 -1.17058,4.23133 -2.38431,5.44262 -0.95655,0.95462 -2.15338,1.55078 -3.99821,1.99151 -2.18543,0.52212 -2.89434,0.89034 -2.89434,1.50338 0,0.71008 1.07747,1.02951 3.32511,0.98577 1.59042,-0.031 1.65924,-0.0451 2.67888,-0.55485 z m 52.97202,-1.66918 c 1.51242,-0.32248 2.46255,-0.87491 3.63023,-2.11069 1.08379,-1.14697 1.62721,-2.02595 1.5577,-2.51953 -0.0341,-0.24233 -0.14574,-0.30524 -0.60107,-0.33887 -0.42966,-0.0317 -0.87621,0.10279 -1.92841,0.58094 -1.57603,0.71619 -2.21662,0.89005 -3.29662,0.89472 -1.64901,0.007 -3.20361,-1.08102 -3.97347,-2.78128 -0.7635,-1.68621 -0.9237,-2.67048 -0.92853,-5.70468 -0.006,-3.706 0.33734,-5.64609 1.67674,-9.47745 0.42931,-1.22799 0.567,-1.83275 0.58708,-2.5785 0.0236,-0.87326 -0.007,-1.00128 -0.29099,-1.2349 -0.66276,-0.54452 -2.8814,-1.05865 -6.73363,-1.56038 -1.48472,-0.19339 -2.82929,-0.38078 -2.98794,-0.41645 -0.26415,-0.0594 -0.30086,0.0187 -0.43558,0.92635 -0.0809,0.54516 -0.27151,1.823 -0.42352,2.83966 -0.98879,6.61274 0.64978,15.35229 3.591,19.153 2.52857,3.2675 6.9773,5.09134 10.55701,4.32806 z m 41.04049,-13.14012 c 2.77683,-0.45538 4.70189,-1.36462 6.65971,-3.14544 1.61281,-1.46701 3.38021,-4.43519 3.88208,-6.51961 0.29882,-1.24101 0.2821,-3.1766 -0.0364,-4.21116 -0.25847,-0.83966 -0.52509,-1.29379 -1.36104,-2.31824 -0.81672,-1.00087 -1.09461,-0.71147 -1.09461,1.13999 0,1.99078 -0.64543,3.58649 -2.01174,4.97363 -2.00341,2.03394 -4.80134,2.7202 -7.15236,1.7543 -2.52759,-1.03845 -5.58595,-4.21709 -9.5793,-9.95602 -4.56102,-6.55475 -7.13125,-9.47447 -14.56257,-16.54277 -7.74757,-7.3691 -14.92097,-14.734469 -17.89414,-18.372973 -3.91883,-4.795811 -7.38804,-11.302054 -9.05923,-16.989931 -0.61999,-2.110099 -0.52265,-4.314254 0.20297,-4.595785 0.79106,-0.306932 2.13543,1.727339 3.44812,5.217638 1.72619,4.589814 4.08497,8.802467 7.51656,13.424208 3.10757,4.185326 6.02654,7.302054 10.90285,11.641493 12.16143,10.82245 15.07763,13.79086 18.3586,18.68727 1.74503,2.60424 2.09304,3.06937 2.98759,3.99317 1.25035,1.29123 1.77935,1.1968 1.96357,-0.35048 0.19635,-1.64907 1.33836,-3.37504 3.86092,-5.83516 3.29574,-3.21413 7.11357,-6.10763 13.1849,-9.9927 4.5918,-2.9383 7.64642,-5.16045 11.17226,-8.12752 2.26964,-1.909945 6.78481,-6.523041 8.46328,-8.646829 5.69487,-7.20579 7.96111,-14.183139 6.33609,-19.507715 -0.57314,-1.878006 -1.9134,-4.146469 -3.14646,-5.325595 -0.66659,-0.637438 -0.80965,-0.714728 -1.25319,-0.677112 -0.40866,0.03471 -0.55149,0.130573 -0.77699,0.521704 -0.2561,0.444214 -0.27352,0.670727 -0.23847,3.098804 0.0422,2.923463 -0.0764,3.787022 -0.769,5.598159 -1.12934,2.95317 -3.53549,5.336247 -6.70589,6.641586 -2.25149,0.927 -5.24139,1.626899 -8.88356,2.079535 -1.91228,0.237651 -10.56398,0.235503 -12.93274,-0.003 -6.56993,-0.662082 -12.02493,-1.695192 -17.88833,-3.38782 -8.61742,-2.487643 -15.40811,-5.837443 -19.75883,-9.746887 -4.42739,-3.978341 -5.72045,-6.740767 -6.29772,-13.454107 -0.0809,-0.941354 -0.20297,-5.100432 -0.27117,-9.242402 -0.11814,-7.175589 -0.22685,-9.91546 -0.54597,-13.760909 -0.43089,-5.192338 -1.64106,-9.700343 -3.84111,-14.308597 C 673.31136,13.163248 667.76413,7.9731986 660.25756,5.4550608 652.02431,2.693149 644.06275,3.5568592 637.50677,7.923195 c -1.8355,1.2224514 -4.43629,3.850977 -5.65761,5.717958 -2.1233,3.245737 -3.448,7.094121 -3.69858,10.74472 -0.10858,1.581586 0.0964,2.26938 0.71415,2.396351 0.83436,0.171498 1.06239,0.295796 1.35894,0.740734 0.41962,0.62957 0.41941,1.585499 -4.6e-4,2.216956 -0.732,1.100857 -3.1228,1.818621 -6.05545,1.817935 -2.02803,-4.63e-4 -2.95781,-0.133406 -5.78109,-0.826588 -1.34207,-0.329507 -2.15887,-0.459333 -2.70843,-0.430483 -0.76964,0.04035 -0.78774,0.05053 -0.8276,0.46347 -0.0314,0.325724 0.10149,0.613479 0.58186,1.259603 1.90769,2.565972 5.4626,4.593738 9.68321,5.52341 1.03032,0.226958 1.94992,0.297661 4.61814,0.355059 l 3.33163,0.07163 0.0883,2.003332 c 0.0486,1.101846 0.12723,4.960913 0.17479,8.575722 0.13623,10.35609 -0.17865,12.617633 -2.25288,16.180965 -2.08463,3.581177 -6.0165,7.683069 -10.39295,10.842357 -5.33558,3.851653 -12.7312,7.393922 -18.90463,9.054715 -8.99229,2.419129 -20.74769,2.794171 -28.04399,0.894729 -4.22998,-1.1012 -8.20388,-3.220086 -10.65401,-5.680755 -2.3056,-2.315521 -3.4344,-4.640897 -3.77587,-7.778487 -0.16896,-1.552614 -0.0846,-2.703798 0.45854,-6.257879 0.18387,-1.203195 0.30925,-2.212962 0.27864,-2.243931 -0.0707,-0.07152 -2.67053,2.372344 -3.93473,3.698576 -1.8293,1.919052 -2.99827,3.863878 -3.65434,6.079785 -0.31424,1.061323 -0.36343,1.473297 -0.36711,3.074049 -0.007,2.91625 0.68985,5.554409 2.40413,9.105474 1.78298,3.69339 4.05228,6.800122 7.78944,10.66397 4.51636,4.669468 9.51816,8.756708 17.19986,14.054968 9.88121,6.81531 13.24524,9.82185 15.04953,13.45025 0.83138,1.67185 1.09147,2.85315 1.09256,4.96202 0.002,4.24198 -1.30282,6.59503 -4.22502,7.61814 -0.75536,0.26446 -1.1684,0.30928 -2.91155,0.31583 -3.09534,0.0116 -3.73773,-0.31881 -4.87547,-2.50796 -1.1182,-2.15158 -2.34366,-2.38675 -2.78321,-0.53414 -0.47016,1.98159 0.65221,4.34651 3.33187,7.02056 3.67751,3.66979 7.32578,5.13465 12.78792,5.13465 5.67966,0 11.41812,-1.49189 24.37858,-6.33804 13.39507,-5.00865 19.44186,-6.8822 25.45922,-7.88832 5.15417,-0.86179 9.00941,-1.10617 17.46936,-1.10738 8.3133,-0.001 11.22391,0.22723 14.82864,1.16372 4.77911,1.24158 12.90416,4.63121 21.3546,8.90875 9.06769,4.58998 13.67831,6.38665 18.22754,7.10288 1.59198,0.25064 4.16133,0.25519 5.65641,0.0101 z M 687.14519,37.367385 c 2.1526,-1.453404 5.78018,-5.551352 6.32216,-7.141916 0.23113,-0.678312 0.11313,-1.321298 -0.24249,-1.321298 -0.14143,0 -1.24874,0.513482 -2.46067,1.141065 -2.05182,1.062494 -3.87161,1.73435 -4.69773,1.73435 -0.47833,0 -1.17402,0.804023 -1.41984,1.640921 -0.30266,1.030516 -0.2812,2.788311 0.0429,3.509838 0.52061,1.159132 1.20567,1.28106 2.45572,0.43704 z"
     id="path6" />
  <path
     style="display:inline;fill:#3a2240;fill-opacity:1;stroke-width:0.135737"
     d="m 649.55702,55.245044 c -1.43433,-0.90269 -2.31477,-3.14198 -2.20166,-5.59969 0.0721,-1.56615 0.44987,-2.51877 1.3457,-3.3931 1.20891,-1.17992 1.89179,-1.35319 2.70176,-0.68554 1.05081,0.86617 1.75701,2.94238 1.75701,5.16554 0,2.0793 -0.55521,3.68254 -1.51097,4.36311 -0.5864,0.41754 -1.55597,0.48693 -2.09184,0.14968 z"
     id="path7" />
  <path
     style="fill:#3a2240;fill-opacity:1;stroke-width:0.135737"
     d="m 604.50652,123.89294 c -0.63408,-0.11024 -1.0739,-0.57295 -0.94545,-0.99465 0.42256,-1.38713 1.60475,-2.84357 5.68785,-7.00729 3.72139,-3.79488 5.6861,-5.894 7.80576,-8.33976 7.44027,-8.584926 14.83461,-19.316046 18.90366,-27.434136 0.33429,-0.66694 1.06642,-2.25101 1.62696,-3.52015 1.13604,-2.57214 1.80327,-3.78477 2.51751,-4.57535 0.8199,-0.90754 1.66077,-1.16095 2.32003,-0.69919 0.28524,0.19979 0.30968,0.29457 0.23648,0.91729 -0.20224,1.72081 -1.32225,4.58872 -3.42444,8.7687 -3.38623,6.73315 -9.01845,16.02445 -12.5479,20.699906 -6.0489,8.01293 -16.17596,18.82051 -20.28365,21.64668 -0.77843,0.53557 -1.20865,0.65759 -1.89681,0.53795 z"
     id="path8" />
  <path
     style="fill:#3a2240;fill-opacity:1;stroke-width:0.135737"
     d="m 669.89114,56.107194 c -1.6183,-0.36773 -3.24365,-1.49172 -3.83592,-2.65268 -0.33757,-0.66168 -0.34463,-1.10239 -0.024,-1.49833 0.36661,-0.45275 1.04524,-0.27211 2.16275,0.57566 1.27239,0.96527 2.21503,1.37618 3.29038,1.43431 1.27821,0.0691 1.95722,-0.30395 2.5355,-1.39302 1.0525,-1.98214 2.34459,-1.89599 2.18073,0.1454 -0.12058,1.50219 -1.03797,2.63666 -2.56661,3.17393 -1.0312,0.36243 -2.67722,0.45687 -3.74282,0.21473 z"
     id="path9" />
  <path
     style="fill:#f6656a;fill-opacity:1;stroke-width:0.125203"
     d="m 680.25311,159.72342 c -3.24497,-0.6317 -6.12154,-2.88745 -7.58121,-5.94496 -0.55114,-1.15445 -1.28237,-3.49767 -1.67021,-5.35216 -0.80547,-3.85124 -0.90589,-7.37558 -0.32424,-11.37917 0.20376,-1.40242 0.39972,-2.58071 0.43549,-2.61845 0.11253,-0.11866 5.30443,0.645 6.56883,0.96619 1.61522,0.41031 2.23402,0.70991 2.3999,1.16198 0.1806,0.49214 -0.12022,2.08768 -0.68373,3.62697 -0.97944,2.6752 -1.45846,5.84153 -1.3637,9.01402 0.0734,2.45082 0.30613,3.60552 1.0138,5.02608 0.82236,1.6508 1.97303,2.43218 3.58176,2.43218 0.94808,0 1.73719,-0.22656 3.18582,-0.91462 1.24078,-0.58934 1.93451,-0.66423 1.93451,-0.20884 0,0.39627 -0.72706,1.50498 -1.56575,2.38767 -1.50643,1.58543 -3.67037,2.24325 -5.93127,1.80311 z"
     id="path10" />
  <path
     style="fill:#f6656a;fill-opacity:1;stroke-width:0.138064"
     d="m 626.54142,160.44008 c -0.35728,-0.10919 -0.72615,-0.28758 -0.81975,-0.39643 -0.48543,-0.56447 0.36786,-1.05034 2.96776,-1.68986 1.94513,-0.47845 2.85838,-0.89848 3.81285,-1.75358 0.97487,-0.87341 1.68054,-1.97343 2.1194,-3.30385 0.77684,-2.35495 0.82294,-2.88694 0.89078,-10.28396 l 0.0627,-6.85185 3.81878,-1.04694 c 5.1605,-1.41477 7.1203,-1.86761 8.4768,-1.95868 1.08059,-0.0724 1.15382,-0.06 1.3123,0.22587 0.18513,0.3338 -0.0418,1.1638 -1.14848,4.20401 -2.56944,7.0573 -7.29424,14.63892 -11.9193,19.12623 -1.64405,1.59513 -2.94237,2.54893 -4.48575,3.29542 -1.16728,0.56461 -1.2046,0.57259 -2.81087,0.60217 -1.11714,0.0205 -1.83169,-0.0324 -2.27743,-0.16855 z"
     id="path11" />
  <path
     style="fill:#f6656a;fill-opacity:1;stroke-width:0.0956661"
     d="m 685.5066,36.998272 c -0.35094,-0.406764 -0.44857,-0.796953 -0.44857,-1.792668 0,-1.657829 0.37111,-2.377534 1.33216,-2.583462 0.6437,-0.137927 1.41545,-0.492562 2.98878,-1.373414 0.66597,-0.372867 1.27149,-0.677934 1.34558,-0.677934 0.2787,0 0.27767,0.524516 -0.003,1.184452 -0.35797,0.843721 -1.7434,2.728519 -2.94756,4.009958 -1.16345,1.238107 -1.91243,1.645304 -2.26808,1.233068 z"
     id="path12" />
  <path
     style="font-weight:708;font-size:144px;font-family:'Cooper Hewitt';-inkscape-font-specification:'Cooper Hewitt weight=708';letter-spacing:3.75px;fill:#3a2240;stroke-width:0.75"
     d="m 19.728,128.92066 v -5.76 c 0,-25.344008 5.184,-38.304008 21.168,-38.304008 h 1.296 c 13.68,0 18.144,9.36 18.144,27.216008 h 19.44 v -4.896 c 0,-27.360008 -12.96,-39.168008 -38.736,-39.168008 -28.08,0 -41.04,16.272 -41.04,55.152008 v 5.76 c 0,38.88 12.96,55.152 41.04,55.152 25.776,0 38.736,-11.808 38.736,-38.304 v -1.44 h -19.44 c 0,14.112 -5.04,22.896 -18.144,22.896 h -1.296 c -16.128,0 -21.168,-12.96 -21.168,-38.304 z M 118.37391,69.880652 H 99.077912 V 182.20066 h 19.295998 z m 41.33411,70.416008 h 16.416 l 16.128,41.904 h 20.88 l -18.288,-44.928 c 10.224,-4.032 18.288,-12.816 18.288,-30.816 v -2.88 c 0,-28.512008 -20.016,-33.696008 -37.584,-33.696008 h -35.136 V 182.20066 h 19.296 z m 0,-16.848 V 86.728652 h 16.56 c 7.488,0 17.28,2.736 17.28,17.568008 v 1.584 c 0,14.832 -9.792,17.568 -17.28,17.568 z m 91.73401,16.848 h 16.416 l 16.128,41.904 h 20.88 l -18.288,-44.928 c 10.224,-4.032 18.288,-12.816 18.288,-30.816 v -2.88 c 0,-28.512008 -20.016,-33.696008 -37.584,-33.696008 h -35.136 V 182.20066 h 19.296 z m 0,-16.848 V 86.728652 h 16.56 c 7.488,0 17.28,2.736 17.28,17.568008 v 1.584 c 0,14.832 -9.792,17.568 -17.28,17.568 z m 92.45401,-53.568008 h -19.296 V 182.20066 h 19.296 z m 101.6701,0 h -18.288 v 53.712008 l 0.576,23.76 -41.472,-77.472008 h -20.448 V 182.20066 h 18.288 v -53.712 l -0.576,-23.76 41.472,77.472 h 20.448 z m 44.6459,-0.576 -29.52,112.896008 h 20.88 l 6.192,-25.632 h 31.68 l 6.192,25.632 h 20.736 l -29.52,-112.896008 z m 13.392,22.032 11.664,48.384008 h -23.472 z"
     id="text2"
     aria-label="CIRRINA" />
</svg>
