<?xml version="1.0" encoding="UTF-8" standalone="no"?>
<svg
   version="1.0"
   width="581.56464pt"
   height="131.73016pt"
   viewBox="0 0 581.56464 131.73017"
   preserveAspectRatio="xMidYMid"
   id="svg4"
   sodipodi:docname="logo.svg"
   inkscape:version="1.4.2 (ebf0e940d0, 2025-05-08)"
   inkscape:export-filename="logo.png"
   inkscape:export-xdpi="96"
   inkscape:export-ydpi="96"
   xmlns:inkscape="http://www.inkscape.org/namespaces/inkscape"
   xmlns:sodipodi="http://sodipodi.sourceforge.net/DTD/sodipodi-0.dtd"
   xmlns="http://www.w3.org/2000/svg"
   xmlns:svg="http://www.w3.org/2000/svg">
  <defs
     id="defs4">
    <rect
       x="290.83917"
       y="104.06504"
       width="18.641216"
       height="13.030753"
       id="rect1" />
  </defs>
  <sodipodi:namedview
     id="namedview4"
     pagecolor="#ffffff"
     bordercolor="#000000"
     borderopacity="0.25"
     inkscape:showpageshadow="2"
     inkscape:pageopacity="0.0"
     inkscape:pagecheckerboard="0"
     inkscape:deskcolor="#d1d1d1"
     inkscape:document-units="pt"
     inkscape:zoom="2.25"
     inkscape:cx="350.44444"
     inkscape:cy="60"
     inkscape:window-width="3840"
     inkscape:window-height="2095"
     inkscape:window-x="0"
     inkscape:window-y="0"
     inkscape:window-maximized="1"
     inkscape:current-layer="svg4" />
  <metadata
     id="metadata1">
Created by potrace 1.10, written by Peter Selinger 2001-2011
</metadata>
  <g
     id="g36"
     transform="matrix(0.68742184,0,0,0.70861648,454.74414,0)">
    <path
       style="display:inline;fill:#f6656a;fill-opacity:1;stroke-width:0.116339"
       d="m 145.82827,125.2846 c -3.744,-0.61756 -7.68583,-2.14281 -14.57477,-5.63958 -8.28994,-4.20789 -15.62571,-7.26523 -19.78533,-8.24599 -2.91143,-0.68644 -6.17972,-0.87048 -13.98242,-0.78737 -6.08575,0.0649 -8.19375,0.18773 -11.60829,0.67681 -5.25379,0.75251 -11.05512,2.44668 -20.5071,5.98872 -10.409387,3.90084 -13.077303,4.78321 -17.097404,5.65475 -2.91409,0.63174 -4.62235,0.80994 -6.989138,0.72905 -3.138175,-0.10726 -4.932618,-0.58004 -6.989141,-1.8414 -2.399022,-1.47143 -4.517548,-3.65501 -5.564907,-5.73581 -0.404351,-0.80333 -0.442162,-0.95911 -0.440832,-1.8161 0.0012,-0.72877 0.05381,-1.02864 0.236695,-1.34733 0.500628,-0.87238 1.174553,-0.47941 2.026759,1.18184 0.876897,1.70938 1.549229,2.04017 4.146616,2.04017 1.721116,0 2.470078,-0.14062 3.46569,-0.65073 0.623162,-0.31925 1.503704,-1.14831 1.884695,-1.77446 0.683085,-1.12265 1.091922,-3.76065 0.881014,-5.6847 C 40.449926,103.64918 37.624191,100.58496 27.82539,93.821487 20.932506,89.063755 16.69704,85.649141 12.909502,81.796364 7.5557077,76.350325 4.4946987,70.951091 3.8419857,65.802417 c -0.375078,-2.958664 0.652881,-5.906994 2.985672,-8.563323 0.930169,-1.059189 3.4271863,-3.400444 3.4741773,-3.257478 0.02056,0.06249 -0.105177,1.052036 -0.279394,2.198903 -0.5729133,3.771463 -0.3613293,6.109401 0.760812,8.406715 1.184495,2.42496 3.52154,4.555155 6.725561,6.130272 4.084318,2.007886 7.881587,2.731763 14.302119,2.726434 9.134375,-0.0077 16.343508,-1.670561 23.922817,-5.51837 7.410926,-3.762332 13.47187,-9.177705 15.9847,-14.282071 0.82405,-1.673921 1.09417,-2.819304 1.34136,-5.687758 0.14084,-1.634273 0.0919,-10.266198 -0.0828,-14.601818 l -0.0739,-1.83147 -2.90004,-0.06027 c -2.568254,-0.05334 -3.038834,-0.09385 -4.113046,-0.353855 -3.241393,-0.784562 -5.459072,-1.946652 -7.282142,-3.815915 -0.976977,-1.001735 -1.35552,-1.602884 -1.225579,-1.946297 0.111678,-0.29514 1.148567,-0.214564 2.908718,0.226036 2.728341,0.682954 4.327932,0.850526 6.228511,0.652477 1.797709,-0.18733 2.960468,-0.59977 3.683548,-1.306594 L 70.7699,24.363954 70.7217,23.595782 C 70.6882,23.061489 70.60118,22.72914 70.43602,22.504165 70.21758,22.206612 70.07649,22.135853 69.24023,21.904466 68.729513,21.763157 68.589175,21.080676 68.756672,19.552979 69.52799,12.518153 73.8852,6.670753 80.28111,4.0871396 85.80343,1.8564097 92.19302,2.1275799 98.26629,4.8504197 c 5.35625,2.4013773 9.8664,7.3258633 12.59946,13.7569413 1.10493,2.599994 2.10001,6.012815 2.4406,8.370566 0.40934,2.833645 0.75406,9.313976 0.75755,14.24115 0.004,6.076013 0.2873,10.109161 0.87544,12.476522 0.34032,1.369888 1.09167,3.043834 1.85943,4.142685 0.75732,1.083905 2.90158,3.207867 4.35862,4.317358 7.76821,5.915272 23.11185,10.224923 36.41225,10.227285 5.05081,6.56e-4 8.89732,-0.512885 11.9888,-1.601359 3.21299,-1.131274 5.13254,-2.724099 6.42119,-5.32825 0.86165,-1.741239 1.09059,-2.926172 1.01703,-5.263915 -0.0323,-1.027099 -0.0135,-2.113323 0.0418,-2.413842 0.32132,-1.744334 1.57914,-1.097452 3.22758,1.65993 1.26405,2.114388 1.75485,4.329447 1.49334,6.739623 -0.55695,5.133141 -3.79293,10.690994 -9.59917,16.486712 -3.22933,3.223474 -6.56527,5.916395 -10.79649,8.715459 -5.76933,3.816554 -6.90964,4.596324 -8.53358,5.835425 -2.38123,1.81697 -3.59147,2.8653 -5.20907,4.51218 -2.03359,2.07043 -2.94443,3.58061 -2.94443,4.88189 0,0.39334 -0.22741,0.80721 -0.44353,0.80721 -0.0442,0 -0.26849,-0.12958 -0.49832,-0.28796 -0.55919,-0.38537 -1.61944,-1.74046 -3.00143,-3.83611 -2.81009,-4.26117 -4.73313,-6.22631 -15.92669,-16.27529 -4.10245,-3.682972 -6.45865,-6.209088 -9.05734,-9.710535 -2.81812,-3.797099 -4.7514,-7.221918 -6.24973,-11.071535 -0.9642,-2.477324 -1.55621,-3.648548 -2.22598,-4.404055 -0.4421,-0.498689 -0.57529,-0.582232 -0.88018,-0.552111 -0.53944,0.0532 -0.76317,0.596572 -0.7634,1.853803 -2.5e-4,1.439151 0.58012,3.412807 1.92862,6.558548 3.29398,7.684058 6.94516,12.139326 20.94575,25.55855 6.80665,6.524015 8.97011,8.943685 12.29258,13.748345 4.44163,6.42307 7.0597,9.04681 9.64457,9.66538 1.76959,0.4235 4.34139,-0.43029 5.56962,-1.84897 1.06381,-1.22879 1.46851,-2.28145 1.59677,-4.15355 0.0523,-0.76413 0.13235,-1.42639 0.17775,-1.47167 0.13781,-0.13742 1.07902,1.0406 1.47709,1.84872 0.36472,0.74047 0.37401,0.79758 0.37198,2.28461 -0.002,1.40532 -0.0302,1.60542 -0.36059,2.54704 -1.28139,3.65267 -4.22964,6.39811 -7.78169,7.24641 -1.38889,0.3317 -4.17942,0.41593 -5.66446,0.17097 z M 50.005801,105.56673 c 2.445301,-1.2514 10.916428,-10.181695 16.605606,-17.505699 5.472573,-7.045179 13.279773,-20.98001 14.528423,-25.931384 0.42685,-1.692583 0.28493,-2.106511 -0.72229,-2.106511 -0.50612,0 -0.70524,0.06215 -1.04837,0.327649 -0.75533,0.584269 -1.54685,1.943236 -2.6752,4.593025 -3.11526,7.315904 -9.692423,17.407717 -16.912949,25.950754 -2.008083,2.375886 -3.567212,4.073789 -6.885337,7.498186 -1.654601,1.7076 -3.358185,3.5599 -3.785743,4.11622 -0.754349,0.98152 -1.353404,2.06897 -1.355707,2.461 -0.0022,0.36753 0.40788,0.72189 0.933452,0.80669 0.564106,0.091 0.805081,0.0525 1.318115,-0.20993 z M 106.66983,47.307256 c 0.96827,-0.1541 2.0922,-0.710295 2.53416,-1.254079 0.69381,-0.853635 0.95749,-2.581735 0.46943,-3.0767 -0.51237,-0.519614 -1.22897,-0.157986 -1.83423,0.92564 -0.52978,0.948472 -0.86962,1.207029 -1.67549,1.274806 -0.82312,0.06923 -1.74993,-0.226941 -2.53164,-0.809018 -1.28121,-0.954 -1.46574,-1.061991 -1.92037,-1.123832 -0.5642,-0.07675 -0.78451,0.07657 -0.88417,0.615234 -0.1056,0.570904 0.14453,1.195799 0.73484,1.835834 0.66363,0.719525 1.51201,1.210328 2.58459,1.495272 0.97865,0.25998 1.47815,0.283101 2.52288,0.116843 z M 88.82214,46.424677 c 0.5914,-0.407013 0.81416,-0.69689 1.11928,-1.456491 0.22756,-0.566516 0.25929,-0.856729 0.26261,-2.401766 0.003,-1.497741 -0.0341,-1.878675 -0.25268,-2.578293 -0.65718,-2.103659 -1.83583,-2.917709 -2.99329,-2.067369 -1.32351,0.97232 -1.89103,2.169483 -1.89103,3.989017 0,2.01272 0.78288,3.905902 1.90121,4.597539 0.52211,0.322908 1.31606,0.287527 1.8539,-0.08261 z"
       id="path5" />
    <path
       style="display:inline;fill:#3a2240;fill-opacity:1;stroke-width:0.115699"
       d="m 66.434414,140.59595 c -1.781395,-0.25432 -3.192174,-0.97888 -4.580051,-2.35228 -1.413232,-1.39848 -2.219697,-3.03731 -2.46746,-5.01415 -0.27302,-2.17832 0.542866,-4.1946 1.908463,-4.71635 1.048411,-0.40057 1.967372,0.24095 2.739132,1.91215 0.250945,0.54343 0.559445,1.13299 0.685559,1.31018 0.283663,0.39854 1.007923,0.77982 1.481327,0.77982 0.863828,0 1.870855,-0.76867 2.622955,-2.00212 0.776551,-1.27354 1.335431,-5.16904 1.356451,-9.45458 0.0122,-2.49539 -0.0591,-3.00883 -0.41816,-3.00883 -0.0732,0 -1.671971,0.65777 -3.55288,1.46171 -7.959645,3.40213 -12.46985,4.86569 -17.936801,5.82049 -4.675256,0.81652 -9.532137,0.82154 -12.990201,0.0134 -5.18001,-1.21055 -8.716081,-4.1629 -10.222013,-8.53461 -0.267647,-0.77697 -0.311485,-1.09419 -0.316546,-2.29056 -0.0078,-1.84288 0.343823,-3.29984 1.227953,-5.08814 0.825758,-1.67022 1.989958,-2.95226 3.185524,-3.50796 0.579476,-0.26934 0.814831,-0.30964 1.822156,-0.31198 1.023257,-0.003 1.199641,0.028 1.528608,0.26268 0.766588,0.54703 0.701594,1.54262 -0.197939,3.03207 -0.683625,1.13193 -0.686496,1.59313 -0.01546,2.48232 0.618539,0.81961 1.556337,1.56887 1.962934,1.5683 0.169242,-2.4e-4 0.488675,-0.1108 0.709848,-0.24569 0.607948,-0.37078 1.902661,-1.71547 2.185088,-2.26945 0.356457,-0.6992 0.431537,-1.66436 0.199852,-2.56912 C 36.538121,104.692 33.600907,101.97671 23.576738,95.138056 18.681258,91.798254 14.83882,88.874742 11.604022,86.028616 6.4409497,81.485906 2.1707527,75.04067 0.68418873,69.546727 0.17744173,67.673925 -4.1527219e-4,66.384141 7.2781286e-7,64.58516 7.0372781e-4,61.60754 0.69998173,59.225234 2.2510777,56.916327 c 0.717937,-1.068698 2.544451,-2.831967 3.788691,-3.657504 3.366302,-2.2335 8.0803263,-3.495457 10.2730933,-2.750134 0.837493,0.284664 1.306717,0.834125 1.306717,1.530168 0,1.017461 -0.578929,1.640315 -1.810679,1.948068 -1.888859,0.471939 -3.142522,1.829692 -3.575251,3.872114 -0.570366,2.692048 0.450745,5.593252 2.692289,7.649395 2.307765,2.116882 5.385987,3.559513 8.997823,4.21689 2.263126,0.411903 3.152232,0.472398 6.824711,0.464367 7.248831,-0.01586 12.765252,-0.996455 18.681203,-3.320747 7.138645,-2.804676 14.498036,-8.351716 17.844785,-13.45026 2.19348,-3.341624 2.97237,-6.677627 2.45128,-10.498907 -0.54491,-3.995925 -1.078793,-6.260034 -1.630907,-6.916477 -0.420254,-0.499663 -0.545793,-0.546802 -1.83904,-0.690486 -2.630146,-0.292228 -7.066326,-2.320077 -9.452794,-4.321032 -1.610151,-1.350037 -3.417399,-4.352275 -4.507981,-7.488727 -0.817178,-2.350162 -1.031507,-4.67296 -0.522963,-5.667567 0.36872,-0.72113 0.548778,-0.800165 1.15201,-0.505662 0.833693,0.407022 1.9031,1.285326 3.609083,2.964131 2.658671,2.61632 3.770741,3.209098 6.020343,3.209098 2.232353,0 2.275265,-0.06022 2.391499,-3.356002 0.115307,-3.269315 0.49555,-4.919252 1.73353,-7.522077 3.95914,-8.3240179 13.69656,-13.53829749 23.32805,-12.49190889 5.22367,0.5675123 10.76152,2.91378819 15.01616,6.36203589 2.27442,1.843346 4.84075,4.776835 6.32443,7.229254 0.92088,1.522137 1.33882,2.401747 2.33692,4.918281 1.32633,3.344149 1.97015,4.437357 2.79891,4.752593 0.82708,0.314591 2.02692,-0.01201 3.44392,-0.937459 1.55113,-1.013032 3.06473,-2.779386 3.07089,-3.583687 0.007,-0.923179 1.38486,-2.545933 2.16162,-2.545933 0.56021,0 1.81594,1.545324 2.35284,2.895439 0.48565,1.221267 0.25315,3.129076 -0.75654,6.207716 -0.89788,2.737741 -2.06768,4.829699 -3.57188,6.387592 -1.08623,1.124999 -1.94308,1.723708 -3.54577,2.477561 -2.30232,1.082937 -2.42537,1.376918 -2.82049,6.73882 -0.59299,8.046482 -0.23184,11.030075 1.688,13.945543 0.88919,1.350311 2.91512,3.457283 4.40207,4.578138 9.38268,7.072617 31.04874,11.619142 42.59711,8.938814 2.94816,-0.684258 4.95862,-1.79799 6.33883,-3.511512 0.65539,-0.813651 1.71393,-2.833066 1.99629,-3.808402 0.25516,-0.881366 0.13088,-1.479909 -0.5342,-2.572808 -0.96936,-1.592915 -2.09403,-2.645505 -2.97197,-2.78151 -1.02738,-0.159152 -2.33982,-1.21352 -2.51739,-2.022395 -0.21297,-0.970054 1.34421,-1.712883 3.59062,-1.712851 2.9266,4.5e-5 6.42141,1.204965 8.61691,2.970881 3.17358,2.552616 4.81509,6.739805 4.39994,11.223487 -0.5945,6.420746 -3.85156,12.064454 -11.00846,19.074993 -4.54405,4.451125 -8.04914,7.152767 -14.38541,11.087932 -7.35076,4.56521 -11.31381,8.30947 -12.21028,11.53616 -0.22578,0.81266 -0.17169,2.25638 0.11488,3.06669 0.49224,1.39187 1.64144,2.75848 2.74444,3.26367 0.55963,0.25632 0.75803,0.28753 1.53999,0.24225 0.70051,-0.0406 1.0126,-0.11941 1.42134,-0.35906 1.51859,-0.89034 2.05138,-2.71476 1.30763,-4.47768 -0.69994,-1.65914 -0.78717,-1.93184 -0.79587,-2.48808 -0.0113,-0.72177 0.20863,-1.18506 0.73041,-1.53874 0.35501,-0.24064 0.51303,-0.26967 1.28311,-0.23574 1.32066,0.0582 2.36542,0.62169 3.82212,2.06155 1.54385,1.52601 2.38986,2.8844 3.27741,5.26229 0.59747,1.60076 0.6487,2.43082 0.24725,4.00672 -0.56151,2.20417 -1.75624,4.20865 -4.0749,6.83664 -1.66658,1.88894 -3.73069,3.56813 -4.78633,3.89376 -1.18264,0.36481 -6.41832,0.48926 -8.56323,0.20354 -4.34829,-0.5792 -8.98225,-2.30229 -17.06859,-6.34668 -6.34761,-3.17478 -10.92906,-5.14847 -11.57465,-4.98637 -0.6938,0.17422 -1.66021,1.88082 -2.44908,4.32491 -0.96987,3.00484 -1.25173,4.53618 -1.05814,5.74859 0.32727,2.04955 1.80417,3.79658 2.77163,3.2786 0.50274,-0.2692 0.69527,-0.99095 0.68737,-2.57696 -0.0108,-2.17003 0.31256,-2.71149 1.55767,-2.60819 2.54867,0.21145 4.69664,3.32636 4.69664,6.81091 0,1.36265 -0.25945,2.30748 -0.90624,3.30017 -1.48544,2.27987 -5.34366,4.48851 -8.12374,4.65043 -5.4886,0.31969 -11.94794,-5.66442 -13.28141,-12.30426 -0.58289,-2.90244 -0.62561,-10.89879 -0.0681,-12.75199 0.14253,-0.47379 0.14075,-0.56302 -0.0146,-0.73474 -0.37477,-0.4143 -1.51636,-0.50822 -6.17717,-0.50822 -3.91774,0 -4.53221,0.0245 -5.10852,0.20284 -0.83391,0.2582 -1.17917,0.66165 -1.49179,1.74324 -1.17603,4.06866 -2.39263,7.25676 -4.05311,10.62114 -1.47547,2.9895 -2.39892,4.61 -3.98336,6.99018 -2.38676,3.58541 -4.17409,5.49935 -6.02749,6.45446 -1.29874,0.66928 -3.11439,1.28729 -4.480857,1.52522 -1.129468,0.19666 -1.392397,0.2012 -2.499941,0.0431 z m 3.392546,-3.37301 c 1.28168,-0.63387 2.47991,-1.58251 4.06757,-3.22026 4.07263,-4.20108 7.9302,-10.93009 10.04099,-17.51517 0.56492,-1.76239 0.61022,-2.05722 0.35529,-2.31227 -0.46788,-0.46808 -2.81622,-0.0187 -8.57442,1.64082 l -2.68941,0.77508 -0.004,3.1306 c -0.005,4.20352 -0.17821,8.34521 -0.40065,9.58329 -0.39848,2.21786 -0.99988,3.57619 -2.03661,4.59994 -0.81706,0.80682 -1.83936,1.31067 -3.415164,1.68316 -1.866727,0.44128 -2.47226,0.75248 -2.47226,1.27061 0,0.60014 0.920348,0.87011 2.840219,0.83314 1.358483,-0.0262 1.417265,-0.0382 2.288215,-0.46894 z m 45.24718,-1.41074 c 1.29187,-0.27255 2.10345,-0.73945 3.10084,-1.78388 0.92575,-0.9694 1.38993,-1.71228 1.33055,-2.12944 -0.0291,-0.2048 -0.12449,-0.25797 -0.51342,-0.2864 -0.367,-0.0268 -0.74843,0.0869 -1.64719,0.49099 -1.3462,0.60531 -1.89338,0.75224 -2.81588,0.7562 -1.40854,0.006 -2.73643,-0.91366 -3.39402,-2.35066 -0.65216,-1.42513 -0.789,-2.257 -0.79313,-4.82142 -0.005,-3.13218 0.28815,-4.77189 1.43223,-8.01003 0.3667,-1.03787 0.48431,-1.54899 0.50147,-2.17928 0.0201,-0.73804 -0.006,-0.84624 -0.24856,-1.04369 -0.56612,-0.46022 -2.46121,-0.89474 -5.75167,-1.31879 -1.26821,-0.16344 -2.41671,-0.32182 -2.55222,-0.35197 -0.22563,-0.0502 -0.25699,0.0158 -0.37206,0.78292 -0.0691,0.46075 -0.23191,1.54075 -0.36176,2.4 -0.84459,5.58887 0.55503,12.97527 3.06733,16.18751 2.15983,2.76159 5.95981,4.30304 9.01749,3.65794 z m 35.05562,-11.10562 c 2.37188,-0.38487 4.01622,-1.15333 5.68853,-2.65842 1.37762,-1.23987 2.88728,-3.74849 3.31596,-5.51018 0.25524,-1.04886 0.24096,-2.68475 -0.0311,-3.55913 -0.22078,-0.70966 -0.44852,-1.09347 -1.16256,-1.95931 -0.69762,-0.8459 -0.93499,-0.6013 -0.93499,0.96349 0,1.68254 -0.55131,3.03118 -1.71837,4.20355 -1.71125,1.71902 -4.10116,2.29904 -6.10934,1.48268 -2.15899,-0.87766 -4.77136,-3.56415 -8.18236,-8.41451 -3.89589,-5.53987 -6.09131,-8.00753 -12.43893,-13.981435 -6.61775,-6.228129 -12.74507,-12.453103 -15.28466,-15.528254 -3.34735,-4.053268 -6.31065,-9.552141 -7.73814,-14.359358 -0.52957,-1.783391 -0.44642,-3.646269 0.17338,-3.884211 0.6757,-0.259407 1.82402,1.459889 2.94528,4.409784 1.47447,3.879167 3.48926,7.439569 6.42043,11.345719 2.6544,3.537306 5.1477,6.171468 9.3129,9.839021 10.38795,9.146794 12.87888,11.655594 15.68139,15.793894 1.49056,2.20102 1.78781,2.59413 2.55192,3.3749 1.06801,1.09131 1.51986,1.01151 1.67722,-0.29621 0.16772,-1.39375 1.14319,-2.85248 3.29789,-4.93169 2.81512,-2.7165 6.07621,-5.161985 11.26216,-8.445526 3.92218,-2.48336 6.53135,-4.361452 9.54303,-6.869128 1.93866,-1.614216 5.79539,-5.513058 7.22909,-7.308023 4.86439,-6.090102 6.80014,-11.987142 5.4121,-16.487302 -0.48956,-1.587237 -1.63437,-3.504472 -2.68762,-4.50103 -0.56938,-0.538738 -0.69157,-0.604062 -1.07044,-0.572269 -0.34906,0.02929 -0.47106,0.110351 -0.66368,0.440926 -0.21874,0.37543 -0.23363,0.566879 -0.20369,2.619007 0.0361,2.470821 -0.0653,3.200676 -0.65686,4.731394 -0.96465,2.495925 -3.01992,4.510027 -5.72797,5.613259 -1.92316,0.783471 -4.47705,1.375 -7.58809,1.757559 -1.63341,0.200849 -9.02345,0.199039 -11.04678,-0.0026 -5.61184,-0.559571 -10.27134,-1.432726 -15.27969,-2.863279 -7.36075,-2.102482 -13.16117,-4.93363 -16.87743,-8.237765 -3.78174,-3.362367 -4.88624,-5.697087 -5.37933,-11.370988 -0.0691,-0.795601 -0.17337,-4.310725 -0.23162,-7.811387 -0.10092,-6.064582 -0.19377,-8.380234 -0.46636,-11.630287 -0.36805,-4.388408 -1.40174,-8.198431 -3.28096,-12.09318 C 106.55987,11.125113 101.82158,6.73865 95.40969,4.6103973 88.37708,2.2761163 81.57655,3.0061005 75.97661,6.696387 c -1.56782,1.033177 -3.78934,3.254724 -4.83256,4.832634 -1.81366,2.743203 -2.945182,5.995731 -3.15923,9.081108 -0.09274,1.336704 0.08235,1.918004 0.610013,2.025319 0.712687,0.144946 0.907457,0.249998 1.160777,0.626048 0.35841,0.532087 0.35824,1.340007 -4.1e-4,1.873696 -0.62525,0.930415 -2.667393,1.537041 -5.172389,1.536465 -1.732278,-3.96e-4 -2.526472,-0.112755 -4.938038,-0.698606 -1.14636,-0.278494 -1.844044,-0.388219 -2.31346,-0.363831 -0.657411,0.03414 -0.672866,0.04271 -0.706913,0.39171 -0.02684,0.275289 0.08669,0.518494 0.497001,1.064573 1.629504,2.168681 4.666008,3.882485 8.271123,4.668219 0.880074,0.191813 1.66557,0.251568 3.944686,0.30008 l 2.84579,0.06055 0.0754,1.693157 c 0.0415,0.931241 0.10868,4.192803 0.14929,7.247927 0.11637,8.752641 -0.15258,10.664026 -1.92434,13.675644 -1.780629,3.026702 -5.139119,6.493487 -8.87736,9.163622 -4.557489,3.255296 -10.874623,6.249112 -16.147794,7.652758 -7.680945,2.04457 -17.722074,2.36155 -23.954359,0.7562 -3.613132,-0.930698 -7.00752,-2.72152 -9.100351,-4.801194 -1.969389,-1.957007 -2.9335723,-3.92234 -3.2252393,-6.574137 -0.144331,-1.312221 -0.07228,-2.285165 0.391657,-5.288964 0.157061,-1.016903 0.264165,-1.870327 0.238008,-1.896499 -0.06038,-0.06042 -2.281084,2.005029 -3.36093,3.125922 -1.562534,1.621925 -2.561026,3.265629 -3.12143,5.138444 -0.268407,0.896993 -0.310431,1.245184 -0.313574,2.598085 -0.0057,2.464728 0.589253,4.694416 2.05354,7.695663 1.522972,3.121535 3.461341,5.74725 6.6535173,9.012853 3.857741,3.946485 8.130132,7.4009 14.69162,11.878821 8.440251,5.760076 11.313704,8.301116 12.854884,11.367726 0.710132,1.413 0.932301,2.41139 0.933227,4.19374 0.0019,3.5852 -1.112822,5.57392 -3.608881,6.43862 -0.645211,0.22352 -0.998021,0.26139 -2.486971,0.26693 -2.643945,0.01 -3.192657,-0.26945 -4.164484,-2.11965 -0.95514,-1.81845 -2.001882,-2.01721 -2.377338,-0.45144 -0.401597,1.67478 0.557093,3.67354 2.845987,5.93355 3.141229,3.1016 6.257471,4.33965 10.923077,4.33965 4.851407,0 9.753025,-1.2609 20.82348,-5.35671 11.441684,-4.23315 16.606674,-5.81662 21.746534,-6.66696 4.40255,-0.72836 7.69558,-0.9349 14.92183,-0.93593 7.10099,-8.5e-4 9.58715,0.19205 12.6662,0.98354 4.08218,1.04935 11.02236,3.91416 18.24049,7.52941 7.74536,3.8793 11.68361,5.39779 15.56944,6.00312 1.35983,0.21183 3.55448,0.21568 4.83154,0.009 z M 118.37634,31.581718 c 1.83869,-1.228373 4.93726,-4.691833 5.40021,-6.036127 0.19743,-0.573285 0.0966,-1.116716 -0.20713,-1.116716 -0.12081,0 -1.06664,0.433975 -2.10183,0.964387 -1.75261,0.897991 -3.30703,1.465823 -4.01267,1.465823 -0.40858,0 -1.00282,0.679532 -1.21279,1.386854 -0.25852,0.870962 -0.24019,2.356595 0.0366,2.966405 0.44468,0.979664 1.02985,1.082707 2.0976,0.369374 z"
       id="path6" />
    <path
       style="display:inline;fill:#3a2240;fill-opacity:1;stroke-width:0.115699"
       d="m 86.49797,46.670669 c -1.22231,-0.769601 -1.97261,-2.678735 -1.87623,-4.774088 0.0614,-1.33524 0.38338,-2.147402 1.14679,-2.892827 1.03022,-1.005951 1.61216,-1.153676 2.3024,-0.584463 0.89549,0.738461 1.4973,2.50856 1.4973,4.40394 0,1.772733 -0.47314,3.139599 -1.28763,3.719823 -0.49972,0.355984 -1.32597,0.415138 -1.78263,0.127615 z"
       id="path7" />
    <path
       style="fill:#3a2240;fill-opacity:1;stroke-width:0.115699"
       d="m 48.1066,105.19727 c -0.54036,-0.094 -0.915164,-0.48848 -0.805699,-0.848 0.360098,-1.18262 1.36754,-2.42432 4.847096,-5.97416 3.171318,-3.235366 4.845612,-5.024997 6.651959,-7.110159 6.340489,-7.319183 12.641834,-16.468131 16.109414,-23.389308 0.28488,-0.568606 0.90879,-1.919121 1.38648,-3.001145 0.96811,-2.192909 1.53671,-3.226751 2.14538,-3.900772 0.69871,-0.773732 1.41529,-0.98978 1.9771,-0.596101 0.24307,0.170336 0.2639,0.251139 0.20152,0.782051 -0.17235,1.467096 -1.1268,3.912167 -2.91826,7.475862 -2.88569,5.740428 -7.68539,13.661839 -10.693134,17.647952 -5.154783,6.831521 -13.78491,16.04566 -17.285423,18.45514 -0.663368,0.45661 -1.029998,0.56064 -1.616433,0.45864 z"
       id="path8" />
    <path
       style="fill:#3a2240;fill-opacity:1;stroke-width:0.115699"
       d="m 103.82641,47.405703 c -1.37909,-0.313514 -2.76419,-1.271784 -3.26892,-2.26157 -0.28767,-0.564123 -0.29369,-0.93986 -0.0204,-1.277424 0.31242,-0.385993 0.89074,-0.231988 1.84306,0.490789 1.08432,0.822954 1.88762,1.173274 2.80402,1.222836 1.08927,0.05889 1.66791,-0.259138 2.16071,-1.187637 0.89693,-1.689895 1.99803,-1.616445 1.85839,0.123966 -0.10276,1.28071 -0.88454,2.247912 -2.18723,2.705968 -0.87877,0.309 -2.28149,0.38951 -3.18957,0.183072 z"
       id="path9" />
    <path
       style="fill:#f6656a;fill-opacity:1;stroke-width:0.105624"
       d="m 111.30964,135.74047 c -2.60571,-0.55988 -4.91561,-2.55914 -6.08772,-5.26901 -0.44257,-1.02319 -1.02974,-3.09998 -1.34119,-4.74362 -0.64679,-3.41334 -0.72742,-6.53696 -0.26036,-10.08534 0.16362,-1.24296 0.32099,-2.28728 0.34971,-2.32072 0.0903,-0.10517 4.25945,0.57166 5.27478,0.85633 1.29702,0.36366 1.79391,0.6292 1.92712,1.02986 0.14502,0.43618 -0.0965,1.85031 -0.54904,3.21457 -0.78649,2.37103 -1.17114,5.17735 -1.09505,7.98913 0.0589,2.17215 0.24582,3.19556 0.81408,4.4546 0.66037,1.4631 1.58435,2.15563 2.87617,2.15563 0.7613,0 1.39496,-0.20079 2.55821,-0.81062 0.99634,-0.52233 1.55342,-0.58871 1.55342,-0.1851 0,0.35121 -0.58383,1.33387 -1.25731,2.1162 -1.20967,1.40515 -2.94731,1.98819 -4.76282,1.59809 z"
       id="path10" />
    <path
       style="fill:#f6656a;fill-opacity:1;stroke-width:0.10451"
       d="m 66.905043,136.16901 c -0.259077,-0.0863 -0.526596,-0.22723 -0.594486,-0.31322 -0.352056,-0.446 0.26678,-0.82991 2.152262,-1.33521 1.410641,-0.37805 2.072941,-0.70993 2.765141,-1.38557 0.707,-0.6901 1.21877,-1.55926 1.53704,-2.61047 0.56336,-1.86072 0.59679,-2.28105 0.64601,-8.12567 l 0.0455,-5.41387 2.76944,-0.82721 c 3.74248,-1.11785 5.16376,-1.47566 6.14752,-1.54761 0.78367,-0.0573 0.83677,-0.0474 0.95172,0.17847 0.13426,0.26375 -0.0302,0.91955 -0.83292,3.32171 -1.8634,5.5762 -5.28989,11.56666 -8.64407,15.11223 -1.1923,1.26035 -2.13387,2.01398 -3.25315,2.60381 -0.84653,0.44611 -0.87359,0.45242 -2.03848,0.4758 -0.810172,0.0162 -1.328365,-0.0256 -1.651625,-0.13319 z"
       id="path11" />
    <path
       style="fill:#f6656a;fill-opacity:1;stroke-width:0.101457"
       d="m 117.26468,31.093907 c -0.40156,-0.399833 -0.51327,-0.783359 -0.51327,-1.762094 0,-1.629554 0.42464,-2.336986 1.52432,-2.5394 0.73655,-0.135573 1.61963,-0.48416 3.4199,-1.349994 0.76204,-0.366504 1.4549,-0.666371 1.53968,-0.666371 0.3189,0 0.31773,0.515577 -0.003,1.164253 -0.4096,0.829334 -1.99488,2.68198 -3.37274,3.941567 -1.33127,1.216989 -2.1883,1.61724 -2.59525,1.212039 z"
       id="path12" />
  </g>
  <path
     style="font-weight:600;font-size:150px;font-family:Aileron;-inkscape-font-specification:'Aileron Semi-Bold';letter-spacing:0px;fill:#3a2240;stroke-width:0.75"
     d="m 49.5,24.030157 c -29.1,0 -49.5,21.75 -49.5,54.3 0,31.500003 18.15,53.400003 47.7,53.400003 27,0 42.15,-15.45 44.25,-35.700003 l 0.15,-1.5 H 75.75 l -0.3,1.5 c -2.85,13.950003 -11.4,23.100003 -27,23.100003 -18.3,0 -30.6,-15.9 -30.6,-41.550003 0,-24.45 12.15,-40.95 31.35,-40.95 15.6,0 24.15,8.85 27,22.8 l 0.3,1.5 h 16.35 l -0.15,-1.5 c -2.1,-20.4 -16.2,-35.4 -43.2,-35.4 z m 67.95003,-1.8 c -5.55,0 -9.6,4.05 -9.6,9.45 0,5.55 4.05,9.6 9.6,9.6 5.55,0 9.75,-4.05 9.75,-9.6 0,-5.4 -4.2,-9.45 -9.75,-9.45 z m 8.25,107.400003 V 49.980157 h -16.5 v 79.650003 z m 56.69992,-81.600003 c -4.05,0 -8.7,1.65 -12.3,4.5 l -6.75,10.95 v -13.5 h -16.5 v 79.650003 h 16.5 V 88.230157 c 0,-19.65 9.45,-27.45 24.6,-26.4 v -12.9 c -1.65,-0.6 -3.3,-0.9 -5.55,-0.9 z m 52.9501,0 c -4.05,0 -8.7,1.65 -12.3,4.5 l -6.75,10.95 v -13.5 h -16.5 v 79.650003 h 16.5 V 88.230157 c 0,-19.65 9.45,-27.45 24.6,-26.4 v -12.9 c -1.65,-0.6 -3.3,-0.9 -5.55,-0.9 z m 25.65009,-25.8 c -5.55,0 -9.6,4.05 -9.6,9.45 0,5.55 4.05,9.6 9.6,9.6 5.55,0 9.75,-4.05 9.75,-9.6 0,-5.4 -4.2,-9.45 -9.75,-9.45 z m 8.25,107.400003 V 49.980157 h -16.5 v 79.650003 z m 91.49992,-58.950003 c -1.5,-13.95 -11.25,-22.8 -28.35,-22.8 -7.95,0 -13.8,1.35 -20.1,6.15 l -5.4,9.15 v -13.2 h -16.5 v 79.650003 h 16.5 V 93.930157 c 0,-24.9 9.3,-33.9 20.7,-33.9 11.25,0 16.05,6.3 16.8,15.3 0.3,4.05 0.3,7.5 0.3,11.25 v 43.050003 h 16.5 V 84.780157 c 0,-6.45 -0.15,-10.05 -0.45,-14.1 z m 66.45011,58.950003 h 16.35 c -1.2,-8.85 -1.5,-14.25 -1.5,-20.25 V 81.330157 c 0,-3.75 -0.15,-7.95 -0.45,-11.25 -1.35,-13.5 -9.45,-22.2 -30,-22.2 -18.15,0 -31.2,9.9 -32.25,27.3 h 16.5 c 0.9,-9.9 5.85,-15.3 15.45,-15.3 9.45,0 13.5,4.5 13.95,10.95 0.3,3 0.3,5.7 0.3,8.7 v 1.95 h -5.1 c -30.15,0 -44.25,9.6 -44.25,27.300003 0,14.85 11.55,22.95 25.65,22.95 7.5,0 14.4,-1.35 19.8,-5.1 l 4.05,-8.55 z m -19.35,-9.9 c -8.7,0 -14.25,-3.9 -14.25,-12.3 0,-12.150003 12.6,-16.500003 31.95,-15.000003 v 7.35 c 0,12.900003 -7.35,19.950003 -17.7,19.950003 z"
     id="text2"
     aria-label="Cirrina" />
</svg>
