<?xml version="1.0" encoding="UTF-8" standalone="no"?>
<svg
   version="1.0"
   width="256.000000pt"
   height="256.000000pt"
   viewBox="0 0 256.000000 256.000000"
   preserveAspectRatio="xMidYMid meet"
   id="svg4"
   sodipodi:docname="yyy03F01.svg"
   inkscape:version="1.4.2 (ebf0e940d0, 2025-05-08)"
   xmlns:inkscape="http://www.inkscape.org/namespaces/inkscape"
   xmlns:sodipodi="http://sodipodi.sourceforge.net/DTD/sodipodi-0.dtd"
   xmlns="http://www.w3.org/2000/svg"
   xmlns:svg="http://www.w3.org/2000/svg">
  <defs
     id="defs4" />
  <sodipodi:namedview
     id="namedview4"
     pagecolor="#ffffff"
     bordercolor="#000000"
     borderopacity="0.25"
     inkscape:showpageshadow="2"
     inkscape:pageopacity="0.0"
     inkscape:pagecheckerboard="0"
     inkscape:deskcolor="#d1d1d1"
     inkscape:document-units="pt"
     inkscape:zoom="5.5253906"
     inkscape:cx="170.66667"
     inkscape:cy="170.66667"
     inkscape:window-width="3840"
     inkscape:window-height="2095"
     inkscape:window-x="0"
     inkscape:window-y="0"
     inkscape:window-maximized="1"
     inkscape:current-layer="svg4" />
  <metadata
     id="metadata1">
Created by potrace 1.10, written by Peter Selinger 2001-2011
</metadata>
  <path
     style="display:inline;fill:#f6656a;fill-opacity:1;stroke-width:0.136488"
     d="m 190.82874,192.40961 c -4.39342,-0.72435 -9.01897,-2.51337 -17.10283,-6.61485 -9.72786,-4.93559 -18.33604,-8.52165 -23.21717,-9.67201 -3.41642,-0.80515 -7.25161,-1.02102 -16.40772,-0.92354 -7.14134,0.0761 -9.61499,0.2202 -13.62179,0.79385 -6.16509,0.88265 -12.97268,2.8698 -24.064138,7.02438 -12.214934,4.57543 -15.345611,5.6104 -20.063013,6.63266 -3.41955,0.74099 -5.424115,0.95001 -8.201431,0.85513 -3.682503,-0.12581 -5.788199,-0.68035 -8.201434,-2.15985 -2.815141,-1.72589 -5.301133,-4.28709 -6.530161,-6.72773 -0.474487,-0.94225 -0.518857,-1.12497 -0.517296,-2.13016 0.0014,-0.8548 0.06314,-1.20653 0.277751,-1.58033 0.587464,-1.02325 1.378283,-0.56232 2.378308,1.38621 1.028998,2.005 1.817949,2.39299 4.865862,2.39299 2.01965,0 2.898522,-0.16494 4.066827,-0.76326 0.731252,-0.37446 1.764527,-1.34689 2.211602,-2.08133 0.801569,-1.31679 1.28132,-4.41099 1.03383,-6.66778 -0.563823,-5.14131 -3.879692,-8.73544 -15.378132,-16.66856 -8.088481,-5.58051 -13.058604,-9.58563 -17.503105,-14.10469 -6.282429,-6.38785 -9.874382,-12.7208 -10.640311,-18.75986 -0.440136,-3.47032 0.766126,-6.92852 3.503549,-10.04422 1.09151,-1.24236 4.021643,-3.9885 4.076785,-3.82081 0.02413,0.0733 -0.12342,1.23397 -0.327856,2.57917 -0.672287,4.42368 -0.424003,7.16593 0.892778,9.86053 1.38995,2.84432 4.132364,5.3429 7.892135,7.19041 4.792758,2.35512 9.248678,3.20418 16.782876,3.19793 10.718766,-0.009 19.178351,-1.95946 28.072319,-6.47269 8.69638,-4.41297 15.808615,-10.76485 18.757305,-16.75194 0.96699,-1.9634 1.28396,-3.30686 1.57403,-6.67137 0.16527,-1.916896 0.10788,-12.041582 -0.0971,-17.126982 l -0.0867,-2.148195 -3.40307,-0.07069 c -3.013723,-0.06256 -3.565927,-0.110076 -4.826465,-0.415049 -3.803625,-0.92024 -6.405969,-2.283296 -8.545257,-4.47582 -1.146438,-1.17497 -1.590641,-1.880078 -1.438161,-2.282879 0.131049,-0.34618 1.347791,-0.25167 3.413247,0.265125 3.201581,0.801061 5.078627,0.997612 7.308869,0.765313 2.109529,-0.219726 3.473977,-0.703491 4.322477,-1.532549 l 0.66514,-0.649901 -0.0566,-0.901016 c -0.0393,-0.626695 -0.14143,-1.016519 -0.33523,-1.280399 -0.25633,-0.349011 -0.4219,-0.432006 -1.40321,-0.703409 -0.5993,-0.165746 -0.76398,-0.966251 -0.56743,-2.758141 0.9051,-8.251393 6.01809,-15.110012 13.5234,-18.140423 6.48018,-2.616501 13.97807,-2.298436 21.10478,0.895278 6.28531,2.816659 11.57776,8.592761 14.78488,16.135997 1.29658,3.049624 2.46426,7.052641 2.86393,9.818129 0.48034,3.323682 0.88486,10.924688 0.88895,16.703943 0.005,7.126768 0.33713,11.857388 1.02729,14.634148 0.39935,1.60679 1.28102,3.57022 2.18195,4.8591 0.88868,1.27135 3.40487,3.76262 5.11464,5.06398 9.11564,6.93823 27.12069,11.99317 42.7281,11.99594 5.92689,7.7e-4 10.44059,-0.60158 14.0683,-1.87829 3.77029,-1.32691 6.0228,-3.19519 7.53497,-6.24969 1.0111,-2.04236 1.27975,-3.43221 1.19344,-6.17423 -0.0379,-1.20472 -0.0158,-2.47879 0.0491,-2.83128 0.37706,-2.04599 1.85305,-1.28724 3.78742,1.94699 1.4833,2.48004 2.05924,5.07816 1.75237,7.90514 -0.65356,6.02084 -4.45083,12.53984 -11.26418,19.33784 -3.78948,3.78093 -7.70405,6.93955 -12.66919,10.22267 -6.77004,4.47657 -8.10814,5.39119 -10.01376,6.84458 -2.79426,2.13118 -4.21442,3.3608 -6.1126,5.29249 -2.38632,2.42848 -3.45516,4.19982 -3.45516,5.72614 0,0.46136 -0.26685,0.9468 -0.52046,0.9468 -0.0519,0 -0.31506,-0.15199 -0.58475,-0.33776 -0.65618,-0.45201 -1.90034,-2.04144 -3.52204,-4.4995 -3.29751,-4.99808 -5.55411,-7.30306 -18.68923,-19.08986 -4.81404,-4.31989 -7.57893,-7.28286 -10.62837,-11.38983 -3.30694,-4.45375 -5.57555,-8.47084 -7.33377,-12.98619 -1.13145,-2.90574 -1.82614,-4.27951 -2.61209,-5.16567 -0.51878,-0.58493 -0.67507,-0.68292 -1.03285,-0.64759 -0.63301,0.0624 -0.89555,0.69974 -0.89582,2.17439 -2.9e-4,1.68803 0.68075,4.003 2.26315,7.69275 3.86534,9.0129 8.14983,14.23864 24.57887,29.97852 7.98729,7.65225 10.52601,10.49036 14.42478,16.12591 5.21204,7.53385 8.28423,10.61132 11.31745,11.33687 2.07654,0.49673 5.09442,-0.50471 6.5357,-2.16873 1.24833,-1.44128 1.72322,-2.67599 1.87373,-4.87184 0.0614,-0.89627 0.15531,-1.67306 0.20858,-1.72617 0.16171,-0.16119 1.26618,1.22055 1.7333,2.16843 0.42798,0.86852 0.43888,0.9355 0.4365,2.67969 -0.002,1.64836 -0.0355,1.88306 -0.42314,2.98752 -1.50365,4.28434 -4.96328,7.50457 -9.13145,8.49956 -1.6298,0.38907 -4.90435,0.48786 -6.64698,0.20054 z M 78.385492,169.28184 c 2.869448,-1.46781 12.809924,-11.94247 19.485911,-20.53305 6.421817,-8.26354 15.583197,-24.60819 17.048437,-30.41583 0.50089,-1.98529 0.33435,-2.4708 -0.84758,-2.4708 -0.59391,0 -0.82756,0.0729 -1.23021,0.38431 -0.88634,0.68531 -1.81516,2.27929 -3.13922,5.38732 -3.65562,8.58108 -11.373615,20.41812 -19.846569,30.43855 -2.356393,2.78676 -4.185958,4.77829 -8.079625,8.79488 -1.941597,2.00291 -3.940675,4.17553 -4.442394,4.82806 -0.885194,1.15126 -1.588157,2.42677 -1.59086,2.88659 -0.0026,0.4311 0.478629,0.84674 1.095363,0.9462 0.661952,0.10674 0.944725,0.0616 1.546747,-0.24623 z m 66.492618,-68.33458 c 1.13623,-0.18075 2.4551,-0.83313 2.97373,-1.470954 0.81415,-1.001258 1.12356,-3.028207 0.55085,-3.608768 -0.60124,-0.609474 -1.44214,-0.185308 -2.15239,1.085715 -0.62167,1.112496 -1.02045,1.415767 -1.9661,1.495265 -0.9659,0.0812 -2.05347,-0.266187 -2.97077,-0.948926 -1.50344,-1.11898 -1.71997,-1.245646 -2.25346,-1.318182 -0.66206,-0.09002 -0.92059,0.08981 -1.03753,0.72163 -0.12392,0.669633 0.16959,1.402594 0.8623,2.153313 0.77874,0.843957 1.77427,1.419637 3.03289,1.753857 1.1484,0.30494 1.73454,0.33206 2.96048,0.13705 z m -20.94343,-1.035208 c 0.69398,-0.4774 0.95538,-0.817407 1.31342,-1.708369 0.26703,-0.664487 0.30427,-1.004888 0.30816,-2.817116 0.004,-1.756752 -0.04,-2.203563 -0.29651,-3.024169 -0.77117,-2.467456 -2.15426,-3.422283 -3.51248,-2.42489 -1.55308,1.140468 -2.21904,2.544663 -2.21904,4.678857 0,2.36079 0.91867,4.581369 2.23098,5.392615 0.61267,0.37875 1.54434,0.33725 2.17547,-0.0969 z"
     id="path5" />
  <path
     style="display:inline;fill:#3a2240;fill-opacity:1;stroke-width:0.180983"
     d="m 130.21828,280.49177 c -2.78718,-0.39773 -4.99449,-1.53088 -7.16597,-3.67876 -2.21115,-2.18711 -3.47295,-4.75009 -3.8606,-7.84169 -0.42717,-3.40671 0.84937,-6.55999 2.98599,-7.37597 1.64035,-0.62645 3.07816,0.37683 4.28566,2.99045 0.39263,0.84986 0.87531,1.77189 1.07263,2.049 0.44382,0.62328 1.577,1.21957 2.31769,1.21957 1.35155,0 2.92715,-1.20213 4.10389,-3.13115 1.21499,-1.9917 2.08942,-8.08393 2.12231,-14.78614 0.0191,-3.90257 -0.0925,-4.70555 -0.65426,-4.70555 -0.11449,0 -2.61597,1.02869 -5.55885,2.28599 -12.4537,5.32064 -19.51039,7.60951 -28.06401,9.10274 -7.314928,1.27698 -14.914029,1.28482 -20.324533,0.0209 -8.104669,-1.8932 -13.637224,-6.51043 -15.993413,-13.3474 -0.418761,-1.21511 -0.487351,-1.71122 -0.495269,-3.58224 -0.0122,-2.88211 0.537947,-5.16066 1.921261,-7.9574 1.291985,-2.61209 3.113499,-4.61709 4.984086,-5.48615 0.906652,-0.42123 1.27489,-0.48425 2.850955,-0.48791 1.600994,-0.004 1.876964,0.0437 2.391668,0.4108 1.199408,0.85551 1.097717,2.41254 -0.309696,4.74189 -1.069604,1.77025 -1.074096,2.49153 -0.02418,3.88214 0.967769,1.2818 2.435053,2.45358 3.071217,2.45269 0.264797,-3.8e-4 0.764583,-0.17328 1.110632,-0.38424 0.951198,-0.57986 2.976912,-2.68285 3.418801,-3.54923 0.557713,-1.09347 0.675183,-2.6029 0.312688,-4.01787 -1.27458,-4.97517 -5.870161,-9.22165 -21.554026,-19.91671 -7.659498,-5.22312 -13.671397,-9.79524 -18.732578,-14.24633 -8.078169,-7.10441 -14.75934,-17.1842 -17.085225,-25.77625 -0.792859,-2.9289 -1.071136,-4.94601 -1.070485,-7.75946 0.0011,-4.65674 1.095195,-8.38246 3.522046,-11.99339 1.123289,-1.67135 3.981061,-4.42895 5.927806,-5.72002 5.266933,-3.493 12.642519,-5.46659 16.073334,-4.30097 1.310345,0.44519 2.044494,1.3045 2.044494,2.39305 0,1.59122 -0.905795,2.56531 -2.832996,3.04661 -2.955319,0.73807 -4.916807,2.86148 -5.593856,6.05565 -0.892397,4.21013 0.705237,8.74736 4.212368,11.96299 3.610742,3.31062 8.426943,5.56677 14.07804,6.59485 3.540897,0.64418 4.931997,0.73879 10.677978,0.72623 11.341557,-0.0248 19.972577,-1.55837 29.228703,-5.19336 11.16916,-4.38627 22.6837,-13.06136 27.92004,-21.03504 3.43193,-5.22601 4.65058,-10.44323 3.83528,-16.41938 -0.85257,-6.24928 -1.68788,-9.79015 -2.55172,-10.81677 -0.65753,-0.78143 -0.85395,-0.85515 -2.87737,-1.07986 -4.11514,-0.45702 -11.05601,-3.6284 -14.78989,-6.75772 -2.51925,-2.11134 -5.34688,-6.80658 -7.05321,-11.711718 -1.27856,-3.675451 -1.6139,-7.308106 -0.81823,-8.863584 0.5769,-1.127784 0.85862,-1.251388 1.80244,-0.790811 1.3044,0.636547 2.9776,2.010137 5.64679,4.635643 4.15977,4.091697 5.89972,5.018752 9.41946,5.018752 3.49275,0 3.55989,-0.09417 3.74175,-5.248498 0.18041,-5.112924 0.77534,-7.693283 2.71229,-11.763874 6.19449,-13.018043 21.42971,-21.172724 36.49918,-19.536263 8.17298,0.88754 16.83754,4.556912 23.49437,9.949673 3.55857,2.882832 7.57386,7.470555 9.89524,11.305925 1.4408,2.380491 2.09472,3.756125 3.65634,7.691764 2.07519,5.229961 3.08251,6.939643 4.37919,7.432644 1.29405,0.491994 3.17133,-0.01879 5.38838,-1.466103 2.42691,-1.584295 4.79508,-4.346719 4.80473,-5.604576 0.0111,-1.443773 2.16676,-3.981619 3.38208,-3.981619 0.87652,0 2.84123,2.416753 3.68126,4.528216 0.75985,1.909955 0.39608,4.893603 -1.18368,9.708329 -1.40483,4.28159 -3.2351,7.55323 -5.58859,9.98964 -1.69951,1.7594 -3.04014,2.69573 -5.54773,3.87469 -3.60221,1.69362 -3.79474,2.15338 -4.41295,10.53893 -0.92778,12.584 -0.36273,17.25008 2.64106,21.80962 1.39123,2.11177 4.56101,5.40689 6.88751,7.15981 14.68018,11.06096 48.57901,18.17133 66.64765,13.97953 4.61269,-1.07012 7.75828,-2.8119 9.91776,-5.4917 1.02543,-1.27248 2.68162,-4.43067 3.1234,-5.95601 0.39923,-1.37838 0.20478,-2.31445 -0.8358,-4.02365 -1.51667,-2.49118 -3.27634,-4.13734 -4.64998,-4.35004 -1.60744,-0.2489 -3.66087,-1.89784 -3.93871,-3.16285 -0.33321,-1.51708 2.10316,-2.6788 5.6179,-2.67875 4.57897,7e-5 10.04698,1.88446 13.48207,4.6462 4.9654,3.99207 7.53371,10.54047 6.88416,17.55256 -0.93016,10.04149 -6.02618,18.86776 -17.2239,29.83164 -7.10963,6.96117 -12.59372,11.1863 -22.50748,17.34056 -11.50103,7.1396 -17.70164,12.99529 -19.10426,18.04156 -0.35326,1.27092 -0.26863,3.52878 0.17974,4.79604 0.77017,2.17675 2.56821,4.31401 4.29397,5.10409 0.8756,0.40086 1.18602,0.44967 2.40948,0.37885 1.09601,-0.0634 1.58432,-0.18675 2.22384,-0.56153 2.37598,-1.39242 3.20959,-4.24565 2.04592,-7.00271 -1.09514,-2.59475 -1.23162,-3.02122 -1.24523,-3.89113 -0.0177,-1.1288 0.32642,-1.85334 1.14281,-2.40647 0.55544,-0.37633 0.80268,-0.42173 2.00755,-0.36868 2.06632,0.091 3.70095,0.97228 5.98011,3.2241 2.41552,2.38654 3.73919,4.51094 5.12785,8.22976 0.93481,2.50345 1.01497,3.80159 0.38685,6.26615 -0.87853,3.44714 -2.74782,6.58198 -6.3756,10.69193 -2.60755,2.95413 -5.83707,5.58024 -7.48872,6.08949 -1.85037,0.57053 -10.04213,0.76516 -13.39808,0.31833 -6.80334,-0.90583 -14.05366,-3.60058 -26.7056,-9.92567 -9.9315,-4.96508 -17.09966,-8.05175 -18.10976,-7.79823 -1.08552,0.27245 -2.59756,2.94142 -3.83184,6.76377 -1.51745,4.69931 -1.95847,7.0942 -1.65557,8.9903 0.51205,3.20531 2.82281,5.93753 4.3365,5.12744 0.78661,-0.42099 1.08783,-1.54976 1.07547,-4.03014 -0.0169,-3.39374 0.48904,-4.24054 2.43713,-4.07899 3.98767,0.33069 7.34839,5.20215 7.34839,10.65168 0,2.13107 -0.40593,3.60869 -1.41791,5.16117 -2.32411,3.56553 -8.36071,7.01965 -12.71043,7.27288 -8.5875,0.49997 -18.69382,-8.85866 -20.78016,-19.2428 -0.912,-4.53915 -0.97883,-17.04475 -0.10658,-19.943 0.223,-0.74097 0.22022,-0.88052 -0.0228,-1.14908 -0.58636,-0.64792 -2.3725,-0.79481 -9.66482,-0.79481 -6.12972,0 -7.09112,0.0382 -7.99282,0.31723 -1.30475,0.4038 -1.84493,1.03476 -2.33407,2.72628 -1.84002,6.36303 -3.74352,11.34894 -6.34151,16.61053 -2.30853,4.67532 -3.75337,7.20966 -6.23239,10.93204 -3.73434,5.60727 -6.5308,8.60051 -9.43064,10.09422 -2.03202,1.04669 -4.87278,2.01321 -7.01077,2.38531 -1.76717,0.30756 -2.17855,0.31466 -3.91142,0.0674 z m 5.308,-5.2751 c 2.00531,-0.99132 3.88008,-2.4749 6.36414,-5.03619 6.37205,-6.57014 12.40762,-17.09372 15.71018,-27.39222 0.88387,-2.75622 0.95475,-3.2173 0.55588,-3.61618 -0.73204,-0.73204 -4.40626,-0.0292 -13.41558,2.56609 l -4.20785,1.21216 -0.006,4.89598 c -0.008,6.57395 -0.27883,13.05119 -0.62687,14.98745 -0.62346,3.46853 -1.56441,5.59285 -3.18649,7.1939 -1.27838,1.26179 -2.87787,2.04977 -5.34338,2.63232 -2.92069,0.69012 -3.86811,1.17682 -3.86811,1.98712 0,0.93856 1.43998,1.36077 4.44382,1.30296 2.12549,-0.0409 2.21746,-0.0597 3.58016,-0.73339 z m 70.79397,-2.20627 c 2.02126,-0.42625 3.29105,-1.15643 4.85159,-2.78983 1.44842,-1.51606 2.17467,-2.67786 2.08177,-3.33026 -0.0456,-0.32029 -0.19477,-0.40345 -0.80329,-0.4479 -0.57422,-0.0419 -1.17101,0.13586 -2.57721,0.76787 -2.10626,0.94663 -2.96238,1.17643 -4.40573,1.18262 -2.20381,0.009 -4.28144,-1.42888 -5.31031,-3.67623 -1.02037,-2.22878 -1.23448,-3.52976 -1.24093,-7.54028 -0.008,-4.89846 0.45084,-7.46282 2.24087,-12.52699 0.57374,-1.62314 0.75776,-2.42249 0.7846,-3.40821 0.0314,-1.15424 -0.009,-1.32345 -0.3889,-1.63224 -0.88574,-0.71974 -3.85082,-1.39929 -8.99909,-2.06247 -1.98424,-0.2556 -3.78118,-0.5033 -3.99321,-0.55044 -0.35301,-0.0785 -0.40208,0.0247 -0.58212,1.22441 -0.10814,0.72057 -0.36285,2.4096 -0.56601,3.75339 -1.32146,8.74052 0.8684,20.2922 4.79915,25.31586 3.37929,4.31888 9.32475,6.72959 14.10882,5.7207 z m 54.84818,-17.36822 c 3.71107,-0.60191 6.28381,-1.80371 8.90031,-4.15755 2.15543,-1.93905 4.51746,-5.8623 5.18818,-8.61744 0.39934,-1.64031 0.37699,-4.19871 -0.0486,-5.56617 -0.34543,-1.10984 -0.70175,-1.71009 -1.81895,-3.06419 -1.09149,-1.32292 -1.46288,-0.94038 -1.46288,1.50682 0,2.63135 -0.86259,4.7405 -2.68857,6.57399 -2.67744,2.6884 -6.41671,3.59549 -9.55871,2.31878 -3.37797,-1.37259 -7.46529,-5.57402 -12.80216,-13.15957 -6.09553,-8.66387 -9.53049,-12.52308 -19.46201,-21.86575 -10.35418,-9.74025 -19.94101,-19.47557 -23.91446,-24.28484 -5.23729,-6.33896 -9.87368,-14.93872 -12.10713,-22.45679 -0.82857,-2.78907 -0.69848,-5.70245 0.27126,-6.07457 1.05721,-0.40569 2.85387,2.28314 4.6082,6.89652 2.30697,6.06668 5.45933,11.63484 10.04545,17.74372 4.15307,5.53204 8.0541,9.65164 14.57101,15.38738 16.25302,14.30479 20.15036,18.22834 24.53517,24.70028 2.33213,3.44219 2.79723,4.057 3.99275,5.27805 1.67101,1.7067 2.37799,1.5819 2.62419,-0.46325 0.26241,-2.1797 1.78864,-4.46103 5.15989,-7.71274 4.40456,-4.24836 9.50686,-8.07289 17.62084,-13.20806 6.13667,-3.88377 10.21899,-6.82094 14.93107,-10.74272 3.03323,-2.5245 9.06749,-8.62195 11.31066,-11.42912 7.61086,-9.52439 10.63955,-18.74685 8.46781,-25.78471 -0.76597,-2.4823 -2.55714,-5.48069 -4.20506,-7.03922 -0.89086,-0.84254 -1.08204,-0.9447 -1.67481,-0.89498 -0.54615,0.0458 -0.73703,0.17258 -1.03841,0.68957 -0.34225,0.58714 -0.36554,0.88655 -0.31869,4.0959 0.0564,3.86415 -0.10209,5.00558 -1.02773,7.39949 -1.5093,3.90341 -4.72497,7.05329 -8.96202,8.77865 -3.00898,1.22528 -7.00481,2.15038 -11.87236,2.74867 -2.55564,0.31411 -14.11813,0.31128 -17.28384,-0.004 -8.78031,-0.87512 -16.0706,-2.24066 -23.90669,-4.47792 -11.51666,-3.2881 -20.59203,-7.71577 -26.4065,-12.88315 -5.91694,-5.25845 -7.64504,-8.90975 -8.41653,-17.78324 -0.10818,-1.24425 -0.27126,-6.7416 -0.3624,-12.21633 -0.15789,-9.48448 -0.30317,-13.10596 -0.72966,-18.18876 -0.57586,-6.86309 -2.19317,-12.821636 -5.13341,-18.912686 -5.1948,-10.761631 -12.60835,-17.621678 -22.64043,-20.950081 -11.00325,-3.650613 -21.6434,-2.508981 -30.40509,3.262307 -2.45303,1.615799 -5.92883,5.090106 -7.56106,7.557821 -2.83765,4.290131 -4.60804,9.376803 -4.94294,14.202064 -0.1451,2.090489 0.12884,2.999592 0.95443,3.167424 1.11507,0.226683 1.41982,0.390974 1.81615,0.979084 0.56078,0.832139 0.56051,2.095655 -6.3e-4,2.930298 -0.97827,1.455089 -4.17342,2.403799 -8.09275,2.402899 -2.71033,-6.2e-4 -3.95293,-0.17634 -7.72608,-1.09256 -1.7936,-0.43554 -2.8852,-0.60714 -3.61965,-0.569 -1.02859,0.0534 -1.05277,0.0668 -1.10604,0.6126 -0.042,0.43053 0.13563,0.81088 0.77761,1.6649 2.54953,3.39163 7.30046,6.07187 12.94104,7.30069 1.37697,0.29998 2.60596,0.39343 6.17187,0.4693 l 4.45254,0.0947 0.11804,2.64795 c 0.0649,1.45638 0.17004,6.55718 0.23359,11.33513 0.18207,13.68837 -0.23874,16.67761 -3.01084,21.38752 -2.78598,4.7335 -8.04069,10.15525 -13.88956,14.33111 -7.13067,5.091 -17.01449,9.77307 -25.264921,11.96825 -12.017644,3.19753 -27.728045,3.69326 -37.479109,1.18263 -5.653126,-1.45553 -10.964002,-4.25622 -14.238456,-7.50865 -3.081316,-3.06059 -4.589881,-6.1342 -5.046226,-10.28138 -0.225819,-2.0522 -0.113092,-3.5738 0.61279,-8.27148 0.245739,-1.59035 0.413313,-2.92503 0.372388,-2.96596 -0.09446,-0.0945 -3.568996,3.13569 -5.258528,4.88867 -2.444748,2.53655 -4.006995,5.10716 -4.883805,8.03608 -0.419951,1.40282 -0.485702,1.94736 -0.490619,4.06318 -0.009,3.85462 0.921948,7.34166 3.212978,12.03535 2.38285,4.88181 5.415631,8.9882 10.410126,14.09532 6.035841,6.17196 12.720447,11.57436 22.986583,18.57744 13.20566,9.00827 17.701478,12.98222 20.112817,17.77813 1.111076,2.20982 1.458682,3.77121 1.460132,6.55865 0.0029,5.60694 -1.741128,8.71712 -5.646473,10.06944 -1.009502,0.34957 -1.56151,0.40879 -3.891128,0.41746 -4.13673,0.0154 -4.995247,-0.42138 -6.515773,-3.31495 -1.494417,-2.84388 -3.132155,-3.15474 -3.719596,-0.70601 -0.628339,2.61921 0.871631,5.74509 4.452846,9.27956 4.914783,4.85062 9.790471,6.78685 17.090301,6.78685 7.590536,0 15.259633,-1.97195 32.580523,-8.37744 17.90171,-6.62028 25.98289,-9.09668 34.02474,-10.42654 6.88824,-1.13909 12.04054,-1.46211 23.34677,-1.46371 11.11023,-0.002 15.00009,0.30034 19.8176,1.53817 6.38699,1.64109 17.24564,6.1214 28.53916,11.77533 12.11842,6.0669 18.28023,8.44167 24.36002,9.38837 2.12759,0.33129 5.56136,0.3373 7.55946,0.0132 z M 211.48688,110.00297 c 2.87682,-1.92107 7.72486,-7.33762 8.44919,-9.43998 0.3089,-0.896569 0.15119,-1.746447 -0.32407,-1.746447 -0.18902,0 -1.66887,0.678699 -3.28854,1.508217 -2.74213,1.40438 -5.17419,2.29242 -6.27824,2.29242 -0.63927,0 -1.56901,1.06273 -1.89753,2.16892 -0.4045,1.36211 -0.37581,3.68551 0.0573,4.6392 0.69577,1.53211 1.61131,1.69326 3.28193,0.57767 z"
     id="path6"
     transform="scale(0.75)" />
  <path
     style="display:inline;fill:#3a2240;fill-opacity:1;stroke-width:0.180983"
     d="m 161.60982,133.60078 c -1.91244,-1.20359 -3.08636,-4.18931 -2.93555,-7.46626 0.0961,-2.0882 0.59983,-3.35835 1.79427,-4.52413 1.61188,-1.57322 2.52239,-1.80425 3.60235,-0.91405 1.40108,1.15489 2.34268,3.92317 2.34268,6.88738 0,2.7724 -0.74028,4.91006 -2.01463,5.81748 -0.78186,0.55673 -2.07463,0.64924 -2.78912,0.19958 z"
     id="path7"
     transform="scale(0.75)" />
  <path
     style="fill:#3a2240;fill-opacity:1;stroke-width:0.180983"
     d="m 101.54249,225.1313 c -0.84545,-0.14699 -1.43187,-0.76393 -1.2606,-1.3262 0.56341,-1.84951 2.13966,-3.79143 7.58379,-9.34305 4.96186,-5.05984 7.58147,-7.85867 10.40769,-11.11968 9.92036,-11.44657 19.77948,-25.75473 25.20487,-36.57885 0.44572,-0.88925 1.4219,-3.00134 2.16929,-4.69353 1.51471,-3.42952 2.40435,-5.04636 3.35667,-6.10047 1.09321,-1.21005 2.21437,-1.54793 3.09338,-0.93225 0.38032,0.26639 0.4129,0.39276 0.31531,1.22306 -0.26966,2.29441 -1.763,6.11829 -4.56593,11.6916 -4.51497,8.97753 -12.0246,21.36593 -16.73053,27.59986 -8.0652,10.68391 -21.56794,25.09402 -27.04486,28.86224 -1.03791,0.7141 -1.61154,0.87679 -2.52908,0.71727 z"
     id="path8"
     transform="scale(0.75)" />
  <path
     style="fill:#3a2240;fill-opacity:1;stroke-width:0.180983"
     d="m 188.72198,134.75031 c -2.15773,-0.49031 -4.32486,-1.98896 -5.11456,-3.5369 -0.45009,-0.88224 -0.4595,-1.46986 -0.032,-1.99778 0.48881,-0.60366 1.39366,-0.36281 2.88367,0.76755 1.69652,1.28703 2.95337,1.8349 4.38717,1.91241 1.70428,0.0921 2.60963,-0.40527 3.38067,-1.85736 1.40333,-2.64285 3.12612,-2.52798 2.90764,0.19387 -0.16078,2.00292 -1.38396,3.51554 -3.42215,4.2319 -1.37493,0.48325 -3.56963,0.60916 -4.99042,0.28631 z"
     id="path9"
     transform="scale(0.75)" />
  <path
     style="fill:#f6656a;fill-opacity:1;stroke-width:0.123917"
     d="m 150.32272,204.67367 c -3.05768,-0.6567 -5.76824,-3.0017 -7.14366,-6.18021 -0.51933,-1.20013 -1.20835,-3.63607 -1.57382,-5.56395 -0.75898,-4.00363 -0.8536,-7.66743 -0.30552,-11.82945 0.192,-1.45791 0.37666,-2.68283 0.41036,-2.72206 0.106,-0.12335 4.99827,0.67052 6.18971,1.00442 1.522,0.42655 2.10508,0.73801 2.26139,1.20796 0.17017,0.51162 -0.11324,2.1703 -0.64427,3.77049 -0.92291,2.78106 -1.37428,6.07269 -1.28499,9.37072 0.0691,2.5478 0.28846,3.74819 0.95528,5.22496 0.77491,1.71612 1.85916,2.52842 3.37505,2.52842 0.89336,0 1.63692,-0.23552 3.00195,-0.95081 1.16916,-0.61266 1.82286,-0.69052 1.82286,-0.21711 0,0.41195 -0.6851,1.56454 -1.47539,2.48216 -1.41949,1.64816 -3.45853,2.33202 -5.58895,1.87446 z"
     id="path10" />
  <path
     style="fill:#f6656a;fill-opacity:1;stroke-width:0.122611"
     d="m 98.215971,205.17632 c -0.304014,-0.1012 -0.617935,-0.26653 -0.697601,-0.36739 -0.413122,-0.52313 0.313054,-0.97343 2.52558,-1.56611 1.65532,-0.44343 2.4325,-0.8327 3.24477,-1.62518 0.82963,-0.80945 1.43016,-1.82891 1.80364,-3.06192 0.66108,-2.1825 0.70031,-2.67552 0.75806,-9.53088 l 0.0534,-6.35011 3.24981,-0.97027 c 4.39163,-1.31117 6.05944,-1.73085 7.21384,-1.81524 0.91959,-0.0672 0.9819,-0.0556 1.11679,0.20933 0.15755,0.30936 -0.0355,1.07857 -0.97739,3.89615 -2.18661,6.54052 -6.20744,13.56694 -10.14341,17.72566 -1.39911,1.47831 -2.504,2.36227 -3.81743,3.0541 -0.99336,0.52326 -1.02512,0.53066 -2.39206,0.55808 -0.950699,0.019 -1.558774,-0.03 -1.938105,-0.15622 z"
     id="path11" />
  <path
     style="fill:#f6656a;fill-opacity:1;stroke-width:0.119029"
     d="m 157.31068,81.930056 c -0.47121,-0.468978 -0.6023,-0.918829 -0.6023,-2.066822 0,-1.91136 0.4983,-2.741132 1.78872,-2.978551 0.86431,-0.159018 1.90056,-0.567888 4.0131,-1.583455 0.89422,-0.429885 1.70726,-0.781609 1.80674,-0.781609 0.37422,0 0.37284,0.604738 -0.004,1.365592 -0.48065,0.972755 -2.3409,3.145789 -3.95775,4.623202 -1.56219,1.427449 -2.56787,1.896918 -3.04541,1.421643 z"
     id="path12" />
</svg>
