<?xml version="1.0" encoding="UTF-8" standalone="no"?>
<!-- Created with Inkscape (http://www.inkscape.org/) -->

<svg
   width="451.03973mm"
   height="329.1944mm"
   viewBox="0 0 451.03973 329.1944"
   version="1.1"
   id="svg1"
   xml:space="preserve"
   xmlns:inkscape="http://www.inkscape.org/namespaces/inkscape"
   xmlns:sodipodi="http://sodipodi.sourceforge.net/DTD/sodipodi-0.dtd"
   xmlns="http://www.w3.org/2000/svg"
   xmlns:svg="http://www.w3.org/2000/svg"><sodipodi:namedview
     id="namedview1"
     pagecolor="#ffffff"
     bordercolor="#000000"
     borderopacity="0.25"
     inkscape:showpageshadow="2"
     inkscape:pageopacity="0.0"
     inkscape:pagecheckerboard="0"
     inkscape:deskcolor="#d1d1d1"
     inkscape:document-units="mm"><inkscape:page
       x="0"
       y="0"
       width="451.0397"
       height="329.1944"
       id="page2"
       margin="0"
       bleed="0" /></sodipodi:namedview><defs
     id="defs1" /><g
     inkscape:label="Layer 1"
     inkscape:groupmode="layer"
     id="layer1"
     transform="translate(50.312075,7.3947851)"><path
       style="fill:#000000"
       d="m 0.57203713,263.18133 c -0.12002808,-0.31279 -0.11799652,-0.66894 0.004515,-0.79146 0.1225111,-0.12251 8.11931077,-2.56055 17.77066587,-5.41787 9.651355,-2.85733 25.009169,-7.42405 34.128475,-10.14827 18.191864,-5.43449 56.366897,-16.64693 79.375007,-23.31335 l 4.58611,-1.32879 0.10365,-2.52343 c 0.057,-1.38789 -0.011,-2.52344 -0.15117,-2.52344 -0.40491,0 -14.9592,3.95059 -30.11498,8.17435 -7.6641,2.13591 -18.776601,5.2013 -24.694449,6.81198 -5.917847,1.61068 -18.697223,5.15656 -28.398612,7.87973 -28.56681,8.01866 -62.5141007,17.3506 -63.1172042,17.3506 -0.6663328,0 -0.7408218,-0.82983 -0.1182168,-1.31695 0.5123759,-0.40089 14.6037979,-4.33062 15.5222237,-4.32875 1.050985,0.002 0.6820001,-0.53944 -0.7055556,-1.03559 -2.5968414,-0.92856 -16.7390951,-6.75583 -22.2117281,-9.15228 -3.063238,-1.34138 -8.744524,-3.82597 -12.62508,-5.52131 -3.880556,-1.69534 -7.452431,-3.09064 -7.937501,-3.10067 -0.485069,-0.01 -3.305838,0.56712 -6.268375,1.28255 -2.962536,0.71543 -5.553265,1.30078 -5.757175,1.30078 -0.203909,0 -0.320016,-0.3525 -0.258014,-0.78334 0.134576,-0.93515 -1.073392,-0.59049 17.046065,-4.86368 7.567084,-1.78458 14.631459,-3.55877 15.698612,-3.94265 2.61026,-0.93898 17.09430414,-4.71007 37.218058,-9.69016 9.119306,-2.25679 30.391807,-7.58187 47.272225,-11.83351 26.051673,-6.56159 66.573947,-16.73974 69.232647,-17.38946 0.71427,-0.17455 0.79375,-0.4076 0.79375,-2.32769 0,-1.86943 -0.0765,-2.11014 -0.61737,-1.94341 -0.78132,0.24086 -9.45264,2.33161 -29.36875,7.08112 -8.634234,2.05905 -23.397985,5.65291 -32.808332,7.98635 -27.406675,6.79589 -86.875423,21.31448 -111.125007,27.12984 -6.693959,1.6053 -12.381924,2.99671 -12.639922,3.09203 -0.335039,0.12377 -0.43585,-0.10969 -0.352778,-0.81699 l 0.11631,-0.99028 23.812502,-5.75302 c 27.5535619,-6.65686 75.297339,-18.30821 101.776395,-24.83744 27.992232,-6.90235 60.583662,-14.79826 61.081802,-14.79826 0.0688,0 0.12515,-3.81393 0.12515,-8.4754 0,-8.46632 -8.5e-4,-8.47571 -0.79375,-8.77172 -0.43657,-0.16298 -4.445,-1.12488 -8.90764,-2.13757 -4.46264,-1.01269 -13.19389,-3.09503 -19.40278,-4.62743 -6.20889,-1.5324 -13.908267,-3.3574 -17.109726,-4.05556 -3.201458,-0.69816 -12.567709,-2.90712 -20.81389,-4.9088 -8.246181,-2.00168 -16.521238,-3.9819 -18.389015,-4.40049 -4.949103,-1.10915 -5.050174,-1.25494 -4.805033,-6.93123 0.2289,-5.30022 0.664,-6.24845 2.944592,-6.41724 1.37208,-0.10156 10.22671,1.64152 23.600845,4.64593 7.341911,1.64931 16.840906,3.66254 34.219447,7.25253 5.62681,1.16236 14.40485,3.07144 19.50677,4.24241 5.10192,1.17096 9.50529,2.12901 9.78527,2.12901 0.43835,0 0.52191,-3.77315 0.60157,-27.16392 0.0509,-14.94016 0.0721,-27.16391 0.0471,-27.163889 -0.025,2.1e-5 -0.97098,0.557358 -2.10217,1.238527 -4.65105,2.800719 -9.27799,2.957523 -14.23137,0.482291 -2.41472,-1.206653 -4.84764,-3.710126 -6.01123,-6.185559 -2.81803,-5.995092 -1.7496,-12.541311 2.7874,-17.078315 4.14739,-4.147387 10.36101,-5.572636 15.14975,-3.474973 0.84928,0.372021 2.13913,0.676401 2.86632,0.676401 1.19861,0 1.34277,-0.103026 1.54266,-1.10243 0.12126,-0.606337 0.22048,-5.934326 0.22048,-11.839976 V 45.993663 l -1.4993,1.07864 c -0.82462,0.593253 -6.02369,4.593573 -11.55348,8.8896 -10.19127,7.917472 -12.84322,9.831155 -13.62387,9.831155 -0.23813,0 -0.9257,-0.492736 -1.52793,-1.094968 -1.90297,-1.902967 -8.48431,-10.887953 -8.48431,-11.582958 0,-0.44055 1.28288,-1.596692 3.79236,-3.417711 2.0858,-1.51357 7.44361,-5.465013 11.90625,-8.780983 4.46264,-3.31597 8.78519,-6.496826 9.60567,-7.068569 0.82047,-0.571743 1.49516,-1.125848 1.4993,-1.231345 0.0101,-0.256034 -18.15035,-15.333963 -25.03969,-20.789554 -6.137871,-4.8605102 -6.702779,-5.4090223 -6.702779,-6.5082431 0,-1.4020638 7.689699,-12.054076 9.084749,-12.5844708 0.57053,-0.2169156 1.13187,-0.1616449 1.783,0.1755568 0.52267,0.270679 4.45003,3.4848294 8.72748,7.14255629 4.27744,3.65772691 9.59557,8.14865241 11.81805,9.97983481 2.22249,1.831182 5.42995,4.493872 7.1277,5.91709 l 3.0868,2.587669 v -2.628698 c 0,-1.90028 0.15103,-2.77973 0.54504,-3.17374 1.36852,-1.368517 6.62334,-1.658876 7.85134,-0.433832 0.42646,0.425426 0.65036,1.413086 0.77584,3.422357 l 0.17639,2.824352 5.29167,-3.990519 c 2.91042,-2.194786 8.26619,-6.2488886 11.90173,-9.0091163 3.63553,-2.7602277 6.90192,-5.01859583 7.25864,-5.01859583 0.83943,0 1.37149,0.62137873 5.49469,6.41708303 3.09157,4.3456041 3.42479,4.9642701 3.32513,6.1736111 -0.12421,1.507408 1.4348,0.2301 -15.6343,12.809305 -4.60744,3.395486 -8.71312,6.436281 -9.12374,6.757321 -0.74632,0.583514 -0.74634,0.583973 -0.0441,1.361133 0.38637,0.427582 5.86063,5.086162 12.16504,10.3524 13.12476,10.96347 14.81939,12.510845 14.81939,13.531646 0,0.821262 -1.31084,2.642621 -5.46805,7.597632 -2.94758,3.513231 -4.32717,4.641997 -5.24368,4.2903 -0.29966,-0.11499 -6.06867,-4.941569 -12.82003,-10.72573 L 146.66737,48.577216 146.574,59.355424 c -0.0514,5.928014 -0.0514,10.818742 0,10.868284 0.0513,0.04954 1.92152,0.277811 4.15593,0.507263 3.43009,0.352239 4.46539,0.333811 6.65013,-0.118369 6.26473,-1.296627 12.47413,1.727339 15.28937,7.445892 1.43319,2.911213 1.76957,7.223152 0.82096,10.5234 -3.25582,11.327051 -17.77704,14.011516 -25.22088,4.662454 l -1.42576,-1.790679 v 29.646881 29.64687 l 5.98221,1.43192 c 5.78897,1.38567 6.02543,1.41382 7.32014,0.8714 2.13082,-0.8927 5.65785,-0.41272 15.80182,2.15039 10.13228,2.56015 11.47122,3.03482 12.70856,4.50532 2.85783,3.39634 1.60517,10.59299 -2.31001,13.27119 -1.15402,0.78942 -1.45739,0.82919 -5.14507,0.67453 l -3.91875,-0.16435 -0.22457,3.39081 c -0.12351,1.86495 -0.22538,8.8387 -0.22639,15.49722 -0.002,11.36558 0.036,12.09511 0.61554,11.9217 1.57106,-0.47005 23.15562,-6.36055 28.66319,-7.82228 3.39549,-0.90118 9.18987,-2.47855 12.87639,-3.50528 3.68653,-1.02672 10.59216,-2.92512 15.34584,-4.21864 4.75368,-1.29353 9.42761,-2.59339 10.38651,-2.88858 1.33588,-0.41124 2.61418,-0.4835 5.46806,-0.3091 5.01846,0.30667 9.27391,0.87043 9.78745,1.29663 0.60264,0.50015 0.2136,1.23167 -0.88473,1.66357 -1.72932,0.68003 -31.9037,9.94784 -37.45729,11.5047 -8.66236,2.42834 -19.1614,5.22748 -19.93195,5.31403 -0.38805,0.0436 -2.4518,0.62592 -4.58611,1.29408 -2.1343,0.66816 -7.56986,2.23424 -12.079,3.48018 l -8.19845,2.26536 -0.002,2.82222 -0.002,2.82222 3.50285,1.00448 c 1.92656,0.55247 3.7539,1.28189 4.06074,1.62095 0.4021,0.44432 0.6196,1.69506 0.77889,4.47902 0.29899,5.22567 -0.0333,7.74265 -1.11588,8.45198 -1.05372,0.69041 -14.15131,4.71225 -15.37593,4.72144 -0.5031,0.004 -2.64623,-0.54585 -4.76251,-1.22138 -2.11627,-0.67552 -3.88746,-1.23115 -3.93596,-1.23472 -0.0485,-0.004 -0.0882,1.9075 -0.0882,4.24681 v 4.2533 l -1.85208,0.82739 c -1.01865,0.45506 -5.03883,1.90753 -8.93375,3.22771 l -7.08166,2.40032 -5.08917,-1.51425 c -10.15352,-3.02112 -12.96715,-3.97783 -13.53107,-4.60095 -0.48375,-0.53454 -0.55893,-1.40871 -0.47602,-5.53456 l 0.0985,-4.89976 6.79098,-2.26525 6.79097,-2.26524 v -2.9037 -2.9037 l -1.6757,0.51146 c -0.92163,0.2813 -7.62882,2.23771 -14.90486,4.34758 -7.27604,2.10987 -19.49979,5.687 -27.163889,7.94917 -7.664098,2.26218 -16.871598,4.96431 -20.461112,6.00473 -7.600773,2.20308 -24.407951,7.14541 -37.747225,11.09996 -7.116872,2.10987 -27.4684132,8.07831 -33.2510452,9.75145 -0.3687885,0.10671 -0.70733339,-0.0508 -0.83733167,-0.38957 z M 14.375691,249.02048 c 5.961327,-1.59348 5.866002,-1.55197 4.586111,-1.99707 -0.582083,-0.20243 -10.5581041,-4.15269 -22.1689351,-8.77837 -11.6108309,-4.62568 -21.3692029,-8.41032 -21.6852719,-8.41032 -0.316068,0 -2.641162,0.49978 -5.166875,1.11063 -4.458168,1.07822 -4.561445,1.1243 -3.538341,1.57864 2.990097,1.32786 27.3007864,11.72011 34.39136641,14.70151 3.00743079,1.26454 6.02368089,2.53903 6.70277819,2.83219 0.6790973,0.29316 1.4728473,0.45554 1.763889,0.36085 0.2910417,-0.0947 2.5929164,-0.72382 5.1152784,-1.39806 z m 126.820469,-3.92812 -0.003,-3.79236 -5.55311,-1.66917 c -3.0542,-0.91804 -6.78341,-2.05669 -8.28713,-2.53033 l -2.73403,-0.86116 v 3.7664 3.7664 l 8.0257,2.51892 c 4.41413,1.38541 8.14476,2.53574 8.29028,2.55629 0.14552,0.0205 0.26316,-1.66919 0.26143,-3.75499 z m 15.87815,-1.29888 1.23472,-0.44782 v -3.49227 c 0,-3.27552 -0.0438,-3.48885 -0.70555,-3.43702 -0.38806,0.0304 -3.80118,1.15694 -7.58473,2.50343 l -6.87916,2.44818 -0.20234,3.49379 c -0.11128,1.92158 -0.15496,3.59123 -0.0971,3.71033 0.0849,0.17468 6.7015,-2.04662 14.23412,-4.77862 z m -123.858252,-0.0213 c 5.312197,-1.45669 9.874098,-2.64853 10.137559,-2.64853 0.814983,0 0.527425,-0.61692 -0.395533,-0.84857 -1.034472,-0.25963 -24.559894,-9.70821 -35.6133593,-14.30349 l -7.73652149,-3.21631 -4.25792361,1.10559 c -2.341858,0.60807 -6.1629236,1.70699 -8.4912576,2.44204 -2.328333,0.73504 -5.153392,1.53979 -6.277908,1.78833 -1.124516,0.24854 -2.111505,0.56019 -2.193309,0.69255 -0.0818,0.13236 0.520755,0.43734 1.339019,0.67773 0.818265,0.24039 4.504004,1.67766 8.190532,3.19394 25.888723,10.6481 34.548127,14.08163 35.106194,13.91995 0.293683,-0.0851 4.880312,-1.34654 10.192508,-2.80323 z m 14.849913,-4.22287 c 1.086765,-0.40693 1.150175,-0.49387 0.529166,-0.72552 -0.924418,-0.34482 -10.416822,-4.24594 -21.872223,-8.98888 -9.7875,-4.05237 -21.0316746,-8.46809 -21.5548385,-8.46485 -0.174562,0.001 -0.9482499,0.17711 -1.7193064,0.39117 l -1.4019211,0.38921 11.632477,4.67824 c 6.397863,2.57303 16.394978,6.60257 22.215811,8.95454 5.820834,2.35197 10.662709,4.26554 10.759723,4.25236 0.09701,-0.0132 0.732014,-0.23199 1.411112,-0.48627 z m 101.423619,-2.16128 c 3.4925,-1.24668 6.58812,-2.35944 6.87916,-2.47281 0.30551,-0.119 -1.21564,-0.85113 -3.59883,-1.73214 -6.08904,-2.25095 -5.57339,-2.17752 -5.57339,-0.79369 0,1.91208 -0.64194,2.45225 -3.20566,2.69745 -2.33204,0.22305 -6.52721,-0.0507 -6.92862,-0.45211 -0.12484,-0.12483 -0.31663,-0.85061 -0.42621,-1.61283 l -0.19923,-1.38587 -4.91193,1.60871 c -3.12381,1.02308 -4.72911,1.70594 -4.40972,1.87579 0.27621,0.14689 3.43908,1.16891 7.02859,2.27116 3.58952,1.10225 6.84389,2.14408 7.23195,2.31517 0.38805,0.1711 0.94368,0.22936 1.23472,0.12947 0.29104,-0.0999 3.38667,-1.20163 6.87917,-2.4483 z M 58.863676,236.5563 c 3.418589,-0.9598 6.263019,-1.79324 6.320957,-1.85208 0.05794,-0.0588 -4.127247,-1.68 -9.30041,-3.60256 -5.173164,-1.92255 -15.243243,-5.68364 -22.377953,-8.35797 l -12.972201,-4.86242 -5.636828,1.29306 c -3.100256,0.71118 -5.6368284,1.37964 -5.6368284,1.48548 0,0.10583 1.2303124,0.65435 2.7340284,1.21895 2.347862,0.88154 15.780072,6.4077 34.660418,14.25968 2.813403,1.17005 5.312811,2.13536 5.55424,2.14515 0.241428,0.01 3.235988,-0.76749 6.654577,-1.72729 z m 109.008104,-0.57682 c -0.11778,-0.30691 -0.21414,-2.34236 -0.21414,-4.52323 v -3.9652 l -3.26319,-1.00039 c -1.79476,-0.55022 -4.57768,-1.36183 -6.18428,-1.8036 l -2.92109,-0.8032 0.0989,4.22732 0.0989,4.22733 5.99722,2.07707 c 3.29848,1.14239 6.13327,2.08716 6.29955,2.09949 0.16628,0.0123 0.20597,-0.22868 0.0882,-0.53559 z m 15.36099,-4.10161 c 0.3242,-0.51103 0.4147,-8.74593 0.0961,-8.74593 -0.11208,0 -3.28708,0.98463 -7.05556,2.18807 l -6.85179,2.18806 v 2.87798 c 0,1.58288 0.0976,3.58983 0.21683,4.45988 l 0.21682,1.5819 6.54426,-2.04715 c 3.59934,-1.12593 6.67433,-2.2522 6.83333,-2.50281 z m -110.336347,0.79061 c 4.624946,-1.32171 5.857917,-1.77543 4.824692,-1.77543 -0.246708,0 -3.72598,-1.24948 -7.731713,-2.77662 -4.005734,-1.52715 -12.839403,-4.88221 -19.630376,-7.45571 -6.790972,-2.57349 -13.213481,-5.06041 -14.272241,-5.52649 l -1.925017,-0.84742 -4.777761,1.27161 c -5.945562,1.58242 -6.003166,1.60235 -5.306927,1.8361 0.291042,0.0977 4.974167,1.83858 10.406945,3.8686 5.432778,2.03003 11.862154,4.40846 14.287501,5.28541 8.02127,2.90031 19.214652,7.27171 19.226947,7.50879 3.05e-4,0.006 2.204383,-0.61907 4.89795,-1.38884 z m 72.143867,0.54209 c 0.39634,-0.24495 0.24574,-53.30495 -0.17933,-63.18207 l -0.19782,-4.59651 -2.70205,-0.60714 c -1.48613,-0.33393 -2.78657,-0.60706 -2.88987,-0.60697 -0.1033,1e-4 -0.22308,6.46924 -0.2662,14.37587 -0.0431,7.90663 -0.17992,23.45138 -0.30402,34.54388 l -0.22565,20.16819 1.02101,0.17234 c 1.32469,0.2236 5.24464,0.041 5.74393,-0.26759 z m 8.83122,-11.25027 c 0.16685,-0.16685 1.7098,-0.80709 3.42878,-1.42275 3.019,-1.08127 3.12925,-1.15933 3.23831,-2.29272 0.096,-0.99763 0.0168,-1.14312 -0.52916,-0.97151 -0.35314,0.11101 -2.97863,0.84164 -5.83443,1.62362 -7.83484,2.14536 -6.97848,1.37431 -6.97848,6.28333 v 4.18246 l 3.08681,1.07008 3.0868,1.07008 0.099,-4.61961 c 0.0545,-2.54079 0.23552,-4.75613 0.40237,-4.92298 z m -66.20902,6.74298 c 3.054404,-0.83292 5.554717,-1.63346 5.556251,-1.77898 0.0015,-0.14552 -0.19565,-0.26494 -0.438184,-0.26537 -0.242535,-4.4e-4 -2.345973,-0.72711 -4.674306,-1.61483 -4.097177,-1.56212 -7.159566,-2.67948 -24.917689,-9.09165 -4.585423,-1.65572 -9.636934,-3.51166 -11.22558,-4.1243 l -2.888449,-1.11391 -5.354976,1.31924 c -2.945237,0.72559 -5.552452,1.4219 -5.793812,1.54738 -0.24136,0.12547 1.50489,0.96766 3.880556,1.87153 32.904167,12.51912 38.663018,14.65169 39.77356,14.72862 0.291042,0.0202 3.028225,-0.64482 6.082629,-1.47773 z m 14.99336,-4.19725 c 3.15158,-0.85276 5.73127,-1.66954 5.73264,-1.81506 10e-4,-0.14552 -0.17583,-0.26458 -0.39377,-0.26458 -0.42387,0 -0.37248,0.018 -26.633448,-9.30752 l -17.328313,-6.15343 -5.711748,1.42972 c -3.141462,0.78635 -5.583097,1.54475 -5.425856,1.68535 0.157242,0.1406 3.381519,1.37621 7.165061,2.7458 3.783542,1.36959 10.847917,3.92651 15.698612,5.68205 4.850695,1.75554 11.43882,4.20999 14.640278,5.45434 3.201459,1.24434 5.979584,2.2245 6.173612,2.17812 0.194028,-0.0464 2.931346,-0.78203 6.082932,-1.63479 z m 72.6658,-0.72625 6.6235,-2.17438 -2.29306,-0.59292 c -1.92405,-0.4975 -2.44101,-0.51936 -3.21249,-0.13583 -0.50569,0.25139 -2.88694,1.02433 -5.29167,1.71765 l -4.37223,1.26056 -2.80323,-0.83637 c -2.30035,-0.68633 -3.02043,-0.7697 -4.01405,-0.46475 -0.66595,0.20438 -1.07138,0.41756 -0.90094,0.47373 2.3031,0.75897 9.19243,2.89348 9.38501,2.90775 0.14062,0.0104 3.23624,-0.95953 6.87916,-2.15544 z m -57.31005,-3.49671 c 3.5339,-0.9848 6.47622,-1.84149 6.53849,-1.90376 0.0623,-0.0623 -1.44461,-0.62579 -3.34864,-1.25225 -3.39869,-1.11824 -33.27354,-12.22386 -37.226717,-13.83859 l -2.014851,-0.82299 -7.069178,1.77751 c -3.888047,0.97763 -7.069177,1.8744 -7.069177,1.99281 0,0.23376 21.486901,7.95864 33.161113,11.92194 3.97757,1.35036 7.94632,2.78036 8.81945,3.17778 0.87312,0.39743 1.63177,0.72608 1.68587,0.73034 0.0541,0.004 2.98975,-0.79799 6.52364,-1.78279 z m 52.54218,0.35933 c 2.18143,-0.59314 4.08664,-1.26782 4.23381,-1.49931 0.33046,-0.51977 0.41636,-6.10803 0.43793,-28.48946 l 0.0169,-17.48527 -5.74406,-0.81836 c -3.15923,-0.45011 -5.83972,-0.72271 -5.95663,-0.60579 -0.26102,0.26102 -0.88218,36.90267 -0.74537,43.96854 l 0.0988,5.10442 1.41112,0.42472 c 1.95872,0.58954 1.82859,0.60203 6.24752,-0.59949 z m -16.30169,-3.63054 6.52639,-1.85976 0.10357,-2.32769 0.10358,-2.3277 -6.62997,1.7295 c -3.64648,0.95122 -6.74902,1.7304 -6.89454,1.7315 -0.14553,0.001 -0.26459,1.11326 -0.26459,2.47145 0,1.3582 0.11906,2.46338 0.26459,2.45595 0.14552,-0.007 3.20145,-0.85038 6.79097,-1.87325 z m -21.80987,-0.62798 c 3.78224,-1.00076 4.17098,-1.1785 4.17098,-1.90711 0,-0.63976 -0.34149,-0.92492 -1.6757,-1.39929 -3.67728,-1.30745 -32.29861,-10.86628 -36.517124,-12.19583 l -4.502543,-1.41907 -4.29298,1.08044 c -2.361139,0.59423 -4.36545,1.1529 -4.454023,1.24147 -0.189342,0.18934 0.135795,0.3189 7.521532,2.99709 3.104445,1.12572 8.898818,3.2824 12.876388,4.79261 8.31904,3.1586 21.45759,7.81968 22.19917,7.87545 0.27683,0.0208 2.38026,-0.45877 4.6743,-1.06576 z m 18.18479,-5.03149 c 0.11,-0.11 -2.92036,-1.27323 -3.31693,-1.27323 -0.0625,0 -0.11355,0.54009 -0.11355,1.2002 v 1.2002 l 1.64747,-0.49582 c 0.90611,-0.2727 1.70847,-0.55681 1.78301,-0.63135 z m -14.01381,-1.97878 c 0,-1.8809 -0.11765,-2.46945 -0.49365,-2.46945 -0.2715,0 -6.26431,-1.89661 -13.31736,-4.2147 -7.05304,-2.31809 -14.06,-4.6153 -15.57102,-5.10491 l -2.7473,-0.89021 -3.20726,0.85832 c -1.763999,0.47208 -3.257817,0.90887 -3.3196,0.97065 -0.06178,0.0618 4.36402,1.59985 9.83512,3.41791 5.4711,1.81807 14.15433,4.78321 19.29607,6.5892 5.14173,1.80599 9.3883,3.29014 9.4368,3.29812 0.0485,0.008 0.0882,-1.09674 0.0882,-2.45493 z m 59.97222,-4.23443 c 9.0223,-2.54095 19.8173,-5.5805 23.98889,-6.75455 4.1716,-1.17406 12.98223,-3.80284 19.57917,-5.84175 6.59695,-2.0389 12.76493,-3.91793 13.70663,-4.1756 0.94171,-0.25768 1.77683,-0.53315 1.85584,-0.61215 0.079,-0.079 -2.06112,-0.24395 -4.75584,-0.36653 -4.28313,-0.19484 -5.16009,-0.137 -6.97111,0.45978 -1.1394,0.37547 -11.75538,3.32605 -23.59107,6.55685 -11.8357,3.2308 -24.61508,6.73039 -28.39862,7.77686 -3.78354,1.04647 -8.74448,2.4045 -11.0243,3.01785 l -4.14514,1.11517 v 2.21579 2.21579 l 1.67569,-0.49379 c 0.92163,-0.27159 9.05757,-2.57276 18.07986,-5.11372 z m -38.98194,4.46964 3.175,-0.80572 0.10561,-1.80211 c 0.087,-1.48421 -0.006,-1.83599 -0.52917,-1.99417 -6.33152,-1.9157 -12.613,-3.7471 -12.85207,-3.7471 -0.16847,0 -0.30632,1.56731 -0.30632,3.4829 v 3.48291 l 3.2632,1.0671 c 1.79475,0.58691 3.42194,1.07943 3.61597,1.09451 0.19403,0.0151 1.78153,-0.33517 3.52778,-0.77832 z m -20.81389,-7.90917 v -3.43854 l -1.94028,-0.59357 c -1.06715,-0.32647 -4.92554,-1.50272 -8.57419,-2.61389 l -6.6339,-2.02031 -5.80151,1.37843 c -5.21861,1.23993 -6.9389,1.87887 -5.18415,1.92545 0.33955,0.009 6.64986,1.98058 14.02292,4.38126 7.37305,2.40068 13.5643,4.37721 13.75833,4.3923 0.21293,0.0165 0.35278,-1.33566 0.35278,-3.41113 z m 24.28506,-4.40868 c 0.37752,-9.95234 0.30498,-15.18301 -0.20798,-14.99576 -0.24253,0.0885 -3.49636,0.93896 -7.23072,1.88983 l -6.78975,1.72885 -0.001,6.62565 c -0.001,5.98239 0.0587,6.64942 0.61614,6.87043 1.04013,0.41239 12.58644,3.91309 12.99725,3.9406 0.25657,0.0172 0.46262,-2.00879 0.61628,-6.0596 z m -24.10867,-4.80219 v -3.83205 l -6.70453,1.65833 c -6.11403,1.51228 -8.02239,2.1209 -6.67163,2.12775 0.27487,0.001 3.19852,0.86344 6.49699,1.91565 3.29847,1.05222 6.19566,1.92421 6.43819,1.93775 0.32723,0.0183 0.44098,-0.96384 0.44098,-3.80743 z m 15.97907,-9.94447 c 3.14422,-0.78612 6.31207,-1.58599 7.03968,-1.77749 l 1.32291,-0.34818 v -1.96783 c 0,-1.8671 -0.0406,-1.95719 -0.79375,-1.75998 -0.43656,0.11431 -3.69014,0.88689 -7.23017,1.71684 l -6.43643,1.509 -0.002,2.02847 c -9.7e-4,1.11566 0.0848,2.02847 0.1905,2.02847 0.10574,0 2.7648,-0.64319 5.90903,-1.4293 z m 7.94101,-7.78878 c 0.71327,-0.26684 0.79992,-0.50558 0.70555,-1.94398 l -0.10758,-1.63978 -1.74924,-0.44238 c -0.97582,-0.24679 -2.03181,-0.79135 -2.38833,-1.23164 -0.56576,-0.69868 -4.88206,-2.19221 -9.53257,-3.29847 l -0.97014,-0.23078 v 6.13178 6.13178 l 6.61459,-1.58617 c 3.63802,-0.87239 6.98049,-1.72305 7.42772,-1.89036 z m 24.62607,-3.44827 c 1.54082,-0.93956 2.96152,-3.91816 2.95166,-6.18833 -0.0108,-2.47809 -1.00421,-4.51163 -2.56615,-5.25281 -1.89771,-0.90053 -19.01645,-5.14194 -21.79598,-5.40027 -2.37072,-0.22034 -2.49239,-0.1915 -4.32438,1.02487 -1.15809,0.76893 -2.11719,1.74082 -2.48704,2.52021 -1.35697,2.85962 -1.0067,7.32988 0.73669,9.40178 1.32059,1.56943 3.26459,1.98505 19.50849,4.17082 4.1147,0.55367 6.76628,0.46184 7.97671,-0.27627 z m -30.40199,-6.29546 c -0.12775,-0.7276 -0.33645,-1.85913 -0.46379,-2.51452 l -0.23154,-1.1916 -1.65971,1.94272 -1.65972,1.94271 1.84294,0.54335 c 2.50781,0.73937 2.43287,0.7643 2.17182,-0.72266 z m -2.86321,-3.79041 c 1.64331,-1.84219 3.3,-3.98038 3.68153,-4.75153 l 0.69371,-1.4021 -1.09685,-0.34834 c -0.95594,-0.30359 -6.3712,-1.66167 -9.08176,-2.2776 -0.82975,-0.18855 -1.13221,0.0583 -2.82222,2.30314 -3.80911,5.05971 -5.24423,7.12126 -5.0751,7.29039 0.21446,0.21446 9.31085,2.467 10.12255,2.50665 0.32467,0.0159 1.93484,-1.47842 3.57814,-3.32061 z m -13.73155,-2.62399 c 1.07487,-1.53396 2.68699,-3.68854 3.58248,-4.78796 0.89548,-1.09942 1.57558,-2.03781 1.51133,-2.08532 -0.0643,-0.0475 -2.69515,-0.64093 -5.84644,-1.31871 l -5.72962,-1.23232 -0.65997,0.73151 c -1.58595,1.75787 -6.75739,8.78362 -6.58917,8.95184 0.2697,0.2697 11.2558,2.79324 11.53856,2.65043 0.13118,-0.0662 1.11796,-1.37552 2.19283,-2.90947 z m -12.03743,-5.37069 3.37677,-4.46495 -4.64645,-1.08978 c -2.55556,-0.59937 -5.12271,-1.17958 -5.7048,-1.28935 -0.99819,-0.18824 -1.23875,0.0247 -4.23333,3.74707 -1.74625,2.17066 -3.44953,4.30086 -3.78508,4.73378 -0.60998,0.787 -0.60971,0.78723 1.5875,1.36723 6.71012,1.77127 9.26017,2.26501 9.64088,1.86666 0.21326,-0.22314 1.90729,-2.41493 3.76451,-4.87066 z m -13.67745,-2.84935 3.74037,-4.66848 -5.22148,-1.13375 c -2.87181,-0.62357 -5.64819,-1.18182 -6.16973,-1.24056 -0.84797,-0.0955 -1.30375,0.37818 -4.31002,4.47932 l -3.361765,4.58611 5.191965,1.28843 c 2.85558,0.70864 5.46159,1.30395 5.79113,1.32292 0.36674,0.0211 2.05004,-1.77641 4.33953,-4.63399 z m -13.844948,-3.01637 c 1.748538,-2.3834 3.086748,-4.42586 2.973808,-4.53881 -0.25276,-0.25275 -11.081063,-2.56987 -12.05922,-2.58052 -0.423636,-0.005 -1.057956,0.5119 -1.5875,1.29266 -0.48507,0.71518 -1.879305,2.64038 -3.098301,4.27822 -1.218995,1.63784 -2.135607,3.05864 -2.036914,3.15734 0.336392,0.33639 10.952929,2.84204 11.792507,2.78319 0.634239,-0.0445 1.605039,-1.10626 4.01562,-4.39208 z m 46.037758,-33.85474 -0.0898,-36.600693 -1.85209,-0.10663 c -1.01864,-0.05865 -1.85036,-0.05865 -1.84826,0 0.002,0.05865 0.24022,0.885923 0.52916,1.838392 1.055,3.477683 0.41734,8.553579 -1.4884,11.848026 l -0.91957,1.589656 -0.16255,28.435819 -0.16255,28.43582 2.59935,0.54074 c 1.42964,0.29741 2.79853,0.55848 3.04196,0.58015 0.3529,0.0314 0.42441,-7.37918 0.35278,-36.56128 z m -60.741784,30.56751 c 1.67556,-2.3327 2.990205,-4.29679 2.921432,-4.36465 -0.06877,-0.0679 -2.557465,-0.6653 -5.530428,-1.32765 l -5.405388,-1.20426 -2.962674,3.96419 c -1.62947,2.18031 -3.007046,4.16675 -3.061279,4.41432 -0.06739,0.30763 1.576474,0.85854 5.193061,1.74033 2.910417,0.70962 5.405773,1.22919 5.545235,1.1546 0.139463,-0.0746 1.624481,-2.04418 3.300041,-4.37688 z M 70.97322,141.22258 c 1.752336,-2.36404 3.148123,-4.33619 3.101748,-4.38257 -0.0974,-0.0974 -8.69303,-2.06394 -10.389058,-2.37685 -1.116499,-0.20598 -1.188143,-0.13558 -3.972274,3.90348 -1.559398,2.26229 -2.71462,4.22215 -2.567161,4.35525 0.147459,0.13309 2.252482,0.6815 4.67783,1.21869 2.425347,0.53718 4.727222,1.10244 5.115278,1.25612 0.388055,0.15367 0.737509,0.28947 0.776563,0.30177 0.03906,0.0123 1.504738,-1.91185 3.257074,-4.27589 z m -14.264193,-1.61727 c 0.970139,-1.4956 2.270657,-3.38518 2.89004,-4.19907 l 1.126151,-1.47979 -2.360873,-0.53086 c -4.694415,-1.05556 -8.875907,-1.76204 -9.100404,-1.53754 -0.820159,0.82016 -1.121579,7.50551 -0.383884,8.51436 0.355534,0.48622 3.826829,1.62165 5.888692,1.92613 0.09701,0.0143 0.970139,-1.19763 1.940278,-2.69323 z M 163.33968,96.538274 c 5.59857,-1.742473 8.90408,-6.280587 8.90408,-12.224384 0,-5.066648 -2.28222,-8.702482 -6.87214,-10.94812 -2.8634,-1.400932 -6.90158,-1.617961 -9.79544,-0.52645 -2.81184,1.06058 -5.58764,3.67721 -7.04822,6.644082 -1.03094,2.094118 -1.15504,2.669192 -1.15504,5.352237 0,2.510784 0.15316,3.332666 0.92963,4.988644 2.76981,5.907179 8.87335,8.632373 15.03713,6.713991 z m -5.19649,-3.973825 c -5.36171,-2.139839 -6.82978,-9.31455 -2.7423,-13.402033 1.6218,-1.621797 3.25236,-2.166403 5.94494,-1.985597 4.22736,0.283867 6.78455,2.597556 7.25426,6.563501 0.57738,4.875056 -3.15925,9.254456 -7.8448,9.194264 -0.95739,-0.0123 -2.13283,-0.178859 -2.6121,-0.370135 z m 5.66153,-2.173537 c 2.50177,-1.685943 3.58095,-4.472975 2.82591,-7.29806 -0.49681,-1.858922 -1.50582,-3.081151 -3.10679,-3.763316 -4.00729,-1.707482 -8.62499,1.363644 -8.62499,5.736277 0,4.509627 5.36009,7.714596 8.90587,5.325099 z m -31.77763,4.514375 c 2.18988,-0.75134 4.89227,-2.870529 6.26488,-4.912869 3.61146,-5.373603 2.64487,-12.254651 -2.37418,-16.901402 -2.66596,-2.468216 -4.73739,-3.216274 -8.27705,-2.989112 -7.53069,0.48329 -13.28543,7.269724 -12.17886,14.362232 1.31154,8.406211 8.77855,13.112716 16.56521,10.441151 z m -7.2729,-5.09269 c -2.76195,-1.254252 -4.18075,-4.168391 -3.95704,-8.127545 0.22821,-4.038729 2.47983,-6.355945 6.74393,-6.940406 6.94167,-0.951461 11.33512,7.084894 7.03621,12.870401 -1.90731,2.566872 -6.6657,3.631383 -9.8231,2.19755 z m 5.96131,-1.574703 c 3.36951,-1.441717 4.72219,-5.384662 2.97849,-8.682052 -1.03302,-1.953473 -2.63666,-2.826845 -5.18918,-2.826125 -3.76849,0.0011 -5.70316,1.765192 -5.93538,5.412183 -0.25503,4.005096 1.8263,6.57766 5.32385,6.580394 0.92786,7.25e-4 2.19786,-0.217255 2.82222,-0.4844 z m 16.65742,-11.155948 c 0.11992,-0.194028 0.0593,-0.352778 -0.13475,-0.352778 -0.19403,0 -0.45089,0.15875 -0.5708,0.352778 -0.11992,0.194028 -0.0593,0.352778 0.13474,0.352778 0.19403,0 0.4509,-0.15875 0.57081,-0.352778 z m 3.51343,-3.30876 1.39676,-1.181598 -3.16065,-0.271501 c -5.08997,-0.437231 -11.50891,-0.721932 -11.63595,-0.516091 -0.0645,0.104557 0.49995,0.85862 1.25441,1.675694 l 1.37175,1.48559 4.68846,-0.0052 4.68846,-0.0052 z m -6.2427,-15.423935 0.0929,-11.500752 -1.75353,-1.64022 c -1.91396,-1.790286 -2.02696,-1.834967 -2.92186,-1.155297 -0.55597,0.422261 -0.6104,1.54885 -0.62585,12.953363 -0.009,6.869984 -0.0131,12.616896 -0.008,12.770918 0.005,0.154021 1.15943,0.233396 2.56613,0.176388 l 2.55764,-0.103649 z m 28.88365,8.413945 c 2.24066,-2.402779 6.83035,-8.302875 6.83035,-8.780488 0,-0.432921 -3.28213,-3.585633 -4.47896,-4.302355 -0.2685,-0.160788 -1.88011,1.45099 -4.43023,4.430686 -2.20453,2.575874 -4.11745,4.8657 -4.25094,5.088501 -0.21364,0.356548 4.45156,4.710184 5.04726,4.710184 0.11734,0 0.69447,-0.515937 1.28252,-1.146528 z m -58.32205,-5.971522 c 2.93432,-2.254217 3.30997,-2.661672 2.94854,-3.198199 -2.44574,-3.63056 -7.20184,-9.730749 -7.50773,-9.629428 -0.59824,0.198163 -7.54675,5.227708 -7.54675,5.462574 0,0.113539 1.76394,2.47638 3.91988,5.250756 2.34605,3.019032 4.10124,4.974723 4.3716,4.870978 0.24845,-0.09534 1.96496,-1.335845 3.81446,-2.756681 z m 54.5658,-3.504551 c 3.57613,-4.131235 4.22805,-5.055179 3.83195,-5.430891 -0.26251,-0.249004 -1.72878,-1.506777 -3.25838,-2.795052 -2.64553,-2.228162 -2.81309,-2.313344 -3.43801,-1.747799 -0.86869,0.786153 -7.87604,8.935975 -7.94817,9.244034 -0.0399,0.170452 5.9886,5.481422 6.45475,5.686484 0.0267,0.01176 1.98777,-2.21879 4.35786,-4.956776 z m -45.76966,-3.312788 c 2.0858,-1.647875 3.79236,-3.09452 3.79236,-3.214767 0,-0.120247 -1.59896,-2.218989 -3.55326,-4.663872 -1.95429,-2.444883 -3.68355,-4.678058 -3.84279,-4.962611 -0.22932,-0.409772 -1.10398,0.09043 -4.20566,2.405156 -2.71101,2.023177 -3.83538,3.065219 -3.65373,3.386222 0.50104,0.885437 7.31894,10.00683 7.49433,10.026363 0.097,0.0108 1.88295,-1.328617 3.96875,-2.976491 z m 37.69286,-3.520923 c 2.21044,-2.615972 4.0515,-4.878159 4.09122,-5.027083 0.0941,-0.352761 -5.79924,-5.106635 -6.40301,-5.164996 -0.25413,-0.02457 -2.24599,2.075674 -4.42634,4.667198 l -3.96427,4.711862 0.83637,0.81016 c 1.50331,1.4562 5.41215,4.759172 5.63216,4.759172 0.11818,0 2.02342,-2.140341 4.23387,-4.756313 z m -27.07543,-4.630596 c 2.68664,-2.056332 4.75039,-3.857069 4.58611,-4.001639 -0.16427,-0.144569 -2.40752,-2.041966 -4.985,-4.216437 l -4.68633,-3.953584 -2.54562,1.843227 c -1.40009,1.013775 -3.22284,2.356462 -4.05057,2.983749 l -1.50495,1.140523 3.90187,4.973312 c 2.14603,2.735323 4.01389,4.972485 4.15079,4.971473 0.1369,-10e-4 2.44707,-1.684293 5.1337,-3.740624 z m 19.42195,-2.607535 c 1.8555,-2.23132 3.37649,-4.239453 3.37998,-4.462518 0.008,-0.48645 -3.77235,-4.004149 -4.30267,-4.004149 -0.37238,0 -7.18702,4.819562 -9.38427,6.636889 l -1.16966,0.96742 3.46272,3.044608 c 3.22818,2.838387 3.5026,3.004987 4.05149,2.459651 0.32383,-0.321726 2.10691,-2.410582 3.96241,-4.641901 z m -8.07896,-5.816705 c 2.52236,-1.877586 4.81513,-3.54317 5.09505,-3.701298 0.55938,-0.316002 -0.66574,-1.534838 -6.48177,-6.448524 l -3.1506,-2.661797 -5.20843,3.934301 c -2.86464,2.163865 -5.20616,4.013676 -5.20338,4.11069 0.008,0.274607 9.98793,8.38202 10.18663,8.275223 0.097,-0.05214 2.24014,-1.63101 4.7625,-3.508595 z m 11.47071,-8.470795 c 2.12274,-1.552222 3.86303,-2.929391 3.86732,-3.060376 0.004,-0.130984 -1.46063,-2.217757 -3.25539,-4.637273 -1.79476,-2.419516 -3.42567,-4.672075 -3.62425,-5.005686 -0.31747,-0.533335 -0.95633,-0.172548 -5.29167,2.988403 -2.71183,1.977232 -5.16873,3.733159 -5.45978,3.902059 -0.65355,0.379277 -0.593,0.443676 4.93889,5.253076 2.23132,1.939897 4.26134,3.494445 4.51116,3.454552 0.24981,-0.03989 2.19099,-1.342533 4.31372,-2.894755 z m -18.4386,-4.882992 c 0.75945,-0.676953 0.76696,-0.736682 0.17639,-1.402664 -1.03342,-1.165382 -7.88433,-7.296288 -8.15315,-7.296288 -0.31477,0 -8.33868,9.807392 -8.33868,10.192129 0,0.154778 1.50812,1.552003 3.35138,3.104946 l 3.35139,2.823532 4.40973,-3.357297 c 2.42534,-1.846514 4.76667,-3.675475 5.20294,-4.064358 z m 27.89044,-1.996174 c 1.96386,-1.455209 3.57624,-2.775736 3.58308,-2.934505 0.007,-0.158769 -1.37664,-2.226551 -3.07438,-4.595071 -1.69774,-2.368521 -3.32493,-4.6697414 -3.61597,-5.113824 l -0.52917,-0.807423 -3.80578,2.90825 c -2.59424,1.982437 -3.74279,3.07239 -3.60792,3.423862 0.32457,0.845804 7.04044,9.949327 7.2689,9.853171 0.11582,-0.04875 1.81738,-1.279252 3.78124,-2.73446 z m -42.30742,-1.939949 c 1.95409,-2.425166 3.82865,-4.830244 4.16568,-5.344618 0.60842,-0.928574 0.60422,-0.941747 -0.59144,-1.852412 -0.66232,-0.504453 -2.22558,-1.778601 -3.4739,-2.83144 l -2.26967,-1.9142529 -0.74651,1.0288805 c -0.41058,0.5658842 -2.23686,2.9091084 -4.05839,5.2071654 -3.24135,4.089322 -3.29769,4.192295 -2.64583,4.836281 0.619,0.611526 5.89068,5.226275 6.01244,5.263193 0.0301,0.0091 1.65353,-1.967631 3.60762,-4.392797 z m 18.94162,0.793421 1.58403,-1.146528 -0.22561,-2.998611 c -0.12408,-1.649236 -0.40701,-3.115242 -0.62872,-3.257792 -0.57511,-0.36976 -2.49289,-0.329809 -3.55515,0.07406 -0.88096,0.33494 -0.90491,0.430046 -0.90491,3.593235 0,2.850489 0.0941,3.349378 0.76705,4.065676 0.42188,0.449068 0.9048,0.816487 1.07316,0.816487 0.16837,0 1.01893,-0.515938 1.89015,-1.146528 z m 33.57589,-6.395842 c 0.82462,-0.583064 1.49931,-1.287274 1.49931,-1.56491 0,-0.478169 -6.47504,-9.7603269 -7.06139,-10.1227131 -0.43253,-0.2673167 -6.52624,4.3881089 -6.47394,4.9459093 0.0256,0.2734736 1.61314,2.7050608 3.52778,5.4035278 l 3.48116,4.906302 1.76389,-1.253999 c 0.97013,-0.6897 2.43857,-1.731052 3.26319,-2.314117 z m -60.25248,-2.009858 c 2.14293,-2.7313635 3.89623,-5.1044409 3.89623,-5.2735049 0,-0.1690639 -1.45576,-1.5663399 -3.23502,-3.1050577 l -3.23501,-2.7976687 -1.48177,1.9857575 c -0.81497,1.0921666 -2.61111,3.4145075 -3.99142,5.1607574 -1.38032,1.7462504 -2.51214,3.2895664 -2.51517,3.4295924 -0.005,0.236057 6.25656,5.566241 6.53897,5.566241 0.0698,0 1.88027,-2.234753 4.02319,-4.966117 z m -8.09822,-6.7443451 c 2.03729,-2.7395607 3.7526,-5.17914631 3.81179,-5.42130128 0.10092,-0.41285155 -6.11179,-5.79879182 -6.68894,-5.79879182 -0.35902,0 -6.55218,8.2844409 -7.826781,10.4696921 -0.150453,0.257947 1.050574,1.4285486 3.167031,3.0868055 1.87518,1.4692038 3.50465,2.6652806 3.62107,2.6579476 0.11642,-0.0073 1.87854,-2.2547913 3.91583,-4.9943521 z"
       id="path138" /><path
       style="fill:#000000"
       d="m 219.64448,262.43218 c -3.27238,-0.70495 -6.03861,-2.19079 -6.76173,-3.63197 -1.52126,-3.03185 1.91249,-5.60433 8.36276,-6.26518 l 2.21209,-0.22663 0.23592,-4.62905 c 0.12976,-2.54597 0.18462,-6.19628 0.12191,-8.11179 l -0.11401,-3.48276 -7.35771,-1.82141 c -5.46393,-1.3526 -7.49327,-1.99979 -7.88435,-2.51447 -0.454,-0.59746 -0.49394,-2.32321 -0.28957,-12.51111 0.27058,-13.48859 0.041,-12.61268 3.53719,-13.49361 1.16416,-0.29333 3.94229,-1.04283 6.17361,-1.66556 4.84064,-1.35096 5.13966,-1.33923 17.08692,0.67022 6.43033,1.08153 8.1923,1.49531 8.58421,2.01588 0.40611,0.53942 0.47185,2.84696 0.37255,13.07582 -0.0844,8.69025 -0.24154,12.54177 -0.5233,12.82353 -0.67884,0.67885 -10.81372,4.56291 -11.90954,4.56419 -0.56619,6.6e-4 -2.04328,-0.17536 -3.28243,-0.39115 -1.23914,-0.21578 -2.30732,-0.33485 -2.37373,-0.26458 -0.0664,0.0703 -0.23506,3.62026 -0.37478,7.88887 l -0.25402,7.76111 2.59886,0.096 c 3.75628,0.13877 6.47475,0.99473 8.11517,2.55523 1.006,0.95699 1.36287,1.5808 1.36287,2.38235 0,4.06205 -9.65642,6.89568 -17.63889,5.17606 z m 11.49645,-2.05152 c 6.94842,-2.1943 5.16133,-5.91658 -3.11287,-6.4837 l -2.73914,-0.18775 v 1.59472 c 0,1.77775 -0.83688,2.95263 -1.4326,2.0112 -0.17626,-0.27857 -0.32292,-1.1018 -0.32589,-1.8294 -0.005,-1.2995 -0.0295,-1.32292 -1.36836,-1.32292 -1.90961,0 -4.81716,0.59184 -6.25163,1.27254 -2.86583,1.35993 -1.37814,3.97925 2.91724,5.13624 2.95589,0.7962 9.50921,0.69459 12.31325,-0.19093 z m -0.56034,-36.55674 c 0,-6.40292 -0.0927,-11.64167 -0.20593,-11.64167 -0.49955,0 -15.21391,-2.53182 -17.45864,-3.00401 -1.36944,-0.28807 -2.59858,-0.52376 -2.73141,-0.52376 -0.13284,0 -0.29571,4.98305 -0.36194,11.07345 l -0.12042,11.07344 1.70792,0.56303 c 2.70105,0.89043 16.736,3.94206 18.72945,4.07236 0.34445,0.0225 0.44097,-2.51932 0.44097,-11.61284 z m 11.55825,-3.62189 0.093,-11.48916 -4.93364,1.63544 -4.93364,1.63544 -0.0982,10.418 c -0.054,5.7299 -0.0437,10.99394 0.0229,11.69786 l 0.12114,1.27986 4.81775,-1.84413 4.81775,-1.84414 z m -5.80382,-11.28805 4.51971,-1.51206 -9.10582,-1.50593 -9.10582,-1.50592 -4.92969,1.44684 c -2.71132,0.79576 -4.97113,1.48829 -5.02179,1.53895 -0.17916,0.17916 18.07329,3.29361 18.59453,3.17281 0.29104,-0.0674 2.56304,-0.80305 5.04888,-1.63469 z"
       id="path139" /><path
       style="fill:#000000"
       d="m 14.171706,321.28744 c -3.27238,-0.70495 -6.0386103,-2.19079 -6.7617303,-3.63197 -1.52126,-3.03185 1.91249,-5.60433 8.3627603,-6.26518 l 2.21209,-0.22663 0.23592,-4.62905 c 0.12976,-2.54597 0.18462,-6.19628 0.12191,-8.11179 l -0.11401,-3.48276 -7.35771,-1.82141 c -5.4639303,-1.3526 -7.4932703,-1.99979 -7.8843503,-2.51447 -0.454,-0.59746 -0.49394,-2.32321 -0.28957,-12.51111 0.27058,-13.48859 0.041,-12.61268 3.53719,-13.49361 1.16416,-0.29333 3.9422903,-1.04283 6.1736103,-1.66556 4.84064,-1.35096 5.13966,-1.33923 17.08692,0.67022 6.43033,1.08153 8.1923,1.49531 8.58421,2.01588 0.40611,0.53942 0.47185,2.84696 0.37255,13.07582 -0.0844,8.69025 -0.24154,12.54177 -0.5233,12.82353 -0.67884,0.67885 -10.81372,4.56291 -11.90954,4.56419 -0.56619,6.6e-4 -2.04328,-0.17536 -3.28243,-0.39115 -1.23914,-0.21578 -2.30732,-0.33485 -2.37373,-0.26458 -0.0664,0.0703 -0.23506,3.62026 -0.37478,7.88887 l -0.25402,7.76111 2.59886,0.096 c 3.75628,0.13877 6.47475,0.99473 8.11517,2.55523 1.006,0.95699 1.36287,1.5808 1.36287,2.38235 0,4.06205 -9.65642,6.89568 -17.63889,5.17606 z m 11.49645,-2.05152 c 6.94842,-2.1943 5.16133,-5.91658 -3.11287,-6.4837 l -2.73914,-0.18775 v 1.59472 c 0,1.77775 -0.83688,2.95263 -1.4326,2.0112 -0.17626,-0.27857 -0.32292,-1.1018 -0.32589,-1.8294 -0.005,-1.2995 -0.0295,-1.32292 -1.36836,-1.32292 -1.90961,0 -4.81716,0.59184 -6.25163,1.27254 -2.8658303,1.35993 -1.3781403,3.97925 2.91724,5.13624 2.95589,0.7962 9.50921,0.69459 12.31325,-0.19093 z m -0.56034,-36.55674 c 0,-6.40292 -0.0927,-11.64167 -0.20593,-11.64167 -0.49955,0 -15.2139103,-2.53182 -17.4586403,-3.00401 -1.36944,-0.28807 -2.59858,-0.52376 -2.73141,-0.52376 -0.13284,0 -0.29571,4.98305 -0.36194,11.07345 l -0.12042,11.07344 1.70792,0.56303 c 2.70105,0.89043 16.7360003,3.94206 18.7294503,4.07236 0.34445,0.0225 0.44097,-2.51932 0.44097,-11.61284 z m 11.55825,-3.62189 0.093,-11.48916 -4.93364,1.63544 -4.93364,1.63544 -0.0982,10.418 c -0.054,5.7299 -0.0437,10.99394 0.0229,11.69786 l 0.12114,1.27986 4.81775,-1.84413 4.81775,-1.84414 z m -5.80382,-11.28805 4.51971,-1.51206 -9.10582,-1.50593 -9.10582,-1.50592 -4.92969,1.44684 c -2.7113203,0.79576 -4.9711303,1.48829 -5.0217903,1.53895 -0.17916,0.17916 18.0732903,3.29361 18.5945303,3.17281 0.29104,-0.0674 2.56304,-0.80305 5.04888,-1.63469 z"
       id="path139-5" /><path
       style="fill:#000000"
       d="m 365.07701,192.50211 c -3.27238,-0.70495 -6.03861,-2.19079 -6.76173,-3.63197 -1.52126,-3.03185 1.91249,-5.60433 8.36276,-6.26518 l 2.21209,-0.22663 0.23592,-4.62905 c 0.12976,-2.54597 0.18462,-6.19628 0.12191,-8.11179 l -0.11401,-3.48276 -7.35771,-1.82141 c -5.46393,-1.3526 -7.49327,-1.99979 -7.88435,-2.51447 -0.454,-0.59746 -0.49394,-2.32321 -0.28957,-12.51111 0.27058,-13.48859 0.041,-12.61268 3.53719,-13.49361 1.16416,-0.29333 3.94229,-1.04283 6.17361,-1.66556 4.84064,-1.35096 5.13966,-1.33923 17.08692,0.67022 6.43033,1.08153 8.1923,1.49531 8.58421,2.01588 0.40611,0.53942 0.47185,2.84696 0.37255,13.07582 -0.0844,8.69025 -0.24154,12.54177 -0.5233,12.82353 -0.67884,0.67885 -10.81372,4.56291 -11.90954,4.56419 -0.56619,6.6e-4 -2.04328,-0.17536 -3.28243,-0.39115 -1.23914,-0.21578 -2.30732,-0.33485 -2.37373,-0.26458 -0.0664,0.0703 -0.23506,3.62026 -0.37478,7.88887 l -0.25402,7.76111 2.59886,0.096 c 3.75628,0.13877 6.47475,0.99473 8.11517,2.55523 1.006,0.95699 1.36287,1.5808 1.36287,2.38235 0,4.06205 -9.65642,6.89568 -17.63889,5.17606 z m 11.49645,-2.05152 c 6.94842,-2.1943 5.16133,-5.91658 -3.11287,-6.4837 l -2.73914,-0.18775 v 1.59472 c 0,1.77775 -0.83688,2.95263 -1.4326,2.0112 -0.17626,-0.27857 -0.32292,-1.1018 -0.32589,-1.8294 -0.005,-1.2995 -0.0295,-1.32292 -1.36836,-1.32292 -1.90961,0 -4.81716,0.59184 -6.25163,1.27254 -2.86583,1.35993 -1.37814,3.97925 2.91724,5.13624 2.95589,0.7962 9.50921,0.69459 12.31325,-0.19093 z m -0.56034,-36.55674 c 0,-6.40292 -0.0927,-11.64167 -0.20593,-11.64167 -0.49955,0 -15.21391,-2.53182 -17.45864,-3.00401 -1.36944,-0.28807 -2.59858,-0.52376 -2.73141,-0.52376 -0.13284,0 -0.29571,4.98305 -0.36194,11.07345 l -0.12042,11.07344 1.70792,0.56303 c 2.70105,0.89043 16.736,3.94206 18.72945,4.07236 0.34445,0.0225 0.44097,-2.51932 0.44097,-11.61284 z m 11.55825,-3.62189 0.093,-11.48916 -4.93364,1.63544 -4.93364,1.63544 -0.0982,10.418 c -0.054,5.7299 -0.0437,10.99394 0.0229,11.69786 l 0.12114,1.27986 4.81775,-1.84413 4.81775,-1.84414 z m -5.80382,-11.28805 4.51971,-1.51206 -9.10582,-1.50593 -9.10582,-1.50592 -4.92969,1.44684 c -2.71132,0.79576 -4.97113,1.48829 -5.02179,1.53895 -0.17916,0.17916 18.07329,3.29361 18.59453,3.17281 0.29104,-0.0674 2.56304,-0.80305 5.04888,-1.63469 z"
       id="path139-4" /><path
       d="m 39.426629,320.92288 3.879175,-10.10101 h 1.440049 l 4.134111,10.10101 h -1.522731 l -1.178222,-3.05924 h -4.223683 l -1.10932,3.05924 z m 2.914549,-4.14789 H 45.7656 l -1.054198,-2.79742 q -0.482313,-1.27468 -0.71658,-2.09461 -0.192925,0.97151 -0.544324,1.92925 z"
       id="text139"
       style="font-size:14.1111px;font-family:Arial;-inkscape-font-specification:Arial;stroke-width:0.264583"
       aria-label="A" /><path
       d="M 246.2419,260.11981 V 250.0188 h 3.7896 q 1.15756,0 1.85346,0.31006 0.7028,0.30317 1.09554,0.94395 0.39963,0.6339 0.39963,1.32981 0,0.64768 -0.3514,1.21956 -0.35139,0.57189 -1.06108,0.92329 0.91639,0.26871 1.40559,0.91639 0.4961,0.64768 0.4961,1.52962 0,0.70969 -0.30317,1.32292 -0.29628,0.60634 -0.73725,0.93706 -0.44097,0.33073 -1.10932,0.50299 -0.66146,0.16536 -1.62608,0.16536 z m 1.3367,-5.85666 h 2.18419 q 0.88883,0 1.27468,-0.11713 0.50987,-0.15158 0.76481,-0.50298 0.26183,-0.3514 0.26183,-0.88195 0,-0.50298 -0.24116,-0.88194 -0.24115,-0.38585 -0.68902,-0.52365 -0.44786,-0.1447 -1.53651,-0.1447 h -2.01882 z m 0,4.66466 h 2.51492 q 0.64767,0 0.9095,-0.0482 0.46164,-0.0827 0.7717,-0.27561 0.31006,-0.19292 0.50987,-0.5581 0.19982,-0.37207 0.19982,-0.85439 0,-0.56499 -0.28939,-0.9784 -0.28939,-0.4203 -0.80615,-0.58567 -0.50987,-0.17225 -1.4745,-0.17225 h -2.33577 z"
       id="text139-1"
       style="font-size:14.1111px;font-family:Arial;-inkscape-font-specification:Arial;stroke-width:0.264583"
       aria-label="B" /><path
       d="m 399.39097,186.01628 1.33669,0.33761 q -0.4203,1.64676 -1.51584,2.51492 -1.08865,0.86128 -2.6665,0.86128 -1.63297,0 -2.65961,-0.66146 -1.01975,-0.66835 -1.55718,-1.92925 -0.53055,-1.26091 -0.53055,-2.70785 0,-1.57785 0.59945,-2.74918 0.60634,-1.17822 1.71566,-1.78456 1.11621,-0.61323 2.4529,-0.61323 1.51584,0 2.54937,0.7717 1.03353,0.77171 1.44005,2.17041 l -1.31603,0.31006 q -0.3514,-1.10243 -1.01974,-1.60541 -0.66835,-0.50299 -1.68121,-0.50299 -1.16444,0 -1.94992,0.55811 -0.77859,0.5581 -1.09554,1.50206 -0.31695,0.93707 -0.31695,1.93614 0,1.28847 0.37207,2.25309 0.37896,0.95774 1.17133,1.43316 0.79237,0.47542 1.71566,0.47542 1.1231,0 1.90169,-0.64767 0.77859,-0.64768 1.0542,-1.92236 z"
       id="text139-18"
       style="font-size:14.1111px;font-family:Arial;-inkscape-font-specification:Arial;stroke-width:0.264583"
       aria-label="C" /></g></svg>
