<?xml version="1.0" encoding="UTF-8"?>
<svg width="1200pt" height="1200pt" version="1.1" viewBox="0 0 1200 1200" xmlns="http://www.w3.org/2000/svg">
 <path d="m985.74 517.55c-40.406 0-74.109 29.203-81.094 67.641h-95.203c8.4844-5.8594 15.938-12.516 22.219-19.875 8.0625-9.4688 10.078-22.547 5.2969-34.125l-23.391-56.531c-2.7656-6.6562-8.6719-11.438-15.75-12.75-12.516-2.3438-25.453-2.3438-38.578-0.046875l95.016-95.016c5.6719 2.6719 11.953 4.1719 18.609 4.1719 24.094 0 43.734-19.641 43.734-43.734s-19.641-43.734-43.734-43.734-43.734 19.641-43.734 43.734c0 6.6562 1.5 12.938 4.1719 18.609l-95.531 95.531c2.3906-13.266 2.625-26.25 0.51562-38.719-1.2188-7.2656-6-13.312-12.844-16.125l-63-26.109c-6.6562-2.7656-14.203-1.9688-20.156 2.1094-10.547 7.2188-19.688 16.406-27.375 27.328v-94.547c38.391-7.0312 67.641-40.688 67.641-81.094 0-45.469-36.984-82.453-82.453-82.453s-82.453 36.984-82.453 82.453c0 40.406 29.203 74.109 67.641 81.094v95.109c-5.8125-8.3906-12.422-15.797-19.734-21.984-9.4688-8.0625-22.547-10.078-34.125-5.2969l-56.531 23.391c-6.6562 2.7656-11.438 8.6719-12.797 15.75-2.3438 12.516-2.3438 25.5 0 38.672l-95.156-95.156c2.6719-5.6719 4.1719-11.953 4.1719-18.609 0-24.094-19.641-43.734-43.734-43.734s-43.734 19.641-43.734 43.734 19.641 43.734 43.734 43.734c6.6562 0 12.938-1.5 18.609-4.1719l95.578 95.578c-13.266-2.3906-26.203-2.5781-38.625-0.51562-7.2656 1.2188-13.312 6-16.125 12.844l-26.109 63c-2.7656 6.6562-1.9688 14.203 2.1094 20.156 7.1719 10.453 16.312 19.594 27.234 27.281h-94.547c-7.0312-38.391-40.688-67.641-81.094-67.641-45.469 0-82.453 36.984-82.453 82.453s36.984 82.453 82.453 82.453c40.406 0 74.109-29.203 81.094-67.641h95.391c-11.109 7.6875-20.438 16.734-27.797 27-4.2656 6-5.1562 13.641-2.3438 20.484l26.109 62.953c2.7656 6.6562 8.6719 11.438 15.75 12.75 12.422 2.3438 25.312 2.3438 38.344 0.046875l-95.016 95.016c-5.6719-2.6719-11.953-4.1719-18.609-4.1719-24.094 0-43.734 19.641-43.734 43.734s19.641 43.734 43.734 43.734 43.734-19.641 43.734-43.734c0-6.6562-1.5-12.938-4.1719-18.609l95.812-95.812c-2.4375 13.359-2.6719 26.391-0.5625 38.906 1.2188 7.2656 6 13.312 12.844 16.125l63 26.109c2.625 1.0781 5.3906 1.6406 8.1562 1.6406 4.2188 0 8.3906-1.2656 12-3.7031 10.406-7.125 19.5-16.219 27.141-27v94.266c-38.391 7.0312-67.641 40.688-67.641 81.094 0 45.469 36.984 82.453 82.453 82.453s82.453-36.984 82.453-82.453c0-40.406-29.203-74.109-67.641-81.094v-95.531c7.7344 11.203 16.828 20.625 27.141 27.984 6 4.2656 13.688 5.1562 20.484 2.3438l62.953-26.109c6.6562-2.7656 11.438-8.6719 12.797-15.75 2.3438-12.422 2.3438-25.266 0.09375-38.297l94.875 94.875c-2.6719 5.6719-4.1719 11.953-4.1719 18.609 0 24.094 19.641 43.734 43.734 43.734s43.734-19.641 43.734-43.734-19.641-43.734-43.734-43.734c-6.6562 0-12.938 1.5-18.609 4.1719l-95.719-95.719c13.359 2.4844 26.484 2.6719 38.953 0.5625 7.2656-1.2188 13.312-6 16.125-12.844l26.109-63c2.7656-6.6562 1.9688-14.203-2.1094-20.156-7.1719-10.453-16.266-19.594-27.141-27.234h94.219c7.0312 38.391 40.688 67.641 81.094 67.641 45.469 0 82.453-36.984 82.453-82.453s-36.984-82.453-82.453-82.453zm-112.97-204.32c7.7344 0 14.062 6.3281 14.062 14.062s-6.3281 14.062-14.062 14.062-14.062-6.3281-14.062-14.062 6.3281-14.062 14.062-14.062zm-545.48 28.078c-7.7344 0-14.062-6.3281-14.062-14.062s6.3281-14.062 14.062-14.062 14.062 6.3281 14.062 14.062-6.3281 14.062-14.062 14.062zm-113.02 311.48c-29.109 0-52.781-23.672-52.781-52.781s23.672-52.781 52.781-52.781 52.781 23.672 52.781 52.781-23.672 52.781-52.781 52.781zm112.97 234c-7.7344 0-14.062-6.3281-14.062-14.062s6.3281-14.062 14.062-14.062 14.062 6.3281 14.062 14.062-6.3281 14.062-14.062 14.062zm545.48-28.078c7.7344 0 14.062 6.3281 14.062 14.062s-6.3281 14.062-14.062 14.062-14.062-6.3281-14.062-14.062 6.3281-14.062 14.062-14.062zm-325.5-644.44c0-29.109 23.672-52.781 52.781-52.781s52.781 23.672 52.781 52.781-23.672 52.781-52.781 52.781-52.781-23.672-52.781-52.781zm105.56 771.47c0 29.109-23.672 52.781-52.781 52.781s-52.781-23.672-52.781-52.781 23.672-52.781 52.781-52.781 52.781 23.672 52.781 52.781zm157.6-330.52-22.453 54.141c-9.2812 0.98438-18.797 0.28125-29.016-2.1094-8.2969-1.9688-16.875 0.89062-22.312 7.4062-6.6094 7.875-13.969 15.234-21.797 21.844-6.2812 5.2969-9 13.547-7.0312 21.609 2.5312 10.312 3.1875 20.062 1.9688 29.625l-54.141 22.453c-7.4531-6-13.828-13.453-19.453-22.688-4.125-6.7969-11.859-10.688-19.734-9.9844-10.5 0.98438-21.141 0.98438-31.688 0.09375-8.2031-0.70312-15.984 3.2344-20.297 10.312-5.5312 9.0938-11.953 16.406-19.547 22.359l-54.188-22.453c-0.98437-9.2812-0.28125-18.844 2.1094-29.016 1.9688-8.2969-0.89063-16.875-7.4062-22.312-7.875-6.6094-15.234-13.969-21.844-21.797-5.2969-6.2812-13.594-9-21.609-7.0312-10.312 2.5312-20.062 3.1875-29.625 1.9688l-22.453-54.141c6-7.4531 13.453-13.828 22.688-19.453 6.7969-4.125 10.688-11.859 9.9844-19.734-0.98437-10.5-0.98437-21.141-0.046874-31.641 0.70312-8.2031-3.2344-15.984-10.312-20.297-9.0938-5.5312-16.406-11.953-22.359-19.547l22.453-54.141c9.2812-0.98438 18.844-0.28125 29.016 2.1094 8.2969 1.9688 16.875-0.89062 22.312-7.4062 6.6094-7.875 13.969-15.234 21.797-21.844 6.2812-5.2969 9-13.547 7.0312-21.609-2.5312-10.312-3.1875-20.062-1.9688-29.625l52.172-21.609c1.2188-0.51562 2.5781-0.32812 3.5156 0.46875 6.7031 5.7188 12.469 12.562 17.625 20.906 4.4062 7.1719 12.328 11.109 20.625 10.406 10.312-0.89062 20.766-0.9375 31.078 0 8.2031 0.70312 15.984-3.2344 20.297-10.312 5.5312-9.0938 11.953-16.406 19.547-22.359l54.141 22.453c0.98437 9.2812 0.28125 18.844-2.1094 29.016-1.9688 8.2969 0.89063 16.875 7.4062 22.312 3.4219 2.9062 6.75 5.9062 9.9844 9.0938 0.375 0.51562 0.79687 0.98438 1.2656 1.4531s0.98438 0.89062 1.4531 1.2656c3.1875 3.2344 6.2344 6.5625 9.1406 10.031 5.2969 6.2812 13.547 9 21.609 7.0312 10.312-2.5312 20.062-3.1875 29.625-1.9688l21.609 52.172c0.51563 1.2188 0.32813 2.5781-0.46875 3.5156-5.7188 6.7031-12.562 12.469-20.906 17.625-7.1719 4.4062-11.109 12.281-10.406 20.625 0.89063 10.312 0.9375 20.766 0 31.078-0.70312 8.2031 3.2344 15.984 10.312 20.297 9.0938 5.5312 16.406 11.953 22.359 19.547zm175.36-2.4375c-29.109 0-52.781-23.672-52.781-52.781s23.672-52.781 52.781-52.781 52.781 23.672 52.781 52.781-23.672 52.781-52.781 52.781zm-239.81-61.453c8.2031 0 14.859-6.6562 14.859-14.859s-6.6562-14.859-14.859-14.859h-34.359v-17.391h34.312c8.2031 0 14.859-6.6562 14.859-14.859s-6.6562-14.859-14.859-14.859h-36.094c-3.7031-11.531-12.844-20.672-24.375-24.375v-36.141c0-8.2031-6.6562-14.859-14.859-14.859-8.2031 0-14.859 6.6562-14.859 14.859v34.359h-17.391v-34.359c0-8.2031-6.6562-14.859-14.859-14.859-8.2031 0-14.859 6.6562-14.859 14.859v34.359h-17.391v-34.359c0-8.2031-6.6562-14.859-14.859-14.859-8.2031 0-14.859 6.6562-14.859 14.859v34.359h-17.391v-34.359c0-8.2031-6.6562-14.859-14.859-14.859-8.2031 0-14.859 6.6562-14.859 14.859v36.141c-11.531 3.7031-20.672 12.844-24.375 24.375h-35.906c-8.2031 0-14.859 6.6562-14.859 14.859s6.6562 14.859 14.859 14.859h34.125v17.391h-34.125c-8.2031 0-14.859 6.6562-14.859 14.859s6.6562 14.859 14.859 14.859h34.125v17.391h-34.125c-8.2031 0-14.859 6.6562-14.859 14.859s6.6562 14.859 14.859 14.859h34.125v17.391h-34.125c-8.2031 0-14.859 6.6562-14.859 14.859s6.6562 14.859 14.859 14.859h35.906c3.7031 11.531 12.844 20.672 24.375 24.375v36.094c0 8.2031 6.6562 14.859 14.859 14.859 8.2031 0 14.859-6.6562 14.859-14.859v-34.312h17.391v34.312c0 8.2031 6.6562 14.859 14.859 14.859 8.2031 0 14.859-6.6562 14.859-14.859v-34.312h17.391v34.312c0 8.2031 6.6562 14.859 14.859 14.859 8.2031 0 14.859-6.6562 14.859-14.859v-34.312h17.391v34.312c0 8.2031 6.6562 14.859 14.859 14.859 8.2031 0 14.859-6.6562 14.859-14.859v-36.094c11.531-3.7031 20.672-12.844 24.375-24.375h36.094c8.2031 0 14.859-6.6562 14.859-14.859s-6.6562-14.859-14.859-14.859h-34.312v-17.391h34.312c8.2031 0 14.859-6.6562 14.859-14.859s-6.6562-14.859-14.859-14.859h-34.312v-17.391zm-64.031 82.688c0 4.3594-3.5156 7.875-7.875 7.875h-148.03c-4.3594 0-7.875-3.5156-7.875-7.875v-148.03c0-4.3594 3.5156-7.875 7.875-7.875h148.03c4.3594 0 7.875 3.5156 7.875 7.875z"/>
</svg>
