<?xml version="1.0" encoding="UTF-8"?>
<svg width="1200pt" height="1200pt" version="1.1" viewBox="0 0 1200 1200" xmlns="http://www.w3.org/2000/svg">
 <path d="m1034.1 391.58c33.07 0.027344 64.473-14.52 85.84-39.758 21.367-25.242 30.527-58.613 25.039-91.227-5.4844-32.613-25.062-61.148-53.512-78.008-28.449-16.859-62.883-20.328-94.125-9.4844-31.238 10.848-56.113 34.91-67.996 65.77-11.879 30.863-9.5586 65.391 6.3438 94.387l-198.16 151.91c-29.984-31.125-69.863-50.848-112.8-55.781v-194.53c36.84-7.1055 67.684-32.168 82.176-66.773 14.492-34.605 10.715-74.168-10.07-105.41-20.781-31.234-55.812-50.004-93.332-50.004s-72.551 18.77-93.336 50.004c-20.781 31.238-24.562 70.801-10.07 105.41 14.496 34.605 45.34 59.668 82.18 66.773v194.6c-48.25 5.5312-92.438 29.676-123.16 67.289l-79.375-51.02c10.148-28.664 5.5117-60.484-12.387-85.062-17.902-24.578-46.77-38.75-77.16-37.887-30.395 0.86719-58.406 16.66-74.883 42.215-16.473 25.555-19.289 57.59-7.5273 85.629s36.59 48.477 66.367 54.633c29.777 6.1523 60.672-2.7656 82.586-23.844l79.391 51.031c-21.758 44.098-25.172 95.02-9.4883 141.62l-170.32 79.617c-22.016-30.164-57.66-47.324-94.973-45.715-37.312 1.6133-71.348 21.773-90.688 53.727-19.336 31.949-21.414 71.453-5.5352 105.26 15.879 33.805 47.609 57.426 84.551 62.941 36.938 5.5156 74.184-7.8086 99.246-35.5 25.059-27.691 34.613-66.078 25.449-102.29l170.24-79.691c16.078 26.105 38.34 47.848 64.82 63.309 26.48 15.457 56.359 24.148 86.996 25.312l12.758 166.09c-36.188 9.9023-65.023 37.25-76.824 72.863-11.805 35.613-5.0117 74.77 18.098 104.32 23.113 29.555 59.477 45.59 96.883 42.723 37.41-2.8711 70.902-24.262 89.238-56.992 18.332-32.734 19.078-72.469 1.9844-105.87-17.094-33.395-49.762-56.027-87.035-60.297l-12.758-166.07c27.262-5.3086 53-16.613 75.348-33.105 22.348-16.488 40.746-37.742 53.859-62.227l125.93 49.73c-0.625 4.3398-0.94141 8.7148-0.94922 13.098-0.042968 29.574 14.125 57.367 38.082 74.707 23.957 17.336 54.789 22.105 82.863 12.82 28.078-9.2852 49.984-31.492 58.883-59.695 8.8984-28.203 3.7031-58.965-13.965-82.68-17.668-23.719-45.652-37.5-75.223-37.051-29.57 0.45312-57.121 15.082-74.055 39.328l-125.94-49.73c6.4922-24.16 8.0508-49.383 4.5781-74.16-3.4727-24.773-11.902-48.598-24.789-70.043l199.39-152.84v0.003906c20.066 16.582 45.297 25.637 71.328 25.602zm-741.08 73.035c-13.113 0-25.691-5.207-34.965-14.484-9.2773-9.2734-14.484-21.852-14.484-34.969 0-13.113 5.207-25.691 14.484-34.965 9.2734-9.2773 21.852-14.484 34.965-14.484 13.117 0 25.695 5.207 34.969 14.484 9.2773 9.2734 14.484 21.852 14.484 34.965-0.011718 13.113-5.2266 25.684-14.496 34.957-9.2734 9.2695-21.844 14.484-34.957 14.496zm-127.35 424.56c-18.469 0-36.18-7.3359-49.238-20.398-13.062-13.059-20.398-30.77-20.398-49.242 0-18.469 7.3359-36.18 20.398-49.238 13.059-13.062 30.77-20.398 49.238-20.398 18.473 0 36.184 7.3359 49.242 20.398 13.062 13.059 20.398 30.77 20.398 49.238-0.019532 18.465-7.3633 36.164-20.418 49.223-13.059 13.055-30.758 20.398-49.223 20.418zm819.22-173.3c13.117-0.003906 25.695 5.2031 34.973 14.477 9.2773 9.2695 14.492 21.852 14.492 34.965 0.003906 13.117-5.207 25.699-14.48 34.973-9.2734 9.2773-21.852 14.488-34.969 14.488-13.113 0.003906-25.695-5.207-34.969-14.48-9.2773-9.2734-14.488-21.855-14.488-34.973 0.015625-13.109 5.2266-25.676 14.496-34.949 9.2695-9.2695 21.836-14.484 34.945-14.5zm-450.95-591.16 0.003906-0.003906c0-18.469 7.3359-36.18 20.395-49.242 13.059-13.059 30.773-20.395 49.242-20.395s36.18 7.3359 49.242 20.395c13.059 13.062 20.395 30.773 20.395 49.242s-7.3359 36.184-20.395 49.242c-13.062 13.059-30.773 20.395-49.242 20.395-18.465-0.011718-36.168-7.3477-49.23-20.398s-20.414-30.75-20.445-49.211zm174.55 950.53 0.003906-0.003907c0 18.469-7.3359 36.18-20.398 49.242-13.059 13.059-30.77 20.395-49.238 20.395-18.473 0-36.184-7.3359-49.242-20.395-13.062-13.062-20.398-30.773-20.398-49.242s7.3359-36.184 20.398-49.242c13.059-13.059 30.77-20.395 49.242-20.395 18.457 0.03125 36.152 7.3828 49.199 20.441 13.047 13.062 20.383 30.762 20.398 49.219zm-105.04-316.45c-38.215 0-74.867-15.184-101.89-42.207-27.023-27.023-42.203-63.676-42.203-101.89s15.18-74.871 42.203-101.89c27.027-27.023 63.68-42.207 101.89-42.207 38.219 0 74.871 15.184 101.9 42.207 27.023 27.023 42.203 63.676 42.203 101.89-0.042969 38.203-15.238 74.832-42.254 101.85-27.012 27.012-63.641 42.211-101.85 42.254zm430.65-549.27c18.516-0.003906 36.273 7.3477 49.363 20.438 13.094 13.09 20.449 30.844 20.453 49.355 0.003906 18.516-7.3516 36.27-20.441 49.363-13.09 13.09-30.844 20.449-49.355 20.449-18.516 0-36.27-7.3516-49.359-20.445-13.094-13.09-20.449-30.844-20.449-49.359 0.023438-18.504 7.3789-36.242 20.465-49.328 13.082-13.086 30.82-20.449 49.324-20.473z"/>
</svg>
