<?xml version="1.0" encoding="UTF-8"?>
<svg width="1200pt" height="1200pt" version="1.1" viewBox="0 0 1200 1200" xmlns="http://www.w3.org/2000/svg">
 <path d="m387.1 677.53v63.609c0 60 97.5 110.67 212.9 110.67s212.95-50.719 212.95-110.67v-63.562c-43.406 42-121.74 69.562-212.95 69.562-91.219-0.09375-169.5-27.609-212.9-69.609zm159.19 118.83c-1.5938 8.7656-9.2344 14.906-17.859 14.906-1.0312 0-2.1562-0.09375-3.2812-0.28125-30.234-5.4844-58.125-14.25-82.875-25.969-9.0469-4.3125-12.938-15.094-8.625-24.188s15.141-12.938 24.188-8.625c21.844 10.359 46.688 18.094 73.781 23.016 9.8906 1.8281 16.453 11.25 14.672 21.141z"/>
 <path d="m808.82 540.24-0.09375 0.09375c-0.70312 0.65625-1.4062 1.2656-2.1094 1.875-0.75 0.65625-1.5 1.3125-2.25 1.875-0.5625 0.46875-1.2188 1.0312-1.7812 1.5-1.6875 1.4062-3.375 2.7188-5.1094 4.0312-0.79688 0.60938-1.5938 1.2188-2.4375 1.7812s-1.6406 1.1719-2.4375 1.7812c-1.7812 1.3125-3.6562 2.5781-5.5312 3.8438-1.5938 1.0312-3.1406 2.0625-4.7344 3.0938l-2.6719 1.6875c-1.7812 1.0781-3.5625 2.1562-5.3438 3.1875-0.09375 0-0.14062 0.09375-0.1875 0.09375-0.9375 0.51562-1.8281 1.0312-2.7656 1.5469-1.875 1.0312-3.8438 2.0625-5.7656 3.0938-0.98438 0.46875-1.9688 1.0312-2.9531 1.5-1.3125 0.65625-2.5781 1.3125-3.8438 1.875-1.0781 0.5625-2.2031 1.0312-3.3281 1.5938-3.6562 1.6875-7.4062 3.375-11.25 4.9219-1.3125 0.5625-2.625 1.0312-3.9375 1.5938-1.4062 0.5625-2.8125 1.125-4.2656 1.6406-4.0312 1.5469-8.1094 3-12.281 4.4062-1.6875 0.5625-3.4219 1.125-5.1562 1.6875-1.0312 0.375-2.1562 0.65625-3.1875 0.98438-0.60938 0.1875-1.2188 0.375-1.875 0.5625-1.5 0.46875-2.9062 0.84375-4.4062 1.2656-3.75 1.0312-7.5 2.0625-11.344 3-1.3125 0.375-2.6719 0.65625-4.0312 0.9375-1.6875 0.375-3.375 0.79688-5.0625 1.125-2.4844 0.5625-5.0156 1.0312-7.5 1.5938-2.2031 0.42188-4.4062 0.84375-6.6562 1.2188-1.125 0.1875-2.2969 0.375-3.4688 0.5625-0.98438 0.1875-1.9688 0.375-3 0.46875-1.5469 0.28125-3.0938 0.46875-4.6875 0.75-2.0625 0.32812-4.2188 0.60938-6.375 0.9375-2.3438 0.32812-4.6875 0.5625-7.0312 0.84375-2.8125 0.375-5.6719 0.65625-8.5312 0.89062-2.5781 0.28125-5.25 0.46875-7.8281 0.65625-1.9219 0.1875-3.8438 0.28125-5.8125 0.375-0.65625 0.046875-1.2656 0.09375-1.9219 0.09375-1.875 0.09375-3.75 0.1875-5.5781 0.28125-0.375 0.046875-0.79688 0.046875-1.1719 0.09375-1.125 0.046875-2.3438 0.09375-3.4688 0.14062-2.3438 0.09375-4.6875 0.14062-7.125 0.1875-2.8125 0.09375-5.625 0.09375-8.5312 0.09375-2.8594 0-5.7188 0-8.5312-0.09375-2.3906-0.046875-4.7344-0.09375-7.0781-0.1875-1.2188-0.046875-2.4375-0.09375-3.6094-0.1875h-0.79688c-1.9688-0.09375-3.8906-0.1875-5.8594-0.28125-0.65625-0.046875-1.2656-0.09375-1.875-0.09375-1.9688-0.09375-3.8438-0.28125-5.8125-0.375-2.625-0.1875-5.25-0.375-7.8281-0.65625-2.9062-0.28125-5.7188-0.5625-8.5312-0.89062-2.625-0.28125-5.25-0.65625-7.875-0.98438-1.9688-0.28125-3.8438-0.5625-5.8125-0.84375-1.4062-0.1875-2.8125-0.375-4.1719-0.65625-1.125-0.1875-2.25-0.375-3.375-0.5625l-3.2344-0.5625c-2.25-0.375-4.5-0.84375-6.6562-1.2188-2.5312-0.46875-5.0625-1.0312-7.5-1.5938-1.7812-0.375-3.6562-0.79688-5.4375-1.2188-1.2188-0.28125-2.4375-0.5625-3.5625-0.84375-4.7812-1.125-9.5625-2.4375-14.203-3.7969-1.6406-0.46875-3.2344-0.9375-4.8281-1.4062-0.46875-0.14062-0.9375-0.28125-1.4062-0.375-2.1562-0.65625-4.2656-1.3594-6.375-2.0625-3.375-1.125-6.75-2.3438-10.078-3.5625-0.75-0.28125-1.5469-0.5625-2.2969-0.84375-2.5312-0.9375-5.0156-1.9219-7.4531-2.9531-1.0312-0.42188-2.1562-0.89062-3.1875-1.3125s-2.1094-0.89062-3.1406-1.3594c-1.0312-0.42188-2.0625-0.89062-3.0938-1.4062-0.84375-0.375-1.5938-0.75-2.4375-1.125-2.25-1.0312-4.5-2.1094-6.6562-3.1875-1.0312-0.46875-1.9688-1.0312-2.9531-1.5-1.9219-1.0312-3.8438-2.0156-5.7656-3.0938-0.9375-0.46875-1.875-1.0312-2.7656-1.5469-0.046875 0-0.09375-0.09375-0.1875-0.09375-1.7812-1.0312-3.5625-2.0625-5.3438-3.1875-0.9375-0.5625-1.7812-1.125-2.6719-1.6875-1.5938-1.0312-3.1875-2.0625-4.7344-3.0938-1.875-1.2188-3.7031-2.5312-5.5312-3.8438-0.84375-0.5625-1.6406-1.1719-2.4375-1.7812-0.84375-0.60938-1.5938-1.2188-2.4375-1.7812-1.7344-1.3125-3.4219-2.625-5.1094-4.0312-0.60938-0.46875-1.2188-1.0312-1.7812-1.5-3-2.5312-5.8594-5.0625-8.5312-7.6875l0.046875 63.469c0 60 97.5 110.72 212.9 110.72 115.4 0 212.95-50.719 212.95-110.72v-63.562c-0.65625 0.65625-1.3594 1.3125-2.0625 1.9688-0.70312 0.5625-1.3594 1.2188-2.0625 1.8281zm-262.55 114.98c-1.5938 8.7656-9.2344 14.906-17.859 14.906-1.0312 0-2.1562-0.09375-3.2812-0.28125-30.375-5.5312-58.266-14.25-82.875-25.875-9.0469-4.3125-12.938-15.141-8.625-24.188 4.3125-9.0938 15.141-12.938 24.188-8.625 21.703 10.266 46.547 18 73.781 22.922 9.8906 1.8281 16.453 11.297 14.672 21.141z"/>
 <path d="m600 348.14c-115.41 0-212.9 50.719-212.9 110.72s97.5 110.72 212.9 110.72 212.95-50.719 212.95-110.72c-0.046875-60-97.547-110.72-212.95-110.72z"/>
 <path d="m581.81 170.02v80.391c0 10.031 8.1562 18.188 18.188 18.188s18.188-8.1562 18.188-18.188v-80.391c28.406-7.9688 49.406-34.031 49.406-64.969 0-37.219-30.281-67.547-67.547-67.547-37.219 0-67.5 30.281-67.5 67.547-0.046875 30.891 20.859 57.047 49.266 64.969z"/>
 <path d="m847.13 370.97c4.6406 0 9.2812-1.7812 12.844-5.3438l56.859-56.859c9.9375 5.6719 21.281 8.7188 33.047 8.7188h0.046875c18 0 34.969-7.0312 47.719-19.781s19.781-29.625 19.781-47.672v-0.09375c0-18-7.0312-34.969-19.781-47.719-12.797-12.75-29.719-19.734-47.812-19.781-18 0-34.969 7.0312-47.625 19.781-12.75 12.75-19.781 29.766-19.781 47.812 0 11.812 3 23.109 8.7188 33.047l-56.859 56.906c-7.0781 7.0781-7.0781 18.562 0 25.688 3.5625 3.5156 8.25 5.2969 12.844 5.2969z"/>
 <path d="m1094.9 532.45c-30.938 0-57.047 20.906-64.969 49.406h-80.344c-10.031 0-18.188 8.1562-18.188 18.188s8.1562 18.188 18.188 18.188h80.344c7.9688 28.406 34.031 49.312 64.969 49.312 37.219 0 67.547-30.281 67.547-67.5 0.046875-37.266-30.281-67.594-67.547-67.594z"/>
 <path d="m916.87 891.19-56.906-56.812c-7.125-7.0781-18.562-7.0781-25.688 0-7.0781 7.125-7.0781 18.562 0 25.688l56.859 56.812c-14.484 25.688-10.781 58.969 11.062 80.906 13.125 13.125 30.422 19.688 47.719 19.688s34.594-6.5625 47.719-19.688c26.297-26.344 26.344-69.188 0-95.531-21.797-21.844-55.078-25.547-80.766-11.062z"/>
 <path d="m618.14 1030v-80.438c0-10.031-8.1562-18.188-18.188-18.188s-18.188 8.1562-18.188 18.188v80.438c-28.406 7.9688-49.312 34.031-49.312 64.969 0 37.219 30.281 67.547 67.5 67.547s67.547-30.281 67.547-67.547c0-30.891-20.906-57.047-49.359-64.969z"/>
 <path d="m339.94 834.37-56.859 56.812c-25.688-14.438-58.969-10.781-80.906 11.062-26.25 26.344-26.25 69.141 0 95.438 0 0 0 0.046875 0.046875 0.046875 13.125 13.125 30.469 19.688 47.719 19.688s34.594-6.5625 47.812-19.688c21.75-21.844 25.5-55.078 11.016-80.812l56.859-56.859c7.125-7.125 7.125-18.562 0-25.688-7.0781-7.125-18.562-7.125-25.688 0z"/>
 <path d="m250.4 618.19c10.031 0 18.188-8.1562 18.188-18.188s-8.1562-18.188-18.188-18.188h-80.438c-7.9219-28.406-34.031-49.359-64.969-49.359-37.219 0-67.5 30.281-67.5 67.547 0 37.219 30.281 67.5 67.5 67.5 30.938 0 57.047-20.906 64.969-49.312z"/>
 <path d="m308.81 283.08c14.438-25.688 10.781-58.922-11.062-80.812-26.344-26.344-69.188-26.344-95.531 0-26.25 26.344-26.25 69.141 0 95.438 13.125 13.125 30.469 19.781 47.719 19.781 11.438 0 22.875-2.9062 33.141-8.6719l56.812 56.859c3.5625 3.5625 8.2031 5.3438 12.844 5.3438s9.2812-1.7812 12.844-5.3438c7.125-7.0781 7.125-18.562 0-25.688z"/>
</svg>
